<svg xmlns="http://www.w3.org/2000/svg" xmlns:xlink="http://www.w3.org/1999/xlink" width="1920" zoomAndPan="magnify" viewBox="0 0 1440 809.999993" height="1080" preserveAspectRatio="xMidYMid meet" version="1.0"><defs><g/><clipPath id="a5f4441f59"><path d="M 599 104 L 1032.453125 104 L 1032.453125 324 L 599 324 Z M 599 104 " clip-rule="nonzero"/></clipPath></defs><g fill="#009a22" fill-opacity="1"><g transform="translate(96.000403, 530.432462)"><g><path d="M 10.28125 0 L 10.28125 -150.296875 L 76.515625 -150.296875 C 94.179688 -150.296875 108 -146.828125 117.96875 -139.890625 C 127.945312 -132.960938 132.9375 -123.332031 132.9375 -111 C 132.9375 -102.625 131.03125 -95.617188 127.21875 -89.984375 C 123.414062 -84.359375 118.164062 -80.628906 111.46875 -78.796875 L 111.46875 -78.578125 C 119.53125 -76.742188 126.070312 -72.859375 131.09375 -66.921875 C 136.125 -60.984375 138.640625 -53.296875 138.640625 -43.859375 C 138.640625 -29.992188 133.84375 -19.21875 124.25 -11.53125 C 114.65625 -3.84375 100.34375 0 81.3125 0 Z M 47.734375 -87.9375 L 79.03125 -87.9375 C 85.726562 -87.9375 90.90625 -89.378906 94.5625 -92.265625 C 98.21875 -95.160156 100.046875 -99.425781 100.046875 -105.0625 C 100.046875 -110.695312 98.101562 -115.113281 94.21875 -118.3125 C 90.332031 -121.507812 84.351562 -123.109375 76.28125 -123.109375 L 47.734375 -123.109375 Z M 47.734375 -27.1875 L 81.3125 -27.1875 C 88.164062 -27.1875 93.492188 -29.007812 97.296875 -32.65625 C 101.109375 -36.3125 103.015625 -41.335938 103.015625 -47.734375 C 103.015625 -53.066406 101.035156 -57.332031 97.078125 -60.53125 C 93.117188 -63.726562 87.5625 -65.328125 80.40625 -65.328125 L 47.734375 -65.328125 Z M 47.734375 -27.1875 "/></g></g></g><g fill="#009a22" fill-opacity="1"><g transform="translate(241.257781, 530.432462)"><g><path d="M 10.28125 0 L 10.28125 -150.296875 L 80.40625 -150.296875 C 100.34375 -150.296875 115.523438 -146.375 125.953125 -138.53125 C 136.390625 -130.6875 141.609375 -119.6875 141.609375 -105.53125 C 141.609375 -95.9375 139.664062 -88.164062 135.78125 -82.21875 C 131.90625 -76.28125 126.390625 -72.25 119.234375 -70.125 L 119.234375 -69.65625 C 126.691406 -67.988281 132.132812 -64.335938 135.5625 -58.703125 C 138.988281 -53.066406 140.703125 -45.984375 140.703125 -37.453125 L 140.703125 0 L 103.234375 0 L 103.234375 -36.3125 C 103.234375 -43.164062 101.820312 -48.148438 99 -51.265625 C 96.1875 -54.390625 91.203125 -55.953125 84.046875 -55.953125 L 47.734375 -55.953125 L 47.734375 0 Z M 47.734375 -78.578125 L 82 -78.578125 C 97.832031 -78.578125 105.75 -85.578125 105.75 -99.578125 C 105.75 -106.285156 103.65625 -111.503906 99.46875 -115.234375 C 95.28125 -118.960938 88.847656 -120.828125 80.171875 -120.828125 L 47.734375 -120.828125 Z M 47.734375 -78.578125 "/></g></g></g><g fill="#009a22" fill-opacity="1"><g transform="translate(391.996575, 530.432462)"><g><path d="M 11.421875 0 L 11.421875 -150.296875 L 48.875 -150.296875 L 48.875 0 Z M 11.421875 0 "/></g></g></g><g fill="#009a22" fill-opacity="1"><g transform="translate(452.292081, 530.432462)"><g><path d="M 81.546875 2.28125 C 67.234375 2.28125 54.441406 -0.722656 43.171875 -6.734375 C 31.898438 -12.753906 23.03125 -21.394531 16.5625 -32.65625 C 10.09375 -43.925781 6.859375 -57.40625 6.859375 -73.09375 C 6.859375 -89.84375 10.320312 -104.117188 17.25 -115.921875 C 24.175781 -127.722656 33.648438 -136.78125 45.671875 -143.09375 C 57.703125 -149.414062 71.410156 -152.578125 86.796875 -152.578125 C 99.429688 -152.578125 110.925781 -150.40625 121.28125 -146.0625 C 131.632812 -141.726562 139.859375 -135.484375 145.953125 -127.328125 C 152.046875 -119.179688 155.09375 -109.398438 155.09375 -97.984375 C 155.09375 -96.304688 155.050781 -94.628906 154.96875 -92.953125 C 154.894531 -91.285156 154.78125 -89.992188 154.625 -89.078125 L 121.96875 -89.078125 C 122.125 -90.296875 122.203125 -91.472656 122.203125 -92.609375 C 122.203125 -93.753906 122.203125 -94.707031 122.203125 -95.46875 C 122.203125 -101.40625 120.601562 -106.429688 117.40625 -110.546875 C 114.207031 -114.660156 110.019531 -117.78125 104.84375 -119.90625 C 99.664062 -122.039062 94.109375 -123.109375 88.171875 -123.109375 C 75.378906 -123.109375 64.984375 -118.691406 56.984375 -109.859375 C 48.992188 -101.023438 45 -88.691406 45 -72.859375 C 45 -62.804688 46.863281 -54.238281 50.59375 -47.15625 C 54.320312 -40.082031 59.34375 -34.640625 65.65625 -30.828125 C 71.976562 -27.023438 79.023438 -25.125 86.796875 -25.125 C 92.429688 -25.125 97.835938 -26.226562 103.015625 -28.4375 C 108.191406 -30.644531 112.414062 -33.800781 115.6875 -37.90625 C 118.957031 -42.019531 120.59375 -46.894531 120.59375 -52.53125 L 120.59375 -54.8125 L 81.765625 -54.8125 L 81.765625 -76.0625 L 156.234375 -76.0625 L 156.234375 0 L 127.21875 0 C 127.375 -2.738281 127.523438 -6.546875 127.671875 -11.421875 C 127.828125 -16.296875 127.90625 -21.09375 127.90625 -25.8125 L 127.671875 -25.8125 C 125.546875 -16.976562 120.367188 -10.085938 112.140625 -5.140625 C 103.921875 -0.191406 93.722656 2.28125 81.546875 2.28125 Z M 81.546875 2.28125 "/></g></g></g><g fill="#009a22" fill-opacity="1"><g transform="translate(616.96282, 530.432462)"><g><path d="M 10.28125 0 L 10.28125 -150.296875 L 47.734375 -150.296875 L 47.734375 -92.046875 L 112.140625 -92.046875 L 112.140625 -150.296875 L 149.609375 -150.296875 L 149.609375 0 L 112.140625 0 L 112.140625 -62.8125 L 47.734375 -62.8125 L 47.734375 0 Z M 10.28125 0 "/></g></g></g><g fill="#009a22" fill-opacity="1"><g transform="translate(776.837261, 530.432462)"><g><path d="M 46.828125 0 L 46.828125 -120.828125 L 4.109375 -120.828125 L 4.109375 -150.296875 L 126.765625 -150.296875 L 126.765625 -120.828125 L 84.28125 -120.828125 L 84.28125 0 Z M 46.828125 0 "/></g></g></g><g fill="#7ed957" fill-opacity="1"><g transform="translate(907.709584, 530.432462)"><g><path d="M 10.28125 0 L 10.28125 -150.296875 L 47.734375 -150.296875 L 47.734375 -29.46875 L 116.265625 -29.46875 L 116.265625 0 Z M 10.28125 0 "/></g></g></g><g fill="#7ed957" fill-opacity="1"><g transform="translate(1028.300627, 530.432462)"><g><path d="M 122.875 0 L 112.609375 -30.609375 L 52.53125 -30.609375 L 42.25 0 L 3.890625 0 L 61.890625 -150.296875 L 108.5 -150.296875 L 166.515625 0 Z M 60.296875 -53.90625 L 104.84375 -53.90625 L 82.6875 -119.6875 L 82.21875 -119.6875 Z M 60.296875 -53.90625 "/></g></g></g><g fill="#7ed957" fill-opacity="1"><g transform="translate(1198.681137, 530.432462)"><g><path d="M 10.28125 0 L 10.28125 -150.296875 L 76.515625 -150.296875 C 94.179688 -150.296875 108 -146.828125 117.96875 -139.890625 C 127.945312 -132.960938 132.9375 -123.332031 132.9375 -111 C 132.9375 -102.625 131.03125 -95.617188 127.21875 -89.984375 C 123.414062 -84.359375 118.164062 -80.628906 111.46875 -78.796875 L 111.46875 -78.578125 C 119.53125 -76.742188 126.070312 -72.859375 131.09375 -66.921875 C 136.125 -60.984375 138.640625 -53.296875 138.640625 -43.859375 C 138.640625 -29.992188 133.84375 -19.21875 124.25 -11.53125 C 114.65625 -3.84375 100.34375 0 81.3125 0 Z M 47.734375 -87.9375 L 79.03125 -87.9375 C 85.726562 -87.9375 90.90625 -89.378906 94.5625 -92.265625 C 98.21875 -95.160156 100.046875 -99.425781 100.046875 -105.0625 C 100.046875 -110.695312 98.101562 -115.113281 94.21875 -118.3125 C 90.332031 -121.507812 84.351562 -123.109375 76.28125 -123.109375 L 47.734375 -123.109375 Z M 47.734375 -27.1875 L 81.3125 -27.1875 C 88.164062 -27.1875 93.492188 -29.007812 97.296875 -32.65625 C 101.109375 -36.3125 103.015625 -41.335938 103.015625 -47.734375 C 103.015625 -53.066406 101.035156 -57.332031 97.078125 -60.53125 C 93.117188 -63.726562 87.5625 -65.328125 80.40625 -65.328125 L 47.734375 -65.328125 Z M 47.734375 -27.1875 "/></g></g></g><g fill="#7ed957" fill-opacity="1"><g transform="translate(256.675123, 698.057547)"><g><path d="M 70.296875 -10.796875 C 67.503906 -6.796875 63.613281 -3.804688 58.625 -1.828125 C 53.632812 0.140625 47.820312 1.125 41.1875 1.125 C 34.488281 1.125 28.535156 -0.445312 23.328125 -3.59375 C 18.128906 -6.738281 14.109375 -11.207031 11.265625 -17 C 8.421875 -22.800781 6.960938 -29.523438 6.890625 -37.171875 L 6.890625 -44.359375 C 6.890625 -56.742188 9.78125 -66.347656 15.5625 -73.171875 C 21.34375 -79.992188 29.472656 -83.40625 39.953125 -83.40625 C 48.535156 -83.40625 55.441406 -81.207031 60.671875 -76.8125 C 65.910156 -72.425781 69.117188 -66.203125 70.296875 -58.140625 L 59.4375 -58.140625 C 57.40625 -69.023438 50.925781 -74.46875 40 -74.46875 C 32.726562 -74.46875 27.21875 -71.914062 23.46875 -66.8125 C 19.726562 -61.707031 17.835938 -54.316406 17.796875 -44.640625 L 17.796875 -37.90625 C 17.796875 -28.6875 19.90625 -21.351562 24.125 -15.90625 C 28.34375 -10.457031 34.050781 -7.734375 41.25 -7.734375 C 45.3125 -7.734375 48.867188 -8.1875 51.921875 -9.09375 C 54.972656 -10 57.5 -11.523438 59.5 -13.671875 L 59.5 -32.15625 L 40.453125 -32.15625 L 40.453125 -40.96875 L 70.296875 -40.96875 Z M 70.296875 -10.796875 "/></g></g></g><g fill="#7ed957" fill-opacity="1"><g transform="translate(335.494275, 698.057547)"><g><path d="M 39.71875 -33.28125 L 20.390625 -33.28125 L 20.390625 0 L 9.5 0 L 9.5 -82.265625 L 36.734375 -82.265625 C 45.992188 -82.265625 53.117188 -80.15625 58.109375 -75.9375 C 63.097656 -71.71875 65.59375 -65.578125 65.59375 -57.515625 C 65.59375 -52.390625 64.207031 -47.925781 61.4375 -44.125 C 58.675781 -40.320312 54.828125 -37.476562 49.890625 -35.59375 L 69.21875 -0.671875 L 69.21875 0 L 57.578125 0 Z M 20.390625 -42.15625 L 37.0625 -42.15625 C 42.445312 -42.15625 46.726562 -43.546875 49.90625 -46.328125 C 53.09375 -49.117188 54.6875 -52.847656 54.6875 -57.515625 C 54.6875 -62.597656 53.171875 -66.492188 50.140625 -69.203125 C 47.109375 -71.921875 42.734375 -73.300781 37.015625 -73.34375 L 20.390625 -73.34375 Z M 20.390625 -42.15625 "/></g></g></g><g fill="#7ed957" fill-opacity="1"><g transform="translate(406.742268, 698.057547)"><g><path d="M 56.046875 -38.03125 L 20.390625 -38.03125 L 20.390625 -8.875 L 61.8125 -8.875 L 61.8125 0 L 9.546875 0 L 9.546875 -82.265625 L 61.25 -82.265625 L 61.25 -73.34375 L 20.390625 -73.34375 L 20.390625 -46.890625 L 56.046875 -46.890625 Z M 56.046875 -38.03125 "/></g></g></g><g fill="#7ed957" fill-opacity="1"><g transform="translate(472.509647, 698.057547)"><g><path d="M 56.046875 -38.03125 L 20.390625 -38.03125 L 20.390625 -8.875 L 61.8125 -8.875 L 61.8125 0 L 9.546875 0 L 9.546875 -82.265625 L 61.25 -82.265625 L 61.25 -73.34375 L 20.390625 -73.34375 L 20.390625 -46.890625 L 56.046875 -46.890625 Z M 56.046875 -38.03125 "/></g></g></g><g fill="#7ed957" fill-opacity="1"><g transform="translate(538.277026, 698.057547)"><g><path d="M 72.78125 0 L 61.875 0 L 20.453125 -63.390625 L 20.453125 0 L 9.546875 0 L 9.546875 -82.265625 L 20.453125 -82.265625 L 61.984375 -18.59375 L 61.984375 -82.265625 L 72.78125 -82.265625 Z M 72.78125 0 "/></g></g></g><g fill="#7ed957" fill-opacity="1"><g transform="translate(620.768756, 698.057547)"><g/></g></g><g fill="#7ed957" fill-opacity="1"><g transform="translate(649.414856, 698.057547)"><g><path d="M 21.1875 0 L 10.34375 0 L 10.34375 -82.265625 L 21.1875 -82.265625 Z M 21.1875 0 "/></g></g></g><g fill="#7ed957" fill-opacity="1"><g transform="translate(680.886015, 698.057547)"><g><path d="M 33.78125 -36.671875 C 24.476562 -39.347656 17.707031 -42.632812 13.46875 -46.53125 C 9.238281 -50.425781 7.125 -55.238281 7.125 -60.96875 C 7.125 -67.445312 9.710938 -72.804688 14.890625 -77.046875 C 20.066406 -81.285156 26.800781 -83.40625 35.09375 -83.40625 C 40.738281 -83.40625 45.773438 -82.3125 50.203125 -80.125 C 54.628906 -77.9375 58.054688 -74.921875 60.484375 -71.078125 C 62.910156 -67.234375 64.125 -63.035156 64.125 -58.484375 L 53.21875 -58.484375 C 53.21875 -63.453125 51.632812 -67.359375 48.46875 -70.203125 C 45.3125 -73.046875 40.851562 -74.46875 35.09375 -74.46875 C 29.738281 -74.46875 25.5625 -73.289062 22.5625 -70.9375 C 19.570312 -68.582031 18.078125 -65.316406 18.078125 -61.140625 C 18.078125 -57.785156 19.5 -54.945312 22.34375 -52.625 C 25.1875 -50.3125 30.023438 -48.191406 36.859375 -46.265625 C 43.703125 -44.347656 49.050781 -42.226562 52.90625 -39.90625 C 56.769531 -37.59375 59.632812 -34.890625 61.5 -31.796875 C 63.363281 -28.710938 64.296875 -25.082031 64.296875 -20.90625 C 64.296875 -14.238281 61.695312 -8.898438 56.5 -4.890625 C 51.300781 -0.878906 44.351562 1.125 35.65625 1.125 C 30 1.125 24.722656 0.0390625 19.828125 -2.125 C 14.929688 -4.289062 11.15625 -7.253906 8.5 -11.015625 C 5.84375 -14.785156 4.515625 -19.0625 4.515625 -23.84375 L 15.421875 -23.84375 C 15.421875 -18.875 17.253906 -14.945312 20.921875 -12.0625 C 24.597656 -9.175781 29.507812 -7.734375 35.65625 -7.734375 C 41.375 -7.734375 45.757812 -8.898438 48.8125 -11.234375 C 51.863281 -13.578125 53.390625 -16.765625 53.390625 -20.796875 C 53.390625 -24.828125 51.976562 -27.941406 49.15625 -30.140625 C 46.332031 -32.347656 41.207031 -34.523438 33.78125 -36.671875 Z M 33.78125 -36.671875 "/></g></g></g><g fill="#7ed957" fill-opacity="1"><g transform="translate(749.534954, 698.057547)"><g/></g></g><g fill="#7ed957" fill-opacity="1"><g transform="translate(778.181054, 698.057547)"><g><path d="M 9.546875 0 L 9.546875 -82.265625 L 36.4375 -82.265625 C 45.363281 -82.265625 52.078125 -80.414062 56.578125 -76.71875 C 61.085938 -73.03125 63.34375 -67.570312 63.34375 -60.34375 C 63.34375 -56.5 62.25 -53.097656 60.0625 -50.140625 C 57.875 -47.191406 54.898438 -44.90625 51.140625 -43.28125 C 55.578125 -42.039062 59.085938 -39.675781 61.671875 -36.1875 C 64.253906 -32.707031 65.546875 -28.554688 65.546875 -23.734375 C 65.546875 -16.347656 63.148438 -10.546875 58.359375 -6.328125 C 53.578125 -2.109375 46.816406 0 38.078125 0 Z M 20.390625 -38.484375 L 20.390625 -8.875 L 38.3125 -8.875 C 43.351562 -8.875 47.332031 -10.179688 50.25 -12.796875 C 53.175781 -15.410156 54.640625 -19.019531 54.640625 -23.625 C 54.640625 -33.53125 49.253906 -38.484375 38.484375 -38.484375 Z M 20.390625 -47.1875 L 36.78125 -47.1875 C 41.53125 -47.1875 45.328125 -48.367188 48.171875 -50.734375 C 51.015625 -53.109375 52.4375 -56.332031 52.4375 -60.40625 C 52.4375 -64.925781 51.117188 -68.210938 48.484375 -70.265625 C 45.847656 -72.316406 41.832031 -73.34375 36.4375 -73.34375 L 20.390625 -73.34375 Z M 20.390625 -47.1875 "/></g></g></g><g fill="#7ed957" fill-opacity="1"><g transform="translate(850.220032, 698.057547)"><g><path d="M 39.71875 -33.28125 L 20.390625 -33.28125 L 20.390625 0 L 9.5 0 L 9.5 -82.265625 L 36.734375 -82.265625 C 45.992188 -82.265625 53.117188 -80.15625 58.109375 -75.9375 C 63.097656 -71.71875 65.59375 -65.578125 65.59375 -57.515625 C 65.59375 -52.390625 64.207031 -47.925781 61.4375 -44.125 C 58.675781 -40.320312 54.828125 -37.476562 49.890625 -35.59375 L 69.21875 -0.671875 L 69.21875 0 L 57.578125 0 Z M 20.390625 -42.15625 L 37.0625 -42.15625 C 42.445312 -42.15625 46.726562 -43.546875 49.90625 -46.328125 C 53.09375 -49.117188 54.6875 -52.847656 54.6875 -57.515625 C 54.6875 -62.597656 53.171875 -66.492188 50.140625 -69.203125 C 47.109375 -71.921875 42.734375 -73.300781 37.015625 -73.34375 L 20.390625 -73.34375 Z M 20.390625 -42.15625 "/></g></g></g><g fill="#7ed957" fill-opacity="1"><g transform="translate(921.467995, 698.057547)"><g><path d="M 21.1875 0 L 10.34375 0 L 10.34375 -82.265625 L 21.1875 -82.265625 Z M 21.1875 0 "/></g></g></g><g fill="#7ed957" fill-opacity="1"><g transform="translate(952.939124, 698.057547)"><g><path d="M 70.296875 -10.796875 C 67.503906 -6.796875 63.613281 -3.804688 58.625 -1.828125 C 53.632812 0.140625 47.820312 1.125 41.1875 1.125 C 34.488281 1.125 28.535156 -0.445312 23.328125 -3.59375 C 18.128906 -6.738281 14.109375 -11.207031 11.265625 -17 C 8.421875 -22.800781 6.960938 -29.523438 6.890625 -37.171875 L 6.890625 -44.359375 C 6.890625 -56.742188 9.78125 -66.347656 15.5625 -73.171875 C 21.34375 -79.992188 29.472656 -83.40625 39.953125 -83.40625 C 48.535156 -83.40625 55.441406 -81.207031 60.671875 -76.8125 C 65.910156 -72.425781 69.117188 -66.203125 70.296875 -58.140625 L 59.4375 -58.140625 C 57.40625 -69.023438 50.925781 -74.46875 40 -74.46875 C 32.726562 -74.46875 27.21875 -71.914062 23.46875 -66.8125 C 19.726562 -61.707031 17.835938 -54.316406 17.796875 -44.640625 L 17.796875 -37.90625 C 17.796875 -28.6875 19.90625 -21.351562 24.125 -15.90625 C 28.34375 -10.457031 34.050781 -7.734375 41.25 -7.734375 C 45.3125 -7.734375 48.867188 -8.1875 51.921875 -9.09375 C 54.972656 -10 57.5 -11.523438 59.5 -13.671875 L 59.5 -32.15625 L 40.453125 -32.15625 L 40.453125 -40.96875 L 70.296875 -40.96875 Z M 70.296875 -10.796875 "/></g></g></g><g fill="#7ed957" fill-opacity="1"><g transform="translate(1031.758306, 698.057547)"><g><path d="M 72.78125 0 L 61.875 0 L 61.875 -38.03125 L 20.390625 -38.03125 L 20.390625 0 L 9.546875 0 L 9.546875 -82.265625 L 20.390625 -82.265625 L 20.390625 -46.890625 L 61.875 -46.890625 L 61.875 -82.265625 L 72.78125 -82.265625 Z M 72.78125 0 "/></g></g></g><g fill="#7ed957" fill-opacity="1"><g transform="translate(1114.250036, 698.057547)"><g><path d="M 66.390625 -73.34375 L 39.953125 -73.34375 L 39.953125 0 L 29.15625 0 L 29.15625 -73.34375 L 2.765625 -73.34375 L 2.765625 -82.265625 L 66.390625 -82.265625 Z M 66.390625 -73.34375 "/></g></g></g><path fill="#009a22" d="M 841.328125 150.066406 C 841.328125 150.90625 841.261719 151.746094 841.128906 152.578125 C 840.996094 153.410156 840.800781 154.226562 840.539062 155.027344 C 840.277344 155.828125 839.953125 156.605469 839.566406 157.355469 C 839.183594 158.101562 838.742188 158.816406 838.242188 159.496094 C 837.742188 160.175781 837.195312 160.8125 836.59375 161.40625 C 835.996094 162 835.355469 162.539062 834.667969 163.03125 C 833.984375 163.523438 833.265625 163.957031 832.511719 164.332031 C 831.757812 164.707031 830.976562 165.023438 830.171875 165.277344 C 829.371094 165.53125 828.550781 165.71875 827.71875 165.839844 C 826.882812 165.964844 826.046875 166.019531 825.203125 166.011719 C 824.359375 166 823.523438 165.925781 822.691406 165.78125 C 821.863281 165.640625 821.046875 165.433594 820.25 165.160156 C 819.453125 164.890625 818.679688 164.558594 817.933594 164.164062 C 817.191406 163.769531 816.480469 163.320312 815.808594 162.8125 C 815.132812 162.304688 814.503906 161.75 813.917969 161.144531 C 813.332031 160.535156 812.800781 159.886719 812.316406 159.199219 C 805.5625 150.339844 750.179688 122.515625 696.863281 130.980469 C 656.296875 137.417969 627.875 163.203125 612.386719 207.621094 C 594.40625 259.175781 565.902344 294.1875 527.84375 311.703125 C 474.125 336.367188 421.613281 316.28125 419.441406 315.433594 C 418.492188 315.035156 417.585938 314.550781 416.730469 313.980469 C 415.875 313.40625 415.082031 312.757812 414.351562 312.03125 C 413.621094 311.304688 412.964844 310.511719 412.390625 309.660156 C 411.8125 308.804688 411.320312 307.90625 410.917969 306.957031 C 410.515625 306.007812 410.207031 305.03125 409.996094 304.023438 C 409.78125 303.011719 409.667969 301.996094 409.652344 300.964844 C 409.636719 299.933594 409.722656 298.910156 409.90625 297.898438 C 410.089844 296.882812 410.367188 295.898438 410.742188 294.9375 C 411.117188 293.976562 411.578125 293.0625 412.128906 292.191406 C 412.683594 291.320312 413.3125 290.511719 414.019531 289.765625 C 414.730469 289.015625 415.503906 288.34375 416.34375 287.746094 C 417.183594 287.148438 418.070312 286.636719 419.007812 286.210938 C 419.949219 285.785156 420.917969 285.453125 421.921875 285.214844 C 422.921875 284.980469 423.9375 284.839844 424.96875 284.800781 C 426 284.757812 427.023438 284.820312 428.039062 284.976562 C 429.058594 285.136719 430.050781 285.390625 431.019531 285.738281 C 431.59375 285.957031 473.730469 301.652344 514.839844 282.582031 C 544.65625 268.761719 567.296875 240.007812 582.253906 197.121094 C 607.273438 125.414062 657.351562 104.15625 694.976562 99.03125 C 722.589844 95.230469 754.378906 98.796875 784.480469 109.078125 C 804.605469 115.914062 829.351562 127.929688 838.429688 140.945312 C 839.371094 142.28125 840.085938 143.726562 840.582031 145.28125 C 841.074219 146.839844 841.324219 148.433594 841.328125 150.066406 Z M 841.328125 150.066406 " fill-opacity="1" fill-rule="nonzero"/><path fill="#009a22" d="M 1029.515625 307.3125 C 1029.511719 308.277344 1029.425781 309.234375 1029.25 310.183594 C 1029.074219 311.132812 1028.8125 312.054688 1028.472656 312.957031 C 1028.128906 313.859375 1027.707031 314.722656 1027.207031 315.546875 C 1026.707031 316.371094 1026.136719 317.144531 1025.496094 317.867188 C 1024.859375 318.589844 1024.160156 319.246094 1023.398438 319.839844 C 1022.640625 320.4375 1021.832031 320.957031 1020.980469 321.40625 C 1020.125 321.855469 1019.238281 322.222656 1018.316406 322.511719 C 1017.398438 322.796875 1016.457031 323 1015.5 323.117188 C 961.046875 329.777344 918.433594 324.265625 889 306.710938 C 864.707031 292.261719 853.179688 265.945312 852.523438 263.960938 L 867.304688 243.824219 C 867.304688 243.824219 875.371094 237.535156 875.261719 237.261719 C 875.425781 237.671875 891.898438 272.246094 908.070312 280.902344 C 924.246094 289.554688 955.210938 298.386719 1011.617188 291.480469 C 1012.175781 291.414062 1012.738281 291.378906 1013.300781 291.371094 C 1013.863281 291.363281 1014.425781 291.382812 1014.984375 291.4375 C 1015.546875 291.488281 1016.101562 291.570312 1016.652344 291.679688 C 1017.207031 291.789062 1017.75 291.929688 1018.289062 292.097656 C 1018.824219 292.265625 1019.351562 292.460938 1019.867188 292.683594 C 1020.382812 292.90625 1020.886719 293.15625 1021.378906 293.433594 C 1021.867188 293.710938 1022.339844 294.011719 1022.800781 294.339844 C 1023.257812 294.664062 1023.695312 295.015625 1024.117188 295.390625 C 1024.539062 295.761719 1024.941406 296.15625 1025.320312 296.570312 C 1025.699219 296.988281 1026.054688 297.421875 1026.390625 297.875 C 1026.722656 298.328125 1027.03125 298.796875 1027.316406 299.285156 C 1027.601562 299.769531 1027.855469 300.269531 1028.089844 300.78125 C 1028.320312 301.292969 1028.523438 301.816406 1028.699219 302.351562 C 1028.875 302.886719 1029.023438 303.429688 1029.140625 303.980469 C 1029.261719 304.53125 1029.351562 305.085938 1029.410156 305.644531 C 1029.46875 306.203125 1029.5 306.765625 1029.5 307.328125 Z M 1029.515625 307.3125 " fill-opacity="1" fill-rule="nonzero"/><g clip-path="url(#a5f4441f59)"><path fill="#7ed957" d="M 1032.46875 128.984375 C 1032.46875 129.636719 1032.429688 130.289062 1032.347656 130.9375 C 1032.269531 131.585938 1032.148438 132.226562 1031.992188 132.859375 C 1031.832031 133.492188 1031.636719 134.113281 1031.402344 134.722656 C 1031.164062 135.332031 1030.894531 135.925781 1030.585938 136.5 C 1030.277344 137.078125 1029.9375 137.632812 1029.558594 138.167969 C 1029.183594 138.699219 1028.777344 139.210938 1028.335938 139.691406 C 1027.898438 140.175781 1027.429688 140.632812 1026.9375 141.058594 C 1026.441406 141.484375 1025.921875 141.878906 1025.378906 142.242188 C 1024.835938 142.605469 1024.273438 142.929688 1023.6875 143.226562 C 1023.105469 143.519531 1022.503906 143.773438 1021.890625 143.992188 C 1021.273438 144.214844 1020.648438 144.394531 1020.011719 144.535156 C 1019.375 144.679688 1018.730469 144.78125 1018.078125 144.84375 C 1017.429688 144.90625 1016.777344 144.929688 1016.125 144.914062 C 1015.472656 144.894531 1014.824219 144.839844 1014.175781 144.742188 C 1013.53125 144.644531 1012.894531 144.507812 1012.265625 144.332031 C 1011.636719 144.160156 1011.019531 143.945312 1010.414062 143.695312 C 1009.648438 143.378906 968.035156 126.851562 926.554688 144.9375 C 896.476562 158.0625 873.140625 186.292969 857.199219 228.839844 C 830.703125 299.507812 783.6875 319.015625 748.921875 323.117188 C 690.257812 329.777344 611.949219 292.179688 600.886719 270.332031 C 595.828125 260.339844 613.464844 239.421875 616.308594 242.824219 C 620.984375 248.429688 694.359375 297.210938 745.300781 291.386719 C 783.003906 287.078125 810.609375 262.253906 827.328125 217.5625 C 846.46875 166.429688 875.726562 132.074219 914.238281 115.433594 C 968.472656 92.015625 1020.492188 113.273438 1022.679688 114.191406 C 1023.402344 114.496094 1024.101562 114.847656 1024.773438 115.257812 C 1025.445312 115.664062 1026.082031 116.117188 1026.6875 116.617188 C 1027.292969 117.117188 1027.855469 117.660156 1028.382812 118.242188 C 1028.90625 118.828125 1029.386719 119.445312 1029.820312 120.101562 C 1030.253906 120.757812 1030.636719 121.4375 1030.96875 122.152344 C 1031.300781 122.863281 1031.578125 123.59375 1031.800781 124.347656 C 1032.027344 125.097656 1032.195312 125.863281 1032.304688 126.640625 C 1032.417969 127.417969 1032.472656 128.199219 1032.46875 128.984375 Z M 1032.46875 128.984375 " fill-opacity="1" fill-rule="nonzero"/></g><path fill="#7ed957" d="M 590.566406 153.511719 L 575.144531 185.964844 C 574.917969 186.445312 574.578125 186.820312 574.125 187.09375 C 573.667969 187.363281 573.175781 187.484375 572.644531 187.457031 C 572.117188 187.425781 571.640625 187.25 571.21875 186.929688 C 570.796875 186.605469 570.503906 186.195312 570.332031 185.691406 L 565.78125 172.226562 C 564.0625 167.113281 561.636719 162.359375 558.503906 157.964844 C 555.371094 153.574219 551.667969 149.730469 547.390625 146.441406 C 544.5 144.238281 541.476562 142.230469 538.328125 140.414062 C 520.554688 130.078125 487.320312 118.949219 430.0625 124.636719 C 429.542969 124.6875 429.023438 124.710938 428.5 124.710938 C 427.980469 124.714844 427.460938 124.6875 426.941406 124.636719 C 426.421875 124.585938 425.90625 124.507812 425.390625 124.40625 C 424.878906 124.304688 424.375 124.179688 423.875 124.027344 C 423.375 123.875 422.886719 123.699219 422.402344 123.5 C 421.921875 123.300781 421.449219 123.078125 420.988281 122.832031 C 420.527344 122.585938 420.082031 122.316406 419.648438 122.027344 C 419.210938 121.738281 418.792969 121.429688 418.390625 121.097656 C 417.988281 120.765625 417.601562 120.414062 417.230469 120.046875 C 416.863281 119.679688 416.511719 119.292969 416.179688 118.886719 C 415.847656 118.484375 415.539062 118.066406 415.25 117.632812 C 414.957031 117.199219 414.691406 116.75 414.445312 116.292969 C 414.199219 115.832031 413.972656 115.359375 413.773438 114.878906 C 413.574219 114.394531 413.398438 113.90625 413.246094 113.40625 C 413.09375 112.90625 412.96875 112.402344 412.867188 111.886719 C 412.761719 111.375 412.6875 110.859375 412.636719 110.339844 C 412.582031 109.824219 412.558594 109.300781 412.558594 108.78125 C 412.558594 108.257812 412.582031 107.738281 412.632812 107.21875 C 412.683594 106.699219 412.761719 106.183594 412.863281 105.671875 C 412.964844 105.15625 413.089844 104.652344 413.242188 104.152344 C 413.390625 103.652344 413.566406 103.164062 413.765625 102.679688 C 413.964844 102.199219 414.1875 101.726562 414.433594 101.265625 C 414.679688 100.804688 414.949219 100.359375 415.238281 99.921875 C 415.527344 99.488281 415.835938 99.070312 416.167969 98.667969 C 416.5 98.261719 416.847656 97.875 417.21875 97.507812 C 417.585938 97.136719 417.972656 96.785156 418.375 96.453125 C 418.777344 96.125 419.195312 95.8125 419.628906 95.523438 C 420.0625 95.230469 420.511719 94.964844 420.96875 94.714844 C 421.429688 94.46875 421.902344 94.246094 422.382812 94.046875 C 422.867188 93.847656 423.355469 93.667969 423.855469 93.519531 C 424.355469 93.367188 424.859375 93.238281 425.371094 93.136719 C 425.882812 93.035156 426.398438 92.957031 426.917969 92.90625 C 545.121094 81.1875 582.554688 133.496094 590.320312 147.359375 C 590.859375 148.300781 591.148438 149.316406 591.191406 150.402344 C 591.234375 151.492188 591.027344 152.527344 590.566406 153.511719 Z M 590.566406 153.511719 " fill-opacity="1" fill-rule="nonzero"/><path fill="#7ed957" d="M 482.261719 107.109375 L 482.261719 252.765625 C 482.261719 253.285156 482.234375 253.808594 482.183594 254.328125 C 482.132812 254.847656 482.058594 255.363281 481.953125 255.875 C 481.851562 256.386719 481.726562 256.890625 481.574219 257.390625 C 481.421875 257.890625 481.246094 258.382812 481.046875 258.863281 C 480.847656 259.347656 480.625 259.820312 480.378906 260.277344 C 480.132812 260.738281 479.863281 261.1875 479.574219 261.621094 C 479.285156 262.054688 478.972656 262.472656 478.644531 262.878906 C 478.3125 263.28125 477.960938 263.667969 477.59375 264.035156 C 477.222656 264.40625 476.835938 264.757812 476.433594 265.085938 C 476.03125 265.417969 475.609375 265.730469 475.175781 266.019531 C 474.742188 266.308594 474.296875 266.578125 473.835938 266.824219 C 473.375 267.070312 472.902344 267.292969 472.421875 267.492188 C 471.9375 267.691406 471.449219 267.867188 470.949219 268.019531 C 470.449219 268.171875 469.941406 268.296875 469.429688 268.398438 C 468.917969 268.5 468.402344 268.578125 467.882812 268.628906 C 467.363281 268.679688 466.84375 268.707031 466.320312 268.707031 C 465.796875 268.707031 465.277344 268.679688 464.757812 268.628906 C 464.238281 268.578125 463.722656 268.5 463.210938 268.398438 C 462.699219 268.296875 462.191406 268.171875 461.691406 268.019531 C 461.195312 267.867188 460.703125 267.691406 460.21875 267.492188 C 459.738281 267.292969 459.265625 267.070312 458.804688 266.824219 C 458.34375 266.578125 457.898438 266.308594 457.464844 266.019531 C 457.03125 265.730469 456.609375 265.417969 456.207031 265.085938 C 455.804688 264.757812 455.417969 264.40625 455.046875 264.035156 C 454.679688 263.667969 454.328125 263.28125 453.996094 262.878906 C 453.667969 262.472656 453.355469 262.054688 453.066406 261.621094 C 452.777344 261.1875 452.507812 260.738281 452.261719 260.277344 C 452.015625 259.820312 451.792969 259.347656 451.59375 258.863281 C 451.394531 258.382812 451.21875 257.890625 451.066406 257.390625 C 450.914062 256.890625 450.789062 256.386719 450.6875 255.875 C 450.585938 255.363281 450.507812 254.847656 450.457031 254.328125 C 450.40625 253.808594 450.378906 253.285156 450.378906 252.765625 L 450.378906 107.109375 C 450.378906 106.585938 450.40625 106.066406 450.457031 105.546875 C 450.507812 105.027344 450.585938 104.511719 450.6875 104 C 450.789062 103.488281 450.914062 102.980469 451.066406 102.480469 C 451.21875 101.980469 451.394531 101.492188 451.59375 101.007812 C 451.792969 100.527344 452.015625 100.054688 452.261719 99.59375 C 452.507812 99.132812 452.777344 98.6875 453.066406 98.253906 C 453.355469 97.820312 453.667969 97.398438 453.996094 96.996094 C 454.328125 96.59375 454.679688 96.207031 455.046875 95.835938 C 455.417969 95.46875 455.804688 95.117188 456.207031 94.785156 C 456.609375 94.457031 457.03125 94.144531 457.464844 93.855469 C 457.898438 93.566406 458.34375 93.296875 458.804688 93.050781 C 459.265625 92.804688 459.738281 92.582031 460.21875 92.382812 C 460.703125 92.183594 461.195312 92.007812 461.691406 91.855469 C 462.191406 91.703125 462.699219 91.578125 463.210938 91.476562 C 463.722656 91.371094 464.238281 91.296875 464.757812 91.246094 C 465.277344 91.195312 465.796875 91.167969 466.320312 91.167969 C 466.84375 91.167969 467.363281 91.195312 467.882812 91.246094 C 468.402344 91.296875 468.917969 91.371094 469.429688 91.476562 C 469.941406 91.578125 470.449219 91.703125 470.949219 91.855469 C 471.449219 92.007812 471.9375 92.183594 472.421875 92.382812 C 472.902344 92.582031 473.375 92.804688 473.835938 93.050781 C 474.296875 93.296875 474.742188 93.566406 475.175781 93.855469 C 475.609375 94.144531 476.03125 94.457031 476.433594 94.785156 C 476.835938 95.117188 477.222656 95.46875 477.59375 95.835938 C 477.960938 96.207031 478.3125 96.59375 478.644531 96.996094 C 478.972656 97.398438 479.285156 97.820312 479.574219 98.253906 C 479.863281 98.6875 480.132812 99.132812 480.378906 99.59375 C 480.625 100.054688 480.847656 100.527344 481.046875 101.007812 C 481.246094 101.492188 481.421875 101.980469 481.574219 102.480469 C 481.726562 102.980469 481.851562 103.488281 481.953125 104 C 482.058594 104.511719 482.132812 105.027344 482.183594 105.546875 C 482.234375 106.066406 482.261719 106.585938 482.261719 107.109375 Z M 482.261719 107.109375 " fill-opacity="1" fill-rule="nonzero"/><path fill="#009a22" d="M 538.875 186.828125 L 538.875 296.363281 C 538.875 296.886719 538.847656 297.40625 538.796875 297.925781 C 538.746094 298.445312 538.671875 298.960938 538.570312 299.472656 C 538.464844 299.984375 538.339844 300.492188 538.1875 300.992188 C 538.035156 301.488281 537.859375 301.980469 537.660156 302.464844 C 537.460938 302.945312 537.238281 303.417969 536.992188 303.878906 C 536.746094 304.335938 536.476562 304.785156 536.1875 305.21875 C 535.898438 305.652344 535.585938 306.070312 535.257812 306.476562 C 534.925781 306.878906 534.574219 307.265625 534.207031 307.636719 C 533.835938 308.003906 533.449219 308.355469 533.046875 308.683594 C 532.644531 309.015625 532.222656 309.328125 531.789062 309.617188 C 531.355469 309.90625 530.910156 310.175781 530.449219 310.421875 C 529.988281 310.667969 529.515625 310.890625 529.035156 311.089844 C 528.550781 311.289062 528.0625 311.464844 527.5625 311.617188 C 527.0625 311.769531 526.554688 311.894531 526.042969 311.996094 C 525.53125 312.097656 525.015625 312.175781 524.496094 312.226562 C 523.976562 312.277344 523.457031 312.304688 522.933594 312.304688 C 522.410156 312.304688 521.890625 312.277344 521.371094 312.226562 C 520.851562 312.175781 520.335938 312.097656 519.824219 311.996094 C 519.3125 311.894531 518.804688 311.769531 518.304688 311.617188 C 517.808594 311.464844 517.316406 311.289062 516.832031 311.089844 C 516.351562 310.890625 515.878906 310.667969 515.417969 310.421875 C 514.957031 310.175781 514.511719 309.90625 514.078125 309.617188 C 513.644531 309.328125 513.222656 309.015625 512.820312 308.683594 C 512.417969 308.355469 512.03125 308.003906 511.660156 307.636719 C 511.292969 307.265625 510.941406 306.878906 510.613281 306.476562 C 510.28125 306.070312 509.96875 305.652344 509.679688 305.21875 C 509.390625 304.785156 509.121094 304.335938 508.875 303.878906 C 508.628906 303.417969 508.40625 302.945312 508.207031 302.464844 C 508.007812 301.980469 507.832031 301.488281 507.679688 300.992188 C 507.527344 300.492188 507.402344 299.984375 507.300781 299.472656 C 507.199219 298.960938 507.121094 298.445312 507.070312 297.925781 C 507.019531 297.40625 506.992188 296.886719 506.992188 296.363281 L 506.992188 186.828125 C 506.992188 186.304688 507.019531 185.785156 507.070312 185.265625 C 507.121094 184.746094 507.199219 184.230469 507.300781 183.71875 C 507.402344 183.207031 507.527344 182.699219 507.679688 182.199219 C 507.832031 181.699219 508.007812 181.210938 508.207031 180.726562 C 508.40625 180.246094 508.628906 179.773438 508.875 179.3125 C 509.121094 178.851562 509.390625 178.40625 509.679688 177.972656 C 509.96875 177.535156 510.28125 177.117188 510.613281 176.714844 C 510.941406 176.3125 511.292969 175.925781 511.660156 175.554688 C 512.03125 175.1875 512.417969 174.835938 512.820312 174.503906 C 513.222656 174.171875 513.644531 173.863281 514.078125 173.574219 C 514.511719 173.28125 514.957031 173.015625 515.417969 172.769531 C 515.878906 172.523438 516.351562 172.300781 516.832031 172.101562 C 517.316406 171.898438 517.808594 171.722656 518.304688 171.574219 C 518.804688 171.421875 519.3125 171.292969 519.824219 171.191406 C 520.335938 171.089844 520.851562 171.015625 521.371094 170.964844 C 521.890625 170.914062 522.410156 170.886719 522.933594 170.886719 C 523.457031 170.886719 523.976562 170.914062 524.496094 170.964844 C 525.015625 171.015625 525.53125 171.089844 526.042969 171.191406 C 526.554688 171.292969 527.0625 171.421875 527.5625 171.574219 C 528.0625 171.722656 528.550781 171.898438 529.035156 172.101562 C 529.515625 172.300781 529.988281 172.523438 530.449219 172.769531 C 530.910156 173.015625 531.355469 173.28125 531.789062 173.574219 C 532.222656 173.863281 532.644531 174.171875 533.046875 174.503906 C 533.449219 174.835938 533.835938 175.1875 534.207031 175.554688 C 534.574219 175.925781 534.925781 176.3125 535.257812 176.714844 C 535.585938 177.117188 535.898438 177.535156 536.1875 177.972656 C 536.476562 178.40625 536.746094 178.851562 536.992188 179.3125 C 537.238281 179.773438 537.460938 180.246094 537.660156 180.726562 C 537.859375 181.210938 538.035156 181.699219 538.1875 182.199219 C 538.339844 182.699219 538.464844 183.207031 538.570312 183.71875 C 538.671875 184.230469 538.746094 184.746094 538.796875 185.265625 C 538.847656 185.785156 538.875 186.304688 538.875 186.828125 Z M 538.875 186.828125 " fill-opacity="1" fill-rule="nonzero"/><path fill="#7ed957" d="M 679.730469 286.203125 C 679.738281 286.726562 679.714844 287.25 679.671875 287.769531 C 679.625 288.289062 679.554688 288.804688 679.457031 289.316406 C 679.359375 289.832031 679.238281 290.339844 679.09375 290.839844 C 678.945312 291.339844 678.777344 291.832031 678.582031 292.316406 C 678.386719 292.800781 678.167969 293.277344 677.925781 293.738281 C 677.683594 294.203125 677.421875 294.652344 677.136719 295.089844 C 676.851562 295.527344 676.542969 295.949219 676.21875 296.355469 C 675.890625 296.761719 675.542969 297.152344 675.179688 297.523438 C 674.8125 297.898438 674.429688 298.253906 674.03125 298.585938 C 673.628906 298.921875 673.214844 299.238281 672.78125 299.53125 C 672.351562 299.828125 671.90625 300.097656 671.449219 300.351562 C 670.992188 300.601562 670.523438 300.828125 670.042969 301.035156 C 669.5625 301.238281 669.074219 301.417969 668.574219 301.574219 C 668.078125 301.734375 667.574219 301.863281 667.0625 301.972656 C 666.550781 302.078125 666.035156 302.160156 665.515625 302.21875 C 664.996094 302.273438 664.476562 302.304688 663.953125 302.308594 C 663.433594 302.316406 662.910156 302.296875 662.390625 302.25 C 661.871094 302.203125 661.355469 302.132812 660.839844 302.035156 C 660.328125 301.9375 659.820312 301.816406 659.320312 301.671875 C 658.820312 301.523438 658.328125 301.355469 657.839844 301.160156 C 657.355469 300.964844 656.882812 300.746094 656.421875 300.503906 C 655.957031 300.261719 655.507812 300 655.070312 299.714844 C 654.632812 299.429688 654.210938 299.121094 653.804688 298.796875 C 653.398438 298.46875 653.007812 298.121094 652.632812 297.757812 C 652.261719 297.390625 651.90625 297.007812 651.570312 296.609375 C 651.238281 296.207031 650.921875 295.792969 650.628906 295.363281 C 650.332031 294.929688 650.058594 294.484375 649.808594 294.027344 C 649.558594 293.570312 649.332031 293.101562 649.125 292.621094 C 648.921875 292.140625 648.742188 291.652344 648.582031 291.152344 C 648.425781 290.65625 648.296875 290.152344 648.1875 289.640625 C 648.082031 289.128906 648 288.613281 647.941406 288.09375 C 647.886719 287.574219 647.855469 287.054688 647.851562 286.53125 L 645.828125 187.167969 C 645.804688 186.640625 645.808594 186.113281 645.839844 185.585938 C 645.871094 185.058594 645.925781 184.53125 646.011719 184.011719 C 646.09375 183.488281 646.203125 182.972656 646.335938 182.460938 C 646.46875 181.949219 646.628906 181.445312 646.8125 180.949219 C 647 180.453125 647.207031 179.96875 647.441406 179.492188 C 647.671875 179.019531 647.929688 178.558594 648.207031 178.109375 C 648.484375 177.660156 648.785156 177.222656 649.105469 176.804688 C 649.429688 176.386719 649.769531 175.984375 650.132812 175.597656 C 650.496094 175.210938 650.875 174.84375 651.273438 174.496094 C 651.671875 174.148438 652.085938 173.824219 652.519531 173.515625 C 652.949219 173.210938 653.394531 172.925781 653.851562 172.664062 C 654.3125 172.402344 654.78125 172.164062 655.265625 171.949219 C 655.75 171.734375 656.242188 171.542969 656.742188 171.375 C 657.246094 171.210938 657.753906 171.070312 658.269531 170.953125 C 658.785156 170.839844 659.308594 170.75 659.832031 170.683594 C 660.355469 170.621094 660.882812 170.582031 661.410156 170.574219 C 661.941406 170.5625 662.46875 170.574219 662.996094 170.617188 C 663.523438 170.660156 664.046875 170.726562 664.566406 170.820312 C 665.085938 170.914062 665.601562 171.03125 666.109375 171.175781 C 666.617188 171.320312 667.117188 171.488281 667.609375 171.683594 C 668.101562 171.878906 668.582031 172.097656 669.054688 172.339844 C 669.523438 172.582031 669.980469 172.84375 670.421875 173.132812 C 670.867188 173.421875 671.296875 173.730469 671.707031 174.058594 C 672.121094 174.390625 672.515625 174.738281 672.894531 175.109375 C 673.273438 175.480469 673.632812 175.867188 673.972656 176.269531 C 674.3125 176.675781 674.628906 177.097656 674.929688 177.535156 C 675.226562 177.972656 675.5 178.421875 675.753906 178.886719 C 676.007812 179.351562 676.234375 179.828125 676.441406 180.3125 C 676.648438 180.800781 676.828125 181.296875 676.984375 181.800781 C 677.140625 182.308594 677.269531 182.820312 677.375 183.335938 C 677.480469 183.855469 677.558594 184.378906 677.613281 184.902344 C 677.667969 185.429688 677.695312 185.957031 677.695312 186.484375 L 679.730469 285.902344 Z M 679.730469 286.203125 " fill-opacity="1" fill-rule="nonzero"/><path fill="#7ed957" d="M 786.410156 186.828125 L 786.410156 300.601562 C 786.410156 301.125 786.382812 301.644531 786.332031 302.164062 C 786.28125 302.683594 786.207031 303.199219 786.101562 303.710938 C 786 304.222656 785.875 304.730469 785.722656 305.226562 C 785.570312 305.726562 785.394531 306.21875 785.195312 306.703125 C 784.996094 307.183594 784.773438 307.65625 784.527344 308.117188 C 784.28125 308.574219 784.011719 309.023438 783.722656 309.457031 C 783.433594 309.890625 783.121094 310.308594 782.792969 310.714844 C 782.460938 311.117188 782.109375 311.503906 781.742188 311.871094 C 781.371094 312.242188 780.984375 312.59375 780.582031 312.921875 C 780.179688 313.253906 779.757812 313.566406 779.324219 313.855469 C 778.890625 314.144531 778.445312 314.414062 777.984375 314.660156 C 777.523438 314.90625 777.050781 315.128906 776.570312 315.328125 C 776.085938 315.527344 775.59375 315.703125 775.097656 315.855469 C 774.597656 316.007812 774.089844 316.132812 773.578125 316.234375 C 773.066406 316.335938 772.550781 316.414062 772.03125 316.464844 C 771.511719 316.515625 770.992188 316.542969 770.46875 316.542969 C 769.945312 316.542969 769.425781 316.515625 768.90625 316.464844 C 768.386719 316.414062 767.871094 316.335938 767.359375 316.234375 C 766.847656 316.132812 766.339844 316.007812 765.839844 315.855469 C 765.339844 315.703125 764.851562 315.527344 764.367188 315.328125 C 763.886719 315.128906 763.414062 314.90625 762.953125 314.660156 C 762.492188 314.414062 762.046875 314.144531 761.613281 313.855469 C 761.179688 313.566406 760.757812 313.253906 760.355469 312.921875 C 759.953125 312.59375 759.566406 312.242188 759.195312 311.871094 C 758.828125 311.503906 758.476562 311.117188 758.144531 310.714844 C 757.816406 310.308594 757.503906 309.890625 757.214844 309.457031 C 756.925781 309.023438 756.65625 308.574219 756.410156 308.117188 C 756.164062 307.65625 755.941406 307.183594 755.742188 306.703125 C 755.542969 306.21875 755.367188 305.726562 755.214844 305.226562 C 755.0625 304.730469 754.9375 304.222656 754.835938 303.710938 C 754.730469 303.199219 754.65625 302.683594 754.605469 302.164062 C 754.554688 301.644531 754.527344 301.125 754.527344 300.601562 L 754.527344 186.828125 C 754.527344 186.304688 754.554688 185.785156 754.605469 185.265625 C 754.65625 184.746094 754.730469 184.230469 754.835938 183.71875 C 754.9375 183.207031 755.0625 182.699219 755.214844 182.199219 C 755.367188 181.699219 755.542969 181.210938 755.742188 180.726562 C 755.941406 180.246094 756.164062 179.773438 756.410156 179.3125 C 756.65625 178.851562 756.925781 178.40625 757.214844 177.972656 C 757.503906 177.535156 757.816406 177.117188 758.144531 176.714844 C 758.476562 176.3125 758.828125 175.925781 759.195312 175.554688 C 759.566406 175.1875 759.953125 174.835938 760.355469 174.503906 C 760.757812 174.171875 761.179688 173.863281 761.613281 173.574219 C 762.046875 173.28125 762.492188 173.015625 762.953125 172.769531 C 763.414062 172.523438 763.886719 172.300781 764.367188 172.101562 C 764.851562 171.898438 765.339844 171.722656 765.839844 171.574219 C 766.339844 171.421875 766.847656 171.292969 767.359375 171.191406 C 767.871094 171.089844 768.386719 171.015625 768.90625 170.964844 C 769.425781 170.914062 769.945312 170.886719 770.46875 170.886719 C 770.992188 170.886719 771.511719 170.914062 772.03125 170.964844 C 772.550781 171.015625 773.066406 171.089844 773.578125 171.191406 C 774.089844 171.292969 774.597656 171.421875 775.097656 171.574219 C 775.59375 171.722656 776.085938 171.898438 776.570312 172.101562 C 777.050781 172.300781 777.523438 172.523438 777.984375 172.769531 C 778.445312 173.015625 778.890625 173.28125 779.324219 173.574219 C 779.757812 173.863281 780.179688 174.171875 780.582031 174.503906 C 780.984375 174.835938 781.371094 175.1875 781.742188 175.554688 C 782.109375 175.925781 782.460938 176.3125 782.792969 176.714844 C 783.121094 177.117188 783.433594 177.535156 783.722656 177.972656 C 784.011719 178.40625 784.28125 178.851562 784.527344 179.3125 C 784.773438 179.773438 784.996094 180.246094 785.195312 180.726562 C 785.394531 181.210938 785.570312 181.699219 785.722656 182.199219 C 785.875 182.699219 786 183.207031 786.101562 183.71875 C 786.203125 184.230469 786.28125 184.746094 786.332031 185.265625 C 786.382812 185.785156 786.410156 186.304688 786.410156 186.828125 Z M 786.410156 186.828125 " fill-opacity="1" fill-rule="nonzero"/><path fill="#009a22" d="M 734.238281 120.464844 L 734.238281 252.765625 C 734.238281 253.285156 734.214844 253.808594 734.164062 254.328125 C 734.113281 254.847656 734.035156 255.363281 733.933594 255.875 C 733.832031 256.386719 733.703125 256.890625 733.554688 257.390625 C 733.402344 257.890625 733.226562 258.382812 733.027344 258.863281 C 732.824219 259.347656 732.601562 259.820312 732.355469 260.277344 C 732.109375 260.738281 731.84375 261.1875 731.554688 261.621094 C 731.261719 262.054688 730.953125 262.472656 730.621094 262.878906 C 730.289062 263.28125 729.941406 263.667969 729.570312 264.035156 C 729.203125 264.40625 728.816406 264.757812 728.410156 265.085938 C 728.007812 265.417969 727.589844 265.730469 727.15625 266.019531 C 726.71875 266.308594 726.273438 266.578125 725.8125 266.824219 C 725.351562 267.070312 724.882812 267.292969 724.398438 267.492188 C 723.917969 267.691406 723.425781 267.867188 722.925781 268.019531 C 722.425781 268.171875 721.921875 268.296875 721.410156 268.398438 C 720.894531 268.5 720.378906 268.578125 719.859375 268.628906 C 719.339844 268.679688 718.820312 268.707031 718.296875 268.707031 C 717.777344 268.707031 717.253906 268.679688 716.734375 268.628906 C 716.214844 268.578125 715.699219 268.5 715.1875 268.398438 C 714.675781 268.296875 714.171875 268.171875 713.671875 268.019531 C 713.171875 267.867188 712.679688 267.691406 712.199219 267.492188 C 711.714844 267.292969 711.246094 267.070312 710.785156 266.824219 C 710.324219 266.578125 709.875 266.308594 709.441406 266.019531 C 709.007812 265.730469 708.589844 265.417969 708.1875 265.085938 C 707.78125 264.757812 707.394531 264.40625 707.027344 264.035156 C 706.65625 263.667969 706.308594 263.28125 705.976562 262.878906 C 705.644531 262.472656 705.335938 262.054688 705.042969 261.621094 C 704.753906 261.1875 704.484375 260.738281 704.238281 260.277344 C 703.992188 259.820312 703.769531 259.347656 703.570312 258.863281 C 703.371094 258.382812 703.195312 257.890625 703.042969 257.390625 C 702.890625 256.890625 702.765625 256.386719 702.664062 255.875 C 702.5625 255.363281 702.484375 254.847656 702.433594 254.328125 C 702.382812 253.808594 702.359375 253.285156 702.359375 252.765625 L 702.359375 120.464844 C 702.359375 119.945312 702.382812 119.421875 702.433594 118.902344 C 702.484375 118.382812 702.5625 117.867188 702.664062 117.355469 C 702.765625 116.84375 702.890625 116.339844 703.042969 115.839844 C 703.195312 115.339844 703.371094 114.847656 703.570312 114.367188 C 703.769531 113.882812 703.992188 113.414062 704.238281 112.953125 C 704.484375 112.492188 704.753906 112.042969 705.042969 111.609375 C 705.335938 111.175781 705.644531 110.757812 705.976562 110.355469 C 706.308594 109.949219 706.65625 109.5625 707.027344 109.195312 C 707.394531 108.824219 707.78125 108.476562 708.1875 108.144531 C 708.589844 107.8125 709.007812 107.503906 709.441406 107.210938 C 709.875 106.921875 710.324219 106.652344 710.785156 106.40625 C 711.246094 106.160156 711.714844 105.9375 712.199219 105.738281 C 712.679688 105.539062 713.171875 105.363281 713.671875 105.210938 C 714.171875 105.058594 714.675781 104.933594 715.1875 104.832031 C 715.699219 104.730469 716.214844 104.652344 716.734375 104.601562 C 717.253906 104.550781 717.777344 104.527344 718.296875 104.527344 C 718.820312 104.527344 719.339844 104.550781 719.859375 104.601562 C 720.378906 104.652344 720.894531 104.730469 721.410156 104.832031 C 721.921875 104.933594 722.425781 105.058594 722.925781 105.210938 C 723.425781 105.363281 723.917969 105.539062 724.398438 105.738281 C 724.882812 105.9375 725.351562 106.160156 725.8125 106.40625 C 726.273438 106.652344 726.71875 106.921875 727.15625 107.210938 C 727.589844 107.503906 728.007812 107.8125 728.410156 108.144531 C 728.816406 108.476562 729.203125 108.824219 729.570312 109.195312 C 729.941406 109.5625 730.289062 109.949219 730.621094 110.355469 C 730.953125 110.757812 731.261719 111.175781 731.554688 111.609375 C 731.84375 112.042969 732.109375 112.492188 732.355469 112.953125 C 732.601562 113.414062 732.828125 113.882812 733.027344 114.367188 C 733.226562 114.847656 733.402344 115.339844 733.554688 115.839844 C 733.703125 116.339844 733.832031 116.84375 733.933594 117.355469 C 734.035156 117.867188 734.113281 118.382812 734.164062 118.902344 C 734.214844 119.421875 734.238281 119.945312 734.238281 120.464844 Z M 734.238281 120.464844 " fill-opacity="1" fill-rule="nonzero"/><path fill="#009a22" d="M 938.082031 189.042969 L 938.082031 298.507812 C 938.082031 299.03125 938.054688 299.550781 938.003906 300.070312 C 937.953125 300.589844 937.875 301.105469 937.773438 301.621094 C 937.671875 302.132812 937.546875 302.636719 937.394531 303.136719 C 937.242188 303.636719 937.066406 304.128906 936.867188 304.609375 C 936.667969 305.09375 936.445312 305.5625 936.199219 306.023438 C 935.953125 306.484375 935.683594 306.929688 935.394531 307.367188 C 935.105469 307.800781 934.792969 308.21875 934.460938 308.621094 C 934.128906 309.027344 933.78125 309.410156 933.410156 309.78125 C 933.042969 310.152344 932.65625 310.5 932.253906 310.832031 C 931.847656 311.164062 931.429688 311.472656 930.996094 311.765625 C 930.5625 312.054688 930.113281 312.320312 929.652344 312.566406 C 929.195312 312.8125 928.722656 313.035156 928.238281 313.238281 C 927.757812 313.4375 927.265625 313.613281 926.765625 313.765625 C 926.265625 313.914062 925.761719 314.042969 925.25 314.144531 C 924.738281 314.246094 924.222656 314.324219 923.703125 314.375 C 923.183594 314.425781 922.660156 314.449219 922.140625 314.449219 C 921.617188 314.449219 921.097656 314.425781 920.578125 314.375 C 920.058594 314.324219 919.542969 314.246094 919.03125 314.144531 C 918.515625 314.042969 918.011719 313.914062 917.511719 313.765625 C 917.011719 313.613281 916.519531 313.4375 916.039062 313.238281 C 915.558594 313.035156 915.085938 312.8125 914.625 312.566406 C 914.164062 312.320312 913.71875 312.054688 913.28125 311.765625 C 912.847656 311.472656 912.429688 311.164062 912.027344 310.832031 C 911.625 310.5 911.238281 310.152344 910.867188 309.78125 C 910.5 309.410156 910.148438 309.027344 909.816406 308.621094 C 909.484375 308.21875 909.175781 307.800781 908.886719 307.367188 C 908.59375 306.929688 908.328125 306.484375 908.082031 306.023438 C 907.835938 305.5625 907.613281 305.09375 907.410156 304.609375 C 907.210938 304.128906 907.035156 303.636719 906.886719 303.136719 C 906.734375 302.636719 906.605469 302.132812 906.503906 301.621094 C 906.402344 301.105469 906.328125 300.589844 906.273438 300.070312 C 906.222656 299.550781 906.199219 299.03125 906.199219 298.507812 L 906.199219 188.972656 C 906.199219 188.453125 906.222656 187.929688 906.273438 187.410156 C 906.328125 186.890625 906.402344 186.375 906.503906 185.863281 C 906.605469 185.351562 906.734375 184.847656 906.886719 184.347656 C 907.035156 183.847656 907.210938 183.355469 907.410156 182.875 C 907.613281 182.390625 907.835938 181.917969 908.082031 181.460938 C 908.328125 181 908.59375 180.550781 908.886719 180.117188 C 909.175781 179.683594 909.484375 179.265625 909.816406 178.859375 C 910.148438 178.457031 910.5 178.070312 910.867188 177.703125 C 911.238281 177.332031 911.625 176.984375 912.027344 176.652344 C 912.429688 176.320312 912.847656 176.007812 913.28125 175.71875 C 913.71875 175.429688 914.164062 175.160156 914.625 174.914062 C 915.085938 174.667969 915.558594 174.445312 916.039062 174.246094 C 916.519531 174.046875 917.011719 173.871094 917.511719 173.71875 C 918.011719 173.566406 918.515625 173.441406 919.03125 173.339844 C 919.542969 173.238281 920.058594 173.160156 920.578125 173.109375 C 921.097656 173.058594 921.617188 173.03125 922.140625 173.03125 C 922.660156 173.03125 923.183594 173.058594 923.703125 173.109375 C 924.222656 173.160156 924.738281 173.238281 925.25 173.339844 C 925.761719 173.441406 926.265625 173.566406 926.765625 173.71875 C 927.265625 173.871094 927.757812 174.046875 928.238281 174.246094 C 928.722656 174.445312 929.195312 174.667969 929.652344 174.914062 C 930.113281 175.160156 930.5625 175.429688 930.996094 175.71875 C 931.429688 176.007812 931.847656 176.320312 932.253906 176.652344 C 932.65625 176.984375 933.042969 177.332031 933.410156 177.703125 C 933.78125 178.070312 934.128906 178.457031 934.460938 178.859375 C 934.792969 179.265625 935.105469 179.683594 935.394531 180.117188 C 935.683594 180.550781 935.953125 181 936.199219 181.460938 C 936.445312 181.917969 936.667969 182.390625 936.867188 182.875 C 937.066406 183.355469 937.242188 183.847656 937.394531 184.347656 C 937.546875 184.847656 937.671875 185.351562 937.773438 185.863281 C 937.875 186.375 937.953125 186.890625 938.003906 187.410156 C 938.054688 187.929688 938.082031 188.453125 938.082031 188.972656 Z M 938.082031 189.042969 " fill-opacity="1" fill-rule="nonzero"/><path fill="#7ed957" d="M 994.695312 122.886719 L 994.695312 255.183594 C 994.695312 255.707031 994.667969 256.226562 994.617188 256.746094 C 994.566406 257.265625 994.488281 257.78125 994.386719 258.292969 C 994.285156 258.804688 994.160156 259.3125 994.007812 259.8125 C 993.855469 260.3125 993.679688 260.800781 993.480469 261.285156 C 993.28125 261.765625 993.058594 262.238281 992.8125 262.699219 C 992.566406 263.160156 992.296875 263.605469 992.007812 264.039062 C 991.71875 264.476562 991.40625 264.894531 991.074219 265.296875 C 990.742188 265.699219 990.394531 266.085938 990.023438 266.457031 C 989.65625 266.824219 989.269531 267.175781 988.867188 267.507812 C 988.460938 267.839844 988.042969 268.148438 987.609375 268.4375 C 987.175781 268.730469 986.726562 268.996094 986.265625 269.242188 C 985.808594 269.488281 985.335938 269.710938 984.851562 269.910156 C 984.371094 270.113281 983.878906 270.289062 983.378906 270.4375 C 982.878906 270.589844 982.375 270.71875 981.863281 270.820312 C 981.351562 270.921875 980.835938 270.996094 980.316406 271.046875 C 979.796875 271.101562 979.273438 271.125 978.753906 271.125 C 978.230469 271.125 977.710938 271.101562 977.191406 271.046875 C 976.671875 270.996094 976.15625 270.921875 975.644531 270.820312 C 975.128906 270.71875 974.625 270.589844 974.125 270.4375 C 973.625 270.289062 973.136719 270.113281 972.652344 269.910156 C 972.171875 269.710938 971.699219 269.488281 971.238281 269.242188 C 970.777344 268.996094 970.332031 268.730469 969.894531 268.4375 C 969.460938 268.148438 969.042969 267.839844 968.640625 267.507812 C 968.238281 267.175781 967.851562 266.824219 967.480469 266.457031 C 967.113281 266.085938 966.761719 265.699219 966.429688 265.296875 C 966.097656 264.894531 965.789062 264.476562 965.5 264.039062 C 965.207031 263.605469 964.941406 263.160156 964.695312 262.699219 C 964.449219 262.238281 964.226562 261.765625 964.023438 261.285156 C 963.824219 260.800781 963.648438 260.3125 963.5 259.8125 C 963.347656 259.3125 963.21875 258.804688 963.117188 258.292969 C 963.015625 257.78125 962.941406 257.265625 962.890625 256.746094 C 962.835938 256.226562 962.8125 255.707031 962.8125 255.183594 L 962.8125 122.886719 C 962.8125 122.363281 962.835938 121.84375 962.890625 121.324219 C 962.941406 120.804688 963.015625 120.289062 963.117188 119.777344 C 963.21875 119.265625 963.347656 118.757812 963.5 118.257812 C 963.648438 117.757812 963.824219 117.269531 964.027344 116.785156 C 964.226562 116.304688 964.449219 115.832031 964.695312 115.371094 C 964.941406 114.910156 965.207031 114.464844 965.5 114.03125 C 965.789062 113.597656 966.097656 113.175781 966.429688 112.773438 C 966.761719 112.371094 967.113281 111.984375 967.480469 111.613281 C 967.851562 111.246094 968.238281 110.894531 968.640625 110.5625 C 969.042969 110.234375 969.460938 109.921875 969.898438 109.632812 C 970.332031 109.339844 970.777344 109.074219 971.238281 108.828125 C 971.699219 108.582031 972.171875 108.359375 972.652344 108.160156 C 973.136719 107.957031 973.625 107.785156 974.125 107.632812 C 974.625 107.480469 975.128906 107.351562 975.644531 107.25 C 976.15625 107.148438 976.671875 107.074219 977.191406 107.023438 C 977.710938 106.972656 978.230469 106.945312 978.753906 106.945312 C 979.273438 106.945312 979.796875 106.972656 980.316406 107.023438 C 980.835938 107.074219 981.351562 107.148438 981.863281 107.25 C 982.375 107.351562 982.878906 107.480469 983.378906 107.632812 C 983.878906 107.785156 984.371094 107.957031 984.851562 108.160156 C 985.335938 108.359375 985.808594 108.582031 986.265625 108.828125 C 986.726562 109.074219 987.175781 109.339844 987.609375 109.632812 C 988.042969 109.921875 988.460938 110.234375 988.867188 110.5625 C 989.269531 110.894531 989.65625 111.246094 990.023438 111.613281 C 990.394531 111.984375 990.742188 112.371094 991.074219 112.773438 C 991.40625 113.175781 991.71875 113.597656 992.007812 114.03125 C 992.296875 114.464844 992.566406 114.910156 992.8125 115.371094 C 993.058594 115.832031 993.28125 116.304688 993.480469 116.785156 C 993.679688 117.269531 993.855469 117.757812 994.007812 118.257812 C 994.160156 118.757812 994.285156 119.265625 994.386719 119.777344 C 994.488281 120.289062 994.566406 120.804688 994.617188 121.324219 C 994.667969 121.84375 994.695312 122.363281 994.695312 122.886719 Z M 994.695312 122.886719 " fill-opacity="1" fill-rule="nonzero"/><path fill="#7ed957" d="M 612.332031 282.855469 C 612.332031 282.855469 601.394531 273.929688 596.429688 266.449219 C 596.121094 265.96875 595.953125 265.441406 595.925781 264.871094 C 595.898438 264.296875 596.015625 263.757812 596.28125 263.25 L 608.707031 239.449219 C 608.796875 239.277344 608.902344 239.117188 609.027344 238.96875 C 609.15625 238.820312 609.296875 238.691406 609.453125 238.574219 C 609.609375 238.460938 609.773438 238.363281 609.953125 238.289062 C 610.132812 238.214844 610.316406 238.160156 610.507812 238.125 C 610.699219 238.09375 610.890625 238.082031 611.082031 238.09375 C 611.277344 238.105469 611.464844 238.136719 611.652344 238.195312 C 611.835938 238.25 612.015625 238.324219 612.183594 238.421875 C 612.351562 238.519531 612.503906 238.632812 612.644531 238.765625 C 619.203125 245.007812 626.328125 250.523438 634.015625 255.308594 Z M 612.332031 282.855469 " fill-opacity="1" fill-rule="nonzero"/><path fill="#009a22" d="M 809.542969 156.585938 C 809.542969 156.585938 819.5625 166.46875 822.257812 172.554688 C 824.445312 177.476562 827.234375 183.65625 828.695312 186.867188 C 828.75 186.96875 828.8125 187.0625 828.890625 187.148438 C 828.96875 187.234375 829.054688 187.308594 829.152344 187.371094 C 829.246094 187.433594 829.347656 187.484375 829.457031 187.523438 C 829.566406 187.558594 829.675781 187.585938 829.792969 187.59375 C 829.90625 187.601562 830.019531 187.597656 830.132812 187.578125 C 830.246094 187.558594 830.355469 187.527344 830.460938 187.480469 C 830.566406 187.433594 830.664062 187.375 830.753906 187.304688 C 830.84375 187.234375 830.921875 187.152344 830.992188 187.058594 L 847.726562 161.972656 C 848.109375 161.40625 848.339844 160.78125 848.417969 160.097656 C 848.496094 159.417969 848.410156 158.757812 848.164062 158.117188 C 845.949219 152.28125 838.949219 135.984375 829.117188 132.8125 Z M 809.542969 156.585938 " fill-opacity="1" fill-rule="nonzero"/><path fill="#009a22" d="M 851.703125 261.953125 L 852.523438 263.976562 L 879.238281 245.410156 C 879.238281 245.410156 874.015625 234.347656 872.15625 230.644531 L 871.007812 228.304688 C 870.839844 227.96875 870.59375 227.703125 870.277344 227.5 C 869.957031 227.300781 869.613281 227.195312 869.234375 227.1875 C 868.859375 227.175781 868.507812 227.265625 868.179688 227.453125 C 867.851562 227.640625 867.597656 227.894531 867.414062 228.222656 L 851.5 256.375 C 850.71875 257.742188 850.363281 259.164062 851.703125 261.953125 Z M 851.703125 261.953125 " fill-opacity="1" fill-rule="nonzero"/></svg>