<?xml version="1.0" encoding="utf-8"?>
<svg viewBox="0 0 500 500" xmlns="http://www.w3.org/2000/svg">
  <defs>
    <clipPath id="da5e42cfae">
      <path d="M 855 2938.59375 L 1982 2938.59375 L 1982 3914 L 855 3914 Z M 855 2938.59375 " clip-rule="nonzero"/>
    </clipPath>
    <clipPath id="d94fb00b99">
      <path d="M 853 3276 L 1979 3276 L 1979 4251.625 L 853 4251.625 Z M 853 3276 " clip-rule="nonzero"/>
    </clipPath>
  </defs>
  <path fill="#13132e" d="M 227.887 143.419 L 228.065 335.179 L 268.432 335.179 L 268.245 293.753 L 363.331 195.099 L 317.717 195.099 L 268.245 253.945 L 268.245 143.419 L 227.887 143.419 Z M 227.887 143.419" fill-opacity="1" fill-rule="evenodd" style=""/>
  <path fill="#13132e" d="M 295.604 287.945 L 323.592 321.445 L 371.683 321.445 L 323.592 261.449 L 295.604 287.945 Z M 124.573 321.445 L 172.673 321.445 L 200.651 287.945 L 172.673 261.442 L 124.573 321.445 Z M 124.573 321.445" fill-opacity="1" fill-rule="evenodd" style=""/>
  <path fill="#13132e" d="M 226.908 143.419 L 226.908 253.945 L 177.427 195.099 L 131.812 195.099 L 226.9 293.753 L 227.644 335.179 L 267.993 335.179 L 267.258 143.419 L 226.908 143.419 Z M 226.908 143.419" fill-opacity="1" fill-rule="evenodd" style=""/>
  <g clip-path="url(#da5e42cfae)" transform="matrix(0.4100559949874878, 0, 0, 0.36215201020240784, -333.40100097656244, -1052.7381591796875)" style="">
    <path fill="#3acf6e" d="M 1418.6875 2938.59375 L 855.765625 3263.722656 L 984.308594 3337.976562 L 1418.183594 3087.402344 L 1852.035156 3337.976562 L 1852.035156 3839.117188 L 1981.628906 3913.957031 L 1981.628906 3263.746094 Z M 1418.6875 2938.59375 " fill-opacity="1" fill-rule="evenodd"/>
  </g>
  <g clip-path="url(#d94fb00b99)" transform="matrix(0.4100559949874878, 0, 0, 0.36215201020240784, -333.40100097656244, -1052.7381591796875)" style="">
    <path fill="#2e80dd" d="M 853.007812 3926.496094 L 1415.953125 4251.625 L 1978.894531 3926.496094 L 1849.300781 3851.65625 L 1415.449219 4102.226562 L 981.574219 3851.65625 L 981.574219 3350.515625 L 853.007812 3276.238281 Z M 853.007812 3926.496094 " fill-opacity="1" fill-rule="evenodd"/>
  </g>
</svg>