<svg xmlns="http://www.w3.org/2000/svg" xmlns:xlink="http://www.w3.org/1999/xlink" width="1920" zoomAndPan="magnify" viewBox="0 0 1440 809.999993" height="1080" preserveAspectRatio="xMidYMid meet" version="1.0"><defs><g/><clipPath id="bb43f0f7d7"><path d="M 609 105 L 1006.554688 105 L 1006.554688 307 L 609 307 Z M 609 105 " clip-rule="nonzero"/></clipPath></defs><g fill="#009a22" fill-opacity="1"><g transform="translate(238.384139, 503.827763)"><g><path d="M 9.75 0 L 9.75 -142.453125 L 45.25 -142.453125 L 45.25 -87.25 L 106.296875 -87.25 L 106.296875 -142.453125 L 141.8125 -142.453125 L 141.8125 0 L 106.296875 0 L 106.296875 -59.53125 L 45.25 -59.53125 L 45.25 0 Z M 9.75 0 "/></g></g></g><g fill="#009a22" fill-opacity="1"><g transform="translate(389.935666, 503.827763)"><g><path d="M 9.75 0 L 9.75 -142.453125 L 110.625 -142.453125 L 110.625 -114.53125 L 45.25 -114.53125 L 45.25 -82.484375 L 95.90625 -82.484375 L 95.90625 -60.84375 L 45.25 -60.84375 L 45.25 -27.921875 L 112.578125 -27.921875 L 112.578125 0 Z M 9.75 0 "/></g></g></g><g fill="#009a22" fill-opacity="1"><g transform="translate(507.496336, 503.827763)"><g><path d="M 9.75 0 L 9.75 -142.453125 L 76.203125 -142.453125 C 95.109375 -142.453125 109.503906 -138.734375 119.390625 -131.296875 C 129.285156 -123.867188 134.234375 -113.441406 134.234375 -100.015625 C 134.234375 -90.929688 132.390625 -83.570312 128.703125 -77.9375 C 125.023438 -72.3125 119.796875 -68.488281 113.015625 -66.46875 L 113.015625 -66.03125 C 120.085938 -64.445312 125.242188 -60.984375 128.484375 -55.640625 C 131.734375 -50.296875 133.359375 -43.582031 133.359375 -35.5 L 133.359375 0 L 97.859375 0 L 97.859375 -34.421875 C 97.859375 -40.921875 96.519531 -45.648438 93.84375 -48.609375 C 91.175781 -51.566406 86.453125 -53.046875 79.671875 -53.046875 L 45.25 -53.046875 L 45.25 0 Z M 45.25 -74.46875 L 77.71875 -74.46875 C 92.726562 -74.46875 100.234375 -81.109375 100.234375 -94.390625 C 100.234375 -100.742188 98.25 -105.6875 94.28125 -109.21875 C 90.3125 -112.757812 84.210938 -114.53125 75.984375 -114.53125 L 45.25 -114.53125 Z M 45.25 -74.46875 "/></g></g></g><g fill="#009a22" fill-opacity="1"><g transform="translate(650.387784, 503.827763)"><g><path d="M 9.75 0 L 9.75 -142.453125 L 72.53125 -142.453125 C 89.269531 -142.453125 102.363281 -139.164062 111.8125 -132.59375 C 121.269531 -126.03125 126 -116.90625 126 -105.21875 C 126 -97.28125 124.191406 -90.640625 120.578125 -85.296875 C 116.972656 -79.960938 112 -76.425781 105.65625 -74.6875 L 105.65625 -74.46875 C 113.300781 -72.738281 119.503906 -69.054688 124.265625 -63.421875 C 129.035156 -57.796875 131.421875 -50.507812 131.421875 -41.5625 C 131.421875 -28.425781 126.875 -18.210938 117.78125 -10.921875 C 108.6875 -3.640625 95.117188 0 77.078125 0 Z M 45.25 -83.359375 L 74.90625 -83.359375 C 81.257812 -83.359375 86.164062 -84.726562 89.625 -87.46875 C 93.09375 -90.207031 94.828125 -94.25 94.828125 -99.59375 C 94.828125 -104.925781 92.984375 -109.109375 89.296875 -112.140625 C 85.617188 -115.171875 79.957031 -116.6875 72.3125 -116.6875 L 45.25 -116.6875 Z M 45.25 -25.765625 L 77.078125 -25.765625 C 83.566406 -25.765625 88.613281 -27.492188 92.21875 -30.953125 C 95.832031 -34.421875 97.640625 -39.1875 97.640625 -45.25 C 97.640625 -50.300781 95.765625 -54.34375 92.015625 -57.375 C 88.265625 -60.40625 82.992188 -61.921875 76.203125 -61.921875 L 45.25 -61.921875 Z M 45.25 -25.765625 "/></g></g></g><g fill="#7ed957" fill-opacity="1"><g transform="translate(788.087328, 503.827763)"><g><path d="M 9.75 0 L 9.75 -142.453125 L 45.25 -142.453125 L 45.25 -27.921875 L 110.203125 -27.921875 L 110.203125 0 Z M 9.75 0 "/></g></g></g><g fill="#7ed957" fill-opacity="1"><g transform="translate(902.400485, 503.827763)"><g><path d="M 116.484375 0 L 106.734375 -29.015625 L 49.796875 -29.015625 L 40.046875 0 L 3.6875 0 L 58.671875 -142.453125 L 102.84375 -142.453125 L 157.828125 0 Z M 57.15625 -51.09375 L 99.375 -51.09375 L 78.375 -113.453125 L 77.9375 -113.453125 Z M 57.15625 -51.09375 "/></g></g></g><g fill="#7ed957" fill-opacity="1"><g transform="translate(1063.911075, 503.827763)"><g><path d="M 9.75 0 L 9.75 -142.453125 L 72.53125 -142.453125 C 89.269531 -142.453125 102.363281 -139.164062 111.8125 -132.59375 C 121.269531 -126.03125 126 -116.90625 126 -105.21875 C 126 -97.28125 124.191406 -90.640625 120.578125 -85.296875 C 116.972656 -79.960938 112 -76.425781 105.65625 -74.6875 L 105.65625 -74.46875 C 113.300781 -72.738281 119.503906 -69.054688 124.265625 -63.421875 C 129.035156 -57.796875 131.421875 -50.507812 131.421875 -41.5625 C 131.421875 -28.425781 126.875 -18.210938 117.78125 -10.921875 C 108.6875 -3.640625 95.117188 0 77.078125 0 Z M 45.25 -83.359375 L 74.90625 -83.359375 C 81.257812 -83.359375 86.164062 -84.726562 89.625 -87.46875 C 93.09375 -90.207031 94.828125 -94.25 94.828125 -99.59375 C 94.828125 -104.925781 92.984375 -109.109375 89.296875 -112.140625 C 85.617188 -115.171875 79.957031 -116.6875 72.3125 -116.6875 L 45.25 -116.6875 Z M 45.25 -25.765625 L 77.078125 -25.765625 C 83.566406 -25.765625 88.613281 -27.492188 92.21875 -30.953125 C 95.832031 -34.421875 97.640625 -39.1875 97.640625 -45.25 C 97.640625 -50.300781 95.765625 -54.34375 92.015625 -57.375 C 88.265625 -60.40625 82.992188 -61.921875 76.203125 -61.921875 L 45.25 -61.921875 Z M 45.25 -25.765625 "/></g></g></g><g fill="#7ed957" fill-opacity="1"><g transform="translate(295.078652, 697.603611)"><g><path d="M 64.46875 -9.890625 C 61.90625 -6.234375 58.332031 -3.5 53.75 -1.6875 C 49.175781 0.125 43.851562 1.03125 37.78125 1.03125 C 31.625 1.03125 26.160156 -0.410156 21.390625 -3.296875 C 16.628906 -6.179688 12.941406 -10.28125 10.328125 -15.59375 C 7.722656 -20.914062 6.390625 -27.082031 6.328125 -34.09375 L 6.328125 -40.671875 C 6.328125 -52.035156 8.976562 -60.84375 14.28125 -67.09375 C 19.582031 -73.351562 27.035156 -76.484375 36.640625 -76.484375 C 44.515625 -76.484375 50.851562 -74.46875 55.65625 -70.4375 C 60.457031 -66.414062 63.394531 -60.710938 64.46875 -53.328125 L 54.515625 -53.328125 C 52.648438 -63.304688 46.707031 -68.296875 36.6875 -68.296875 C 30.019531 -68.296875 24.96875 -65.953125 21.53125 -61.265625 C 18.09375 -56.585938 16.359375 -49.8125 16.328125 -40.9375 L 16.328125 -34.765625 C 16.328125 -26.304688 18.257812 -19.578125 22.125 -14.578125 C 26 -9.585938 31.234375 -7.09375 37.828125 -7.09375 C 41.554688 -7.09375 44.816406 -7.507812 47.609375 -8.34375 C 50.410156 -9.175781 52.726562 -10.578125 54.5625 -12.546875 L 54.5625 -29.484375 L 37.109375 -29.484375 L 37.109375 -37.5625 L 64.46875 -37.5625 Z M 64.46875 -9.890625 "/></g></g></g><g fill="#7ed957" fill-opacity="1"><g transform="translate(367.364733, 697.603611)"><g><path d="M 36.421875 -30.515625 L 18.703125 -30.515625 L 18.703125 0 L 8.703125 0 L 8.703125 -75.453125 L 33.6875 -75.453125 C 42.1875 -75.453125 48.722656 -73.515625 53.296875 -69.640625 C 57.867188 -65.773438 60.15625 -60.144531 60.15625 -52.75 C 60.15625 -48.050781 58.882812 -43.957031 56.34375 -40.46875 C 53.8125 -36.976562 50.28125 -34.367188 45.75 -32.640625 L 63.484375 -0.625 L 63.484375 0 L 52.796875 0 Z M 18.703125 -38.65625 L 34 -38.65625 C 38.9375 -38.65625 42.863281 -39.929688 45.78125 -42.484375 C 48.695312 -45.046875 50.15625 -48.46875 50.15625 -52.75 C 50.15625 -57.414062 48.765625 -60.988281 45.984375 -63.46875 C 43.203125 -65.957031 39.1875 -67.222656 33.9375 -67.265625 L 18.703125 -67.265625 Z M 18.703125 -38.65625 "/></g></g></g><g fill="#7ed957" fill-opacity="1"><g transform="translate(432.707203, 697.603611)"><g><path d="M 51.40625 -34.875 L 18.703125 -34.875 L 18.703125 -8.140625 L 56.6875 -8.140625 L 56.6875 0 L 8.75 0 L 8.75 -75.453125 L 56.171875 -75.453125 L 56.171875 -67.265625 L 18.703125 -67.265625 L 18.703125 -43.015625 L 51.40625 -43.015625 Z M 51.40625 -34.875 "/></g></g></g><g fill="#7ed957" fill-opacity="1"><g transform="translate(493.02333, 697.603611)"><g><path d="M 51.40625 -34.875 L 18.703125 -34.875 L 18.703125 -8.140625 L 56.6875 -8.140625 L 56.6875 0 L 8.75 0 L 8.75 -75.453125 L 56.171875 -75.453125 L 56.171875 -67.265625 L 18.703125 -67.265625 L 18.703125 -43.015625 L 51.40625 -43.015625 Z M 51.40625 -34.875 "/></g></g></g><g fill="#7ed957" fill-opacity="1"><g transform="translate(553.339458, 697.603611)"><g><path d="M 66.75 0 L 56.734375 0 L 18.765625 -58.140625 L 18.765625 0 L 8.75 0 L 8.75 -75.453125 L 18.765625 -75.453125 L 56.84375 -17.046875 L 56.84375 -75.453125 L 66.75 -75.453125 Z M 66.75 0 "/></g></g></g><g fill="#7ed957" fill-opacity="1"><g transform="translate(628.993707, 697.603611)"><g/></g></g><g fill="#7ed957" fill-opacity="1"><g transform="translate(655.265422, 697.603611)"><g><path d="M 19.4375 0 L 9.484375 0 L 9.484375 -75.453125 L 19.4375 -75.453125 Z M 19.4375 0 "/></g></g></g><g fill="#7ed957" fill-opacity="1"><g transform="translate(684.128035, 697.603611)"><g><path d="M 30.984375 -33.625 C 22.453125 -36.082031 16.242188 -39.097656 12.359375 -42.671875 C 8.472656 -46.242188 6.53125 -50.65625 6.53125 -55.90625 C 6.53125 -61.851562 8.90625 -66.769531 13.65625 -70.65625 C 18.40625 -74.539062 24.578125 -76.484375 32.171875 -76.484375 C 37.359375 -76.484375 41.976562 -75.476562 46.03125 -73.46875 C 50.09375 -71.46875 53.238281 -68.707031 55.46875 -65.1875 C 57.695312 -61.664062 58.8125 -57.8125 58.8125 -53.625 L 48.8125 -53.625 C 48.8125 -58.1875 47.359375 -61.769531 44.453125 -64.375 C 41.554688 -66.988281 37.460938 -68.296875 32.171875 -68.296875 C 27.273438 -68.296875 23.453125 -67.210938 20.703125 -65.046875 C 17.953125 -62.890625 16.578125 -59.894531 16.578125 -56.0625 C 16.578125 -52.988281 17.878906 -50.390625 20.484375 -48.265625 C 23.097656 -46.140625 27.539062 -44.195312 33.8125 -42.4375 C 40.082031 -40.675781 44.988281 -38.734375 48.53125 -36.609375 C 52.070312 -34.484375 54.695312 -32.003906 56.40625 -29.171875 C 58.113281 -26.335938 58.96875 -23.003906 58.96875 -19.171875 C 58.96875 -13.054688 56.582031 -8.160156 51.8125 -4.484375 C 47.050781 -0.804688 40.679688 1.03125 32.703125 1.03125 C 27.515625 1.03125 22.675781 0.0390625 18.1875 -1.9375 C 13.695312 -3.925781 10.234375 -6.644531 7.796875 -10.09375 C 5.359375 -13.550781 4.140625 -17.476562 4.140625 -21.875 L 14.140625 -21.875 C 14.140625 -17.3125 15.820312 -13.707031 19.1875 -11.0625 C 22.5625 -8.414062 27.066406 -7.09375 32.703125 -7.09375 C 37.953125 -7.09375 41.972656 -8.164062 44.765625 -10.3125 C 47.566406 -12.457031 48.96875 -15.375 48.96875 -19.0625 C 48.96875 -22.757812 47.671875 -25.617188 45.078125 -27.640625 C 42.492188 -29.660156 37.796875 -31.65625 30.984375 -33.625 Z M 30.984375 -33.625 "/></g></g></g><g fill="#7ed957" fill-opacity="1"><g transform="translate(747.086879, 697.603611)"><g/></g></g><g fill="#7ed957" fill-opacity="1"><g transform="translate(773.358594, 697.603611)"><g><path d="M 8.75 0 L 8.75 -75.453125 L 33.421875 -75.453125 C 41.609375 -75.453125 47.765625 -73.757812 51.890625 -70.375 C 56.023438 -66.988281 58.09375 -61.976562 58.09375 -55.34375 C 58.09375 -51.820312 57.085938 -48.703125 55.078125 -45.984375 C 53.078125 -43.273438 50.347656 -41.175781 46.890625 -39.6875 C 50.972656 -38.550781 54.195312 -36.382812 56.5625 -33.1875 C 58.925781 -29.988281 60.109375 -26.179688 60.109375 -21.765625 C 60.109375 -14.992188 57.914062 -9.671875 53.53125 -5.796875 C 49.144531 -1.929688 42.941406 0 34.921875 0 Z M 18.703125 -35.28125 L 18.703125 -8.140625 L 35.140625 -8.140625 C 39.765625 -8.140625 43.414062 -9.335938 46.09375 -11.734375 C 48.769531 -14.140625 50.109375 -17.445312 50.109375 -21.65625 C 50.109375 -30.738281 45.164062 -35.28125 35.28125 -35.28125 Z M 18.703125 -43.265625 L 33.734375 -43.265625 C 38.085938 -43.265625 41.566406 -44.351562 44.171875 -46.53125 C 46.785156 -48.707031 48.09375 -51.660156 48.09375 -55.390625 C 48.09375 -59.535156 46.878906 -62.550781 44.453125 -64.4375 C 42.035156 -66.320312 38.359375 -67.265625 33.421875 -67.265625 L 18.703125 -67.265625 Z M 18.703125 -43.265625 "/></g></g></g><g fill="#7ed957" fill-opacity="1"><g transform="translate(839.426487, 697.603611)"><g><path d="M 36.421875 -30.515625 L 18.703125 -30.515625 L 18.703125 0 L 8.703125 0 L 8.703125 -75.453125 L 33.6875 -75.453125 C 42.1875 -75.453125 48.722656 -73.515625 53.296875 -69.640625 C 57.867188 -65.773438 60.15625 -60.144531 60.15625 -52.75 C 60.15625 -48.050781 58.882812 -43.957031 56.34375 -40.46875 C 53.8125 -36.976562 50.28125 -34.367188 45.75 -32.640625 L 63.484375 -0.625 L 63.484375 0 L 52.796875 0 Z M 18.703125 -38.65625 L 34 -38.65625 C 38.9375 -38.65625 42.863281 -39.929688 45.78125 -42.484375 C 48.695312 -45.046875 50.15625 -48.46875 50.15625 -52.75 C 50.15625 -57.414062 48.765625 -60.988281 45.984375 -63.46875 C 43.203125 -65.957031 39.1875 -67.222656 33.9375 -67.265625 L 18.703125 -67.265625 Z M 18.703125 -38.65625 "/></g></g></g><g fill="#7ed957" fill-opacity="1"><g transform="translate(904.76893, 697.603611)"><g><path d="M 19.4375 0 L 9.484375 0 L 9.484375 -75.453125 L 19.4375 -75.453125 Z M 19.4375 0 "/></g></g></g><g fill="#7ed957" fill-opacity="1"><g transform="translate(933.631515, 697.603611)"><g><path d="M 64.46875 -9.890625 C 61.90625 -6.234375 58.332031 -3.5 53.75 -1.6875 C 49.175781 0.125 43.851562 1.03125 37.78125 1.03125 C 31.625 1.03125 26.160156 -0.410156 21.390625 -3.296875 C 16.628906 -6.179688 12.941406 -10.28125 10.328125 -15.59375 C 7.722656 -20.914062 6.390625 -27.082031 6.328125 -34.09375 L 6.328125 -40.671875 C 6.328125 -52.035156 8.976562 -60.84375 14.28125 -67.09375 C 19.582031 -73.351562 27.035156 -76.484375 36.640625 -76.484375 C 44.515625 -76.484375 50.851562 -74.46875 55.65625 -70.4375 C 60.457031 -66.414062 63.394531 -60.710938 64.46875 -53.328125 L 54.515625 -53.328125 C 52.648438 -63.304688 46.707031 -68.296875 36.6875 -68.296875 C 30.019531 -68.296875 24.96875 -65.953125 21.53125 -61.265625 C 18.09375 -56.585938 16.359375 -49.8125 16.328125 -40.9375 L 16.328125 -34.765625 C 16.328125 -26.304688 18.257812 -19.578125 22.125 -14.578125 C 26 -9.585938 31.234375 -7.09375 37.828125 -7.09375 C 41.554688 -7.09375 44.816406 -7.507812 47.609375 -8.34375 C 50.410156 -9.175781 52.726562 -10.578125 54.5625 -12.546875 L 54.5625 -29.484375 L 37.109375 -29.484375 L 37.109375 -37.5625 L 64.46875 -37.5625 Z M 64.46875 -9.890625 "/></g></g></g><g fill="#7ed957" fill-opacity="1"><g transform="translate(1005.917623, 697.603611)"><g><path d="M 66.75 0 L 56.734375 0 L 56.734375 -34.875 L 18.703125 -34.875 L 18.703125 0 L 8.75 0 L 8.75 -75.453125 L 18.703125 -75.453125 L 18.703125 -43.015625 L 56.734375 -43.015625 L 56.734375 -75.453125 L 66.75 -75.453125 Z M 66.75 0 "/></g></g></g><g fill="#7ed957" fill-opacity="1"><g transform="translate(1081.571872, 697.603611)"><g><path d="M 60.890625 -67.265625 L 36.640625 -67.265625 L 36.640625 0 L 26.734375 0 L 26.734375 -67.265625 L 2.546875 -67.265625 L 2.546875 -75.453125 L 60.890625 -75.453125 Z M 60.890625 -67.265625 "/></g></g></g><path fill="#009a22" d="M 831.269531 147.359375 C 831.273438 148.132812 831.210938 148.898438 831.089844 149.664062 C 830.96875 150.425781 830.785156 151.175781 830.546875 151.910156 C 830.304688 152.644531 830.007812 153.355469 829.65625 154.042969 C 829.304688 154.730469 828.898438 155.386719 828.441406 156.007812 C 827.984375 156.632812 827.480469 157.214844 826.929688 157.761719 C 826.382812 158.304688 825.792969 158.800781 825.164062 159.25 C 824.535156 159.699219 823.875 160.097656 823.183594 160.441406 C 822.492188 160.789062 821.777344 161.078125 821.042969 161.308594 C 820.304688 161.542969 819.554688 161.714844 818.789062 161.828125 C 818.023438 161.941406 817.253906 161.992188 816.480469 161.984375 C 815.710938 161.972656 814.941406 161.90625 814.179688 161.773438 C 813.417969 161.644531 812.671875 161.453125 811.941406 161.203125 C 811.207031 160.957031 810.5 160.648438 809.816406 160.289062 C 809.132812 159.925781 808.484375 159.515625 807.867188 159.050781 C 807.25 158.585938 806.671875 158.074219 806.132812 157.519531 C 805.597656 156.964844 805.109375 156.367188 804.664062 155.734375 C 798.472656 147.609375 747.679688 122.09375 698.78125 129.855469 C 661.578125 135.761719 635.511719 159.410156 621.304688 200.144531 C 604.816406 247.425781 578.675781 279.539062 543.769531 295.597656 C 494.507812 318.21875 446.347656 299.800781 444.351562 299.023438 C 443.480469 298.65625 442.652344 298.210938 441.867188 297.6875 C 441.082031 297.160156 440.355469 296.566406 439.683594 295.898438 C 439.015625 295.234375 438.414062 294.507812 437.886719 293.726562 C 437.355469 292.941406 436.90625 292.117188 436.539062 291.246094 C 436.167969 290.375 435.886719 289.480469 435.691406 288.554688 C 435.496094 287.628906 435.390625 286.695312 435.378906 285.75 C 435.363281 284.804688 435.441406 283.867188 435.609375 282.9375 C 435.777344 282.007812 436.03125 281.101562 436.375 280.222656 C 436.71875 279.34375 437.144531 278.503906 437.648438 277.707031 C 438.15625 276.90625 438.734375 276.164062 439.382812 275.480469 C 440.03125 274.792969 440.742188 274.175781 441.511719 273.628906 C 442.28125 273.078125 443.097656 272.609375 443.957031 272.21875 C 444.816406 271.828125 445.707031 271.527344 446.628906 271.308594 C 447.546875 271.089844 448.480469 270.964844 449.421875 270.925781 C 450.367188 270.890625 451.304688 270.941406 452.238281 271.089844 C 453.171875 271.234375 454.085938 271.464844 454.972656 271.789062 C 455.5 271.988281 494.144531 286.382812 531.84375 268.890625 C 559.191406 256.214844 579.953125 229.847656 593.671875 190.515625 C 616.617188 124.753906 662.542969 105.253906 697.050781 100.554688 C 722.375 97.066406 751.527344 100.339844 779.136719 109.769531 C 797.59375 116.039062 820.289062 127.058594 828.613281 138.996094 C 829.476562 140.21875 830.132812 141.546875 830.585938 142.972656 C 831.039062 144.398438 831.269531 145.863281 831.269531 147.359375 Z M 831.269531 147.359375 " fill-opacity="1" fill-rule="nonzero"/><path fill="#009a22" d="M 1003.859375 291.574219 C 1003.859375 292.457031 1003.777344 293.335938 1003.617188 294.207031 C 1003.457031 295.074219 1003.21875 295.921875 1002.902344 296.75 C 1002.589844 297.578125 1002.203125 298.367188 1001.742188 299.125 C 1001.285156 299.882812 1000.761719 300.589844 1000.175781 301.253906 C 999.589844 301.914062 998.949219 302.519531 998.25 303.0625 C 997.554688 303.609375 996.816406 304.085938 996.03125 304.5 C 995.25 304.910156 994.4375 305.246094 993.589844 305.511719 C 992.746094 305.773438 991.886719 305.960938 991.007812 306.066406 C 941.070312 312.175781 901.988281 307.121094 874.992188 291.023438 C 852.710938 277.769531 842.140625 253.632812 841.539062 251.816406 L 855.09375 233.347656 C 855.09375 233.347656 862.492188 227.578125 862.390625 227.328125 C 862.542969 227.703125 877.648438 259.414062 892.484375 267.351562 C 907.316406 275.285156 935.714844 283.386719 987.449219 277.054688 C 987.960938 276.992188 988.472656 276.960938 988.992188 276.953125 C 989.507812 276.945312 990.019531 276.964844 990.535156 277.011719 C 991.050781 277.058594 991.558594 277.132812 992.066406 277.234375 C 992.570312 277.335938 993.070312 277.464844 993.5625 277.617188 C 994.054688 277.773438 994.539062 277.953125 995.011719 278.15625 C 995.484375 278.363281 995.949219 278.589844 996.398438 278.84375 C 996.847656 279.097656 997.28125 279.375 997.703125 279.675781 C 998.121094 279.972656 998.523438 280.296875 998.910156 280.636719 C 999.296875 280.980469 999.664062 281.339844 1000.011719 281.722656 C 1000.359375 282.105469 1000.6875 282.503906 1000.992188 282.917969 C 1001.300781 283.332031 1001.582031 283.765625 1001.84375 284.210938 C 1002.105469 284.65625 1002.339844 285.113281 1002.550781 285.582031 C 1002.765625 286.054688 1002.953125 286.535156 1003.113281 287.023438 C 1003.273438 287.515625 1003.410156 288.011719 1003.519531 288.515625 C 1003.625 289.019531 1003.707031 289.53125 1003.765625 290.042969 C 1003.820312 290.554688 1003.847656 291.070312 1003.847656 291.585938 Z M 1003.859375 291.574219 " fill-opacity="1" fill-rule="nonzero"/><g clip-path="url(#bb43f0f7d7)"><path fill="#7ed957" d="M 1006.570312 128.023438 C 1006.570312 128.625 1006.53125 129.222656 1006.460938 129.816406 C 1006.386719 130.410156 1006.277344 130.996094 1006.132812 131.578125 C 1005.984375 132.160156 1005.804688 132.730469 1005.589844 133.289062 C 1005.375 133.847656 1005.125 134.390625 1004.84375 134.917969 C 1004.558594 135.449219 1004.246094 135.957031 1003.902344 136.445312 C 1003.554688 136.9375 1003.183594 137.402344 1002.78125 137.847656 C 1002.378906 138.289062 1001.949219 138.707031 1001.496094 139.097656 C 1001.042969 139.488281 1000.566406 139.851562 1000.066406 140.183594 C 999.570312 140.515625 999.050781 140.816406 998.515625 141.085938 C 997.980469 141.355469 997.433594 141.589844 996.867188 141.789062 C 996.304688 141.992188 995.730469 142.15625 995.144531 142.289062 C 994.558594 142.417969 993.96875 142.511719 993.371094 142.570312 C 992.777344 142.628906 992.179688 142.648438 991.582031 142.632812 C 990.980469 142.617188 990.386719 142.566406 989.792969 142.476562 C 989.199219 142.386719 988.617188 142.265625 988.039062 142.101562 C 987.460938 141.941406 986.898438 141.746094 986.34375 141.515625 C 985.640625 141.226562 947.476562 126.070312 909.433594 142.65625 C 881.851562 154.695312 860.449219 180.585938 845.828125 219.605469 C 821.527344 284.414062 778.410156 302.304688 746.523438 306.066406 C 692.722656 312.175781 620.90625 277.695312 610.761719 257.65625 C 606.121094 248.492188 622.296875 229.308594 624.902344 232.429688 C 629.191406 237.570312 696.484375 282.308594 743.203125 276.96875 C 777.78125 273.015625 803.097656 250.246094 818.433594 209.261719 C 835.984375 162.367188 862.816406 130.859375 898.136719 115.597656 C 947.878906 94.121094 995.585938 113.617188 997.589844 114.457031 C 998.253906 114.738281 998.894531 115.0625 999.511719 115.433594 C 1000.128906 115.808594 1000.710938 116.222656 1001.265625 116.683594 C 1001.820312 117.140625 1002.339844 117.640625 1002.820312 118.175781 C 1003.300781 118.710938 1003.742188 119.277344 1004.140625 119.878906 C 1004.535156 120.480469 1004.886719 121.105469 1005.191406 121.757812 C 1005.496094 122.410156 1005.753906 123.082031 1005.957031 123.773438 C 1006.164062 124.460938 1006.316406 125.164062 1006.421875 125.875 C 1006.523438 126.589844 1006.570312 127.304688 1006.570312 128.023438 Z M 1006.570312 128.023438 " fill-opacity="1" fill-rule="nonzero"/></g><path fill="#7ed957" d="M 601.292969 150.519531 L 587.152344 180.285156 C 586.945312 180.722656 586.632812 181.070312 586.214844 181.316406 C 585.796875 181.566406 585.34375 181.679688 584.859375 181.648438 C 584.375 181.621094 583.9375 181.460938 583.550781 181.167969 C 583.164062 180.871094 582.894531 180.496094 582.738281 180.035156 L 578.5625 167.683594 C 576.988281 162.992188 574.765625 158.632812 571.890625 154.605469 C 569.019531 150.578125 565.621094 147.054688 561.699219 144.035156 C 559.046875 142.015625 556.273438 140.171875 553.386719 138.507812 C 537.085938 129.027344 506.605469 118.820312 454.097656 124.039062 C 453.140625 124.132812 452.183594 124.132812 451.230469 124.039062 C 450.273438 123.945312 449.339844 123.757812 448.421875 123.480469 C 447.5 123.199219 446.621094 122.835938 445.773438 122.382812 C 444.925781 121.929688 444.132812 121.402344 443.390625 120.792969 C 442.648438 120.183594 441.972656 119.507812 441.363281 118.765625 C 440.753906 118.023438 440.222656 117.230469 439.769531 116.386719 C 439.316406 115.539062 438.953125 114.65625 438.671875 113.738281 C 438.394531 112.820312 438.207031 111.882812 438.113281 110.929688 C 438.015625 109.972656 438.015625 109.019531 438.109375 108.0625 C 438.203125 107.109375 438.390625 106.171875 438.667969 105.253906 C 438.945312 104.332031 439.308594 103.449219 439.761719 102.605469 C 440.214844 101.757812 440.742188 100.960938 441.351562 100.21875 C 441.960938 99.476562 442.632812 98.800781 443.375 98.191406 C 444.117188 97.582031 444.910156 97.050781 445.757812 96.597656 C 446.601562 96.144531 447.484375 95.777344 448.402344 95.5 C 449.320312 95.21875 450.257812 95.03125 451.210938 94.9375 C 559.617188 84.191406 593.949219 132.164062 601.070312 144.875 C 601.5625 145.742188 601.828125 146.675781 601.867188 147.671875 C 601.910156 148.667969 601.71875 149.617188 601.292969 150.519531 Z M 601.292969 150.519531 " fill-opacity="1" fill-rule="nonzero"/><path fill="#7ed957" d="M 501.964844 107.964844 L 501.964844 241.546875 C 501.964844 242.507812 501.875 243.457031 501.6875 244.398438 C 501.5 245.339844 501.222656 246.253906 500.855469 247.140625 C 500.488281 248.027344 500.035156 248.871094 499.503906 249.667969 C 498.96875 250.464844 498.363281 251.207031 497.683594 251.882812 C 497.007812 252.5625 496.265625 253.167969 495.46875 253.703125 C 494.671875 254.234375 493.828125 254.6875 492.941406 255.054688 C 492.054688 255.421875 491.140625 255.699219 490.199219 255.886719 C 489.257812 256.070312 488.308594 256.164062 487.347656 256.164062 C 486.386719 256.164062 485.4375 256.070312 484.496094 255.886719 C 483.554688 255.699219 482.640625 255.421875 481.753906 255.054688 C 480.867188 254.6875 480.023438 254.234375 479.226562 253.703125 C 478.425781 253.167969 477.6875 252.5625 477.007812 251.882812 C 476.332031 251.207031 475.726562 250.464844 475.191406 249.667969 C 474.65625 248.871094 474.207031 248.027344 473.839844 247.140625 C 473.472656 246.253906 473.195312 245.339844 473.007812 244.398438 C 472.820312 243.457031 472.726562 242.507812 472.726562 241.546875 L 472.726562 107.964844 C 472.726562 107.003906 472.820312 106.054688 473.007812 105.113281 C 473.195312 104.171875 473.472656 103.257812 473.839844 102.367188 C 474.207031 101.480469 474.65625 100.640625 475.191406 99.839844 C 475.726562 99.042969 476.332031 98.304688 477.007812 97.625 C 477.6875 96.949219 478.425781 96.339844 479.226562 95.808594 C 480.023438 95.273438 480.867188 94.824219 481.753906 94.457031 C 482.640625 94.089844 483.554688 93.8125 484.496094 93.625 C 485.4375 93.4375 486.386719 93.34375 487.347656 93.34375 C 488.308594 93.34375 489.257812 93.4375 490.199219 93.625 C 491.140625 93.8125 492.054688 94.089844 492.941406 94.457031 C 493.828125 94.824219 494.671875 95.273438 495.46875 95.808594 C 496.265625 96.339844 497.007812 96.949219 497.683594 97.625 C 498.363281 98.304688 498.96875 99.042969 499.503906 99.839844 C 500.035156 100.640625 500.488281 101.480469 500.855469 102.367188 C 501.222656 103.257812 501.5 104.171875 501.6875 105.113281 C 501.875 106.054688 501.964844 107.003906 501.964844 107.964844 Z M 501.964844 107.964844 " fill-opacity="1" fill-rule="nonzero"/><path fill="#009a22" d="M 553.886719 181.074219 L 553.886719 281.53125 C 553.886719 282.492188 553.792969 283.441406 553.605469 284.382812 C 553.417969 285.324219 553.140625 286.238281 552.773438 287.125 C 552.40625 288.011719 551.957031 288.855469 551.421875 289.652344 C 550.890625 290.449219 550.285156 291.191406 549.605469 291.867188 C 548.925781 292.546875 548.1875 293.152344 547.390625 293.6875 C 546.59375 294.21875 545.75 294.671875 544.863281 295.039062 C 543.976562 295.40625 543.0625 295.683594 542.121094 295.871094 C 541.179688 296.058594 540.226562 296.148438 539.269531 296.148438 C 538.308594 296.148438 537.355469 296.058594 536.414062 295.871094 C 535.472656 295.683594 534.558594 295.40625 533.671875 295.039062 C 532.785156 294.671875 531.945312 294.21875 531.144531 293.6875 C 530.347656 293.152344 529.609375 292.546875 528.929688 291.867188 C 528.25 291.191406 527.644531 290.449219 527.113281 289.652344 C 526.578125 288.855469 526.128906 288.011719 525.761719 287.125 C 525.394531 286.238281 525.117188 285.324219 524.929688 284.382812 C 524.742188 283.441406 524.648438 282.492188 524.648438 281.53125 L 524.648438 181.074219 C 524.648438 180.113281 524.742188 179.164062 524.929688 178.222656 C 525.117188 177.28125 525.394531 176.367188 525.761719 175.480469 C 526.128906 174.59375 526.578125 173.75 527.113281 172.953125 C 527.644531 172.152344 528.25 171.414062 528.929688 170.738281 C 529.609375 170.058594 530.347656 169.453125 531.144531 168.917969 C 531.945312 168.386719 532.785156 167.933594 533.671875 167.566406 C 534.558594 167.199219 535.472656 166.921875 536.414062 166.734375 C 537.355469 166.546875 538.308594 166.453125 539.269531 166.453125 C 540.226562 166.453125 541.179688 166.546875 542.121094 166.734375 C 543.0625 166.921875 543.976562 167.199219 544.863281 167.566406 C 545.75 167.933594 546.59375 168.386719 547.390625 168.917969 C 548.1875 169.453125 548.925781 170.058594 549.605469 170.738281 C 550.285156 171.414062 550.890625 172.152344 551.421875 172.953125 C 551.957031 173.75 552.40625 174.59375 552.773438 175.480469 C 553.140625 176.367188 553.417969 177.28125 553.605469 178.222656 C 553.792969 179.164062 553.886719 180.113281 553.886719 181.074219 Z M 553.886719 181.074219 " fill-opacity="1" fill-rule="nonzero"/><path fill="#7ed957" d="M 683.070312 272.214844 C 683.078125 273.175781 682.996094 274.125 682.816406 275.070312 C 682.640625 276.011719 682.371094 276.929688 682.015625 277.820312 C 681.65625 278.710938 681.214844 279.558594 680.6875 280.363281 C 680.164062 281.167969 679.566406 281.910156 678.894531 282.597656 C 678.222656 283.28125 677.488281 283.894531 676.695312 284.4375 C 675.902344 284.980469 675.066406 285.4375 674.183594 285.8125 C 673.300781 286.191406 672.390625 286.476562 671.449219 286.675781 C 670.507812 286.871094 669.558594 286.976562 668.601562 286.984375 C 667.640625 286.996094 666.6875 286.910156 665.746094 286.734375 C 664.800781 286.554688 663.882812 286.289062 662.992188 285.929688 C 662.101562 285.570312 661.257812 285.128906 660.453125 284.605469 C 659.648438 284.078125 658.902344 283.480469 658.21875 282.808594 C 657.53125 282.136719 656.917969 281.40625 656.378906 280.613281 C 655.835938 279.820312 655.375 278.980469 655 278.097656 C 654.625 277.214844 654.335938 276.304688 654.140625 275.363281 C 653.941406 274.425781 653.839844 273.476562 653.828125 272.515625 L 651.972656 181.386719 C 651.933594 180.417969 651.988281 179.449219 652.144531 178.492188 C 652.296875 177.53125 652.539062 176.59375 652.878906 175.683594 C 653.21875 174.773438 653.644531 173.902344 654.15625 173.078125 C 654.667969 172.25 655.257812 171.484375 655.925781 170.773438 C 656.589844 170.066406 657.320312 169.429688 658.109375 168.867188 C 658.902344 168.304688 659.742188 167.824219 660.632812 167.429688 C 661.519531 167.03125 662.4375 166.730469 663.386719 166.515625 C 664.335938 166.304688 665.296875 166.1875 666.269531 166.167969 C 667.238281 166.144531 668.203125 166.222656 669.160156 166.394531 C 670.117188 166.5625 671.050781 166.828125 671.953125 167.1875 C 672.855469 167.542969 673.71875 167.984375 674.53125 168.515625 C 675.347656 169.042969 676.105469 169.648438 676.800781 170.328125 C 677.496094 171.007812 678.117188 171.75 678.664062 172.550781 C 679.210938 173.355469 679.671875 174.203125 680.050781 175.101562 C 680.429688 175.996094 680.714844 176.921875 680.910156 177.875 C 681.101562 178.824219 681.199219 179.789062 681.199219 180.761719 L 683.070312 271.9375 Z M 683.070312 272.214844 " fill-opacity="1" fill-rule="nonzero"/><path fill="#7ed957" d="M 780.90625 181.074219 L 780.90625 285.417969 C 780.90625 286.378906 780.8125 287.328125 780.625 288.269531 C 780.4375 289.210938 780.160156 290.125 779.792969 291.011719 C 779.425781 291.898438 778.972656 292.742188 778.441406 293.539062 C 777.90625 294.339844 777.300781 295.078125 776.625 295.753906 C 775.945312 296.433594 775.207031 297.039062 774.40625 297.574219 C 773.609375 298.105469 772.765625 298.558594 771.878906 298.925781 C 770.992188 299.292969 770.078125 299.570312 769.136719 299.757812 C 768.195312 299.945312 767.246094 300.039062 766.285156 300.039062 C 765.324219 300.039062 764.375 299.945312 763.433594 299.757812 C 762.492188 299.570312 761.578125 299.292969 760.691406 298.925781 C 759.804688 298.558594 758.960938 298.105469 758.164062 297.574219 C 757.363281 297.039062 756.625 296.433594 755.949219 295.753906 C 755.269531 295.078125 754.664062 294.339844 754.128906 293.539062 C 753.597656 292.742188 753.144531 291.898438 752.777344 291.011719 C 752.410156 290.125 752.132812 289.210938 751.945312 288.269531 C 751.757812 287.328125 751.664062 286.378906 751.664062 285.417969 L 751.664062 181.074219 C 751.664062 180.113281 751.757812 179.164062 751.945312 178.222656 C 752.132812 177.28125 752.410156 176.367188 752.777344 175.480469 C 753.144531 174.59375 753.597656 173.75 754.128906 172.953125 C 754.664062 172.152344 755.269531 171.414062 755.949219 170.738281 C 756.625 170.058594 757.363281 169.453125 758.164062 168.917969 C 758.960938 168.386719 759.804688 167.933594 760.691406 167.566406 C 761.578125 167.199219 762.492188 166.921875 763.433594 166.734375 C 764.375 166.546875 765.324219 166.453125 766.285156 166.453125 C 767.246094 166.453125 768.195312 166.546875 769.136719 166.734375 C 770.078125 166.921875 770.992188 167.199219 771.878906 167.566406 C 772.765625 167.933594 773.609375 168.386719 774.40625 168.917969 C 775.207031 169.453125 775.945312 170.058594 776.625 170.738281 C 777.300781 171.414062 777.90625 172.152344 778.441406 172.953125 C 778.972656 173.75 779.425781 174.59375 779.792969 175.480469 C 780.160156 176.367188 780.4375 177.28125 780.625 178.222656 C 780.8125 179.164062 780.90625 180.113281 780.90625 181.074219 Z M 780.90625 181.074219 " fill-opacity="1" fill-rule="nonzero"/><path fill="#009a22" d="M 733.058594 120.214844 L 733.058594 241.546875 C 733.058594 242.507812 732.964844 243.457031 732.777344 244.398438 C 732.589844 245.339844 732.3125 246.253906 731.945312 247.140625 C 731.578125 248.027344 731.128906 248.871094 730.59375 249.667969 C 730.0625 250.464844 729.457031 251.207031 728.777344 251.882812 C 728.097656 252.5625 727.359375 253.167969 726.5625 253.703125 C 725.761719 254.234375 724.921875 254.6875 724.035156 255.054688 C 723.148438 255.421875 722.234375 255.699219 721.292969 255.886719 C 720.351562 256.070312 719.398438 256.164062 718.441406 256.164062 C 717.480469 256.164062 716.527344 256.070312 715.585938 255.886719 C 714.644531 255.699219 713.730469 255.421875 712.84375 255.054688 C 711.957031 254.6875 711.117188 254.234375 710.316406 253.703125 C 709.519531 253.167969 708.78125 252.5625 708.101562 251.882812 C 707.421875 251.207031 706.816406 250.464844 706.285156 249.667969 C 705.75 248.871094 705.300781 248.027344 704.933594 247.140625 C 704.566406 246.253906 704.289062 245.339844 704.101562 244.398438 C 703.914062 243.457031 703.820312 242.507812 703.820312 241.546875 L 703.820312 120.214844 C 703.820312 119.253906 703.914062 118.304688 704.101562 117.363281 C 704.289062 116.421875 704.566406 115.507812 704.933594 114.617188 C 705.300781 113.730469 705.75 112.890625 706.285156 112.089844 C 706.816406 111.292969 707.421875 110.554688 708.101562 109.875 C 708.78125 109.199219 709.519531 108.589844 710.316406 108.058594 C 711.117188 107.523438 711.957031 107.074219 712.84375 106.707031 C 713.730469 106.339844 714.644531 106.0625 715.585938 105.875 C 716.527344 105.6875 717.480469 105.59375 718.441406 105.59375 C 719.398438 105.59375 720.351562 105.6875 721.292969 105.875 C 722.234375 106.0625 723.148438 106.339844 724.035156 106.707031 C 724.921875 107.074219 725.761719 107.523438 726.5625 108.058594 C 727.359375 108.589844 728.097656 109.199219 728.777344 109.875 C 729.457031 110.554688 730.0625 111.292969 730.59375 112.089844 C 731.128906 112.890625 731.578125 113.730469 731.945312 114.617188 C 732.3125 115.507812 732.589844 116.421875 732.777344 117.363281 C 732.964844 118.304688 733.058594 119.253906 733.058594 120.214844 Z M 733.058594 120.214844 " fill-opacity="1" fill-rule="nonzero"/><path fill="#009a22" d="M 920.003906 183.105469 L 920.003906 283.5 C 920.003906 284.460938 919.910156 285.410156 919.722656 286.351562 C 919.535156 287.292969 919.257812 288.207031 918.890625 289.09375 C 918.523438 289.980469 918.074219 290.824219 917.539062 291.621094 C 917.007812 292.417969 916.402344 293.15625 915.722656 293.835938 C 915.042969 294.515625 914.304688 295.121094 913.507812 295.65625 C 912.707031 296.1875 911.867188 296.636719 910.980469 297.007812 C 910.09375 297.375 909.179688 297.652344 908.238281 297.839844 C 907.296875 298.023438 906.34375 298.117188 905.386719 298.117188 C 904.425781 298.117188 903.472656 298.023438 902.53125 297.839844 C 901.589844 297.652344 900.675781 297.375 899.789062 297.007812 C 898.902344 296.636719 898.0625 296.1875 897.261719 295.65625 C 896.464844 295.121094 895.726562 294.515625 895.046875 293.835938 C 894.367188 293.15625 893.761719 292.417969 893.230469 291.621094 C 892.695312 290.824219 892.246094 289.980469 891.878906 289.09375 C 891.511719 288.207031 891.234375 287.292969 891.046875 286.351562 C 890.859375 285.410156 890.765625 284.460938 890.765625 283.5 L 890.765625 183.042969 C 890.765625 182.082031 890.859375 181.132812 891.046875 180.191406 C 891.234375 179.25 891.511719 178.335938 891.878906 177.449219 C 892.246094 176.5625 892.695312 175.71875 893.230469 174.921875 C 893.761719 174.121094 894.367188 173.382812 895.046875 172.707031 C 895.726562 172.027344 896.464844 171.421875 897.261719 170.886719 C 898.0625 170.355469 898.902344 169.902344 899.789062 169.535156 C 900.675781 169.167969 901.589844 168.890625 902.53125 168.703125 C 903.472656 168.515625 904.425781 168.421875 905.386719 168.421875 C 906.34375 168.421875 907.296875 168.515625 908.238281 168.703125 C 909.179688 168.890625 910.09375 169.167969 910.980469 169.535156 C 911.867188 169.902344 912.707031 170.355469 913.507812 170.886719 C 914.304688 171.421875 915.042969 172.027344 915.722656 172.707031 C 916.402344 173.382812 917.007812 174.121094 917.539062 174.921875 C 918.074219 175.71875 918.523438 176.5625 918.890625 177.449219 C 919.257812 178.335938 919.535156 179.25 919.722656 180.191406 C 919.910156 181.132812 920.003906 182.082031 920.003906 183.042969 Z M 920.003906 183.105469 " fill-opacity="1" fill-rule="nonzero"/><path fill="#7ed957" d="M 971.925781 122.433594 L 971.925781 243.765625 C 971.925781 244.726562 971.832031 245.675781 971.644531 246.617188 C 971.457031 247.558594 971.179688 248.472656 970.8125 249.359375 C 970.445312 250.246094 969.996094 251.089844 969.460938 251.886719 C 968.929688 252.6875 968.320312 253.425781 967.644531 254.101562 C 966.964844 254.78125 966.226562 255.386719 965.429688 255.921875 C 964.628906 256.453125 963.789062 256.90625 962.898438 257.273438 C 962.011719 257.640625 961.097656 257.917969 960.15625 258.105469 C 959.214844 258.292969 958.265625 258.386719 957.304688 258.386719 C 956.347656 258.386719 955.394531 258.292969 954.453125 258.105469 C 953.511719 257.917969 952.597656 257.640625 951.710938 257.273438 C 950.824219 256.90625 949.980469 256.453125 949.183594 255.921875 C 948.386719 255.386719 947.648438 254.78125 946.96875 254.101562 C 946.289062 253.425781 945.683594 252.6875 945.148438 251.886719 C 944.617188 251.089844 944.167969 250.246094 943.800781 249.359375 C 943.429688 248.472656 943.15625 247.558594 942.96875 246.617188 C 942.78125 245.675781 942.6875 244.726562 942.6875 243.765625 L 942.6875 122.433594 C 942.6875 121.472656 942.78125 120.523438 942.96875 119.582031 C 943.15625 118.640625 943.429688 117.726562 943.800781 116.839844 C 944.167969 115.953125 944.617188 115.109375 945.148438 114.3125 C 945.683594 113.511719 946.289062 112.773438 946.96875 112.09375 C 947.648438 111.417969 948.386719 110.808594 949.183594 110.277344 C 949.980469 109.742188 950.824219 109.292969 951.710938 108.925781 C 952.597656 108.558594 953.511719 108.28125 954.453125 108.09375 C 955.394531 107.90625 956.347656 107.8125 957.304688 107.8125 C 958.265625 107.8125 959.214844 107.90625 960.15625 108.09375 C 961.097656 108.28125 962.011719 108.558594 962.898438 108.925781 C 963.789062 109.292969 964.628906 109.742188 965.429688 110.277344 C 966.226562 110.808594 966.964844 111.417969 967.644531 112.09375 C 968.320312 112.773438 968.929688 113.511719 969.460938 114.3125 C 969.996094 115.109375 970.445312 115.953125 970.8125 116.839844 C 971.179688 117.726562 971.457031 118.640625 971.644531 119.582031 C 971.832031 120.523438 971.925781 121.472656 971.925781 122.433594 Z M 971.925781 122.433594 " fill-opacity="1" fill-rule="nonzero"/><path fill="#7ed957" d="M 621.253906 269.144531 C 621.253906 269.144531 611.226562 260.957031 606.671875 254.097656 C 606.386719 253.65625 606.234375 253.171875 606.210938 252.648438 C 606.183594 252.125 606.292969 251.628906 606.535156 251.164062 L 617.933594 229.335938 C 618.015625 229.175781 618.113281 229.027344 618.226562 228.894531 C 618.34375 228.757812 618.472656 228.636719 618.613281 228.53125 C 618.757812 228.425781 618.910156 228.339844 619.074219 228.269531 C 619.238281 228.199219 619.40625 228.152344 619.582031 228.121094 C 619.757812 228.089844 619.933594 228.078125 620.109375 228.089844 C 620.289062 228.101562 620.460938 228.132812 620.632812 228.183594 C 620.800781 228.234375 620.964844 228.304688 621.117188 228.390625 C 621.273438 228.480469 621.414062 228.585938 621.542969 228.707031 C 627.558594 234.433594 634.089844 239.492188 641.140625 243.878906 Z M 621.253906 269.144531 " fill-opacity="1" fill-rule="nonzero"/><path fill="#009a22" d="M 802.121094 153.339844 C 802.121094 153.339844 811.308594 162.40625 813.78125 167.984375 C 815.785156 172.5 818.34375 178.164062 819.6875 181.113281 C 819.734375 181.207031 819.792969 181.289062 819.867188 181.367188 C 819.9375 181.445312 820.015625 181.515625 820.101562 181.574219 C 820.191406 181.632812 820.285156 181.675781 820.382812 181.710938 C 820.484375 181.746094 820.585938 181.769531 820.691406 181.777344 C 820.796875 181.785156 820.898438 181.78125 821.003906 181.765625 C 821.109375 181.746094 821.207031 181.714844 821.304688 181.671875 C 821.402344 181.628906 821.488281 181.578125 821.574219 181.511719 C 821.65625 181.445312 821.726562 181.371094 821.792969 181.289062 L 837.140625 158.28125 C 837.492188 157.757812 837.703125 157.1875 837.773438 156.5625 C 837.84375 155.9375 837.765625 155.332031 837.539062 154.742188 C 835.507812 149.390625 829.089844 134.445312 820.074219 131.535156 Z M 802.121094 153.339844 " fill-opacity="1" fill-rule="nonzero"/><path fill="#009a22" d="M 840.789062 249.972656 L 841.539062 251.828125 L 866.039062 234.800781 C 866.039062 234.800781 861.25 224.65625 859.546875 221.257812 L 858.492188 219.117188 C 858.335938 218.808594 858.113281 218.558594 857.820312 218.375 C 857.527344 218.191406 857.210938 218.09375 856.867188 218.085938 C 856.519531 218.078125 856.199219 218.160156 855.898438 218.332031 C 855.597656 218.503906 855.363281 218.738281 855.195312 219.039062 L 840.601562 244.855469 C 839.886719 246.109375 839.558594 247.414062 840.789062 249.972656 Z M 840.789062 249.972656 " fill-opacity="1" fill-rule="nonzero"/></svg>