<svg xmlns="http://www.w3.org/2000/svg" xmlns:xlink="http://www.w3.org/1999/xlink" width="1700" zoomAndPan="magnify" viewBox="0 0 1275.75 623.24998" height="831" preserveAspectRatio="xMidYMid meet" version="1.0"><defs><g/><clipPath id="8aeba51681"><path d="M 67 136 L 320 136 L 320 453.9375 L 67 453.9375 Z M 67 136 " clip-rule="nonzero"/></clipPath><clipPath id="ef79d5c7e9"><path d="M 126.804688 312.640625 C 139.914062 315.558594 152.65625 320.328125 164.332031 326.875 C 178.394531 334.765625 202.8125 349.269531 197.289062 367.78125 C 185.097656 362.875 173.601562 356.070312 163.117188 347.460938 C 162.277344 346.777344 161.421875 346.484375 160.613281 346.484375 C 157.144531 346.484375 154.566406 351.882812 158.113281 354.804688 C 168.886719 363.660156 180.652344 370.621094 193.113281 375.683594 C 188.980469 380.765625 183.28125 382.902344 177.320312 382.902344 C 169.179688 382.902344 160.570312 378.925781 154.800781 373.054688 C 139.433594 357.40625 131.484375 334.429688 126.804688 312.660156 L 126.804688 312.640625 M 187.355469 155.605469 C 191.980469 155.605469 194.71875 164.609375 195.820312 169.871094 C 197.984375 180.277344 198.007812 191.371094 198.480469 201.945312 C 199.511719 224.945312 199.679688 247.992188 201.140625 270.957031 C 201.152344 271.128906 201.152344 271.296875 201.160156 271.453125 C 201.207031 272.25 201.242188 273.035156 201.296875 273.832031 C 201.609375 278.503906 205.597656 280.738281 209.683594 280.738281 C 214.25 280.738281 218.953125 277.953125 218.851562 272.675781 C 218.40625 248.878906 220.480469 224.84375 223.007812 201.203125 C 224.074219 191.199219 224.734375 180.59375 227.644531 170.917969 C 229.160156 165.875 231.3125 158.589844 235.714844 158.589844 C 236.578125 158.589844 237.53125 158.871094 238.589844 159.511719 C 242.316406 161.765625 243.707031 171.015625 244.761719 175.082031 C 250.53125 197.195312 252.339844 220.925781 253.351562 244.355469 C 253.808594 255.074219 254.101562 265.738281 254.527344 276.144531 C 254.808594 282.09375 259.871094 285.292969 264.519531 285.292969 C 268.660156 285.292969 272.457031 282.757812 272.230469 277.367188 C 271.523438 262.191406 271.265625 246.957031 271.421875 231.769531 C 271.535156 220.757812 271.816406 209.710938 272.882812 198.757812 C 273.421875 193.210938 276.855469 173.285156 283.085938 173.285156 C 284.804688 173.285156 286.746094 174.8125 288.890625 178.582031 C 294.402344 188.261719 295.175781 203.402344 296.78125 214.269531 C 299.160156 230.289062 300.441406 246.464844 300.96875 262.652344 C 301.855469 290.054688 301.417969 318.152344 296.5 345.203125 C 290.921875 375.882812 277.507812 409.246094 249.242188 425.570312 C 236.925781 432.6875 223.1875 435.738281 209.277344 435.738281 C 189.476562 435.738281 169.328125 429.554688 152.398438 420.066406 C 123.828125 404.050781 99.660156 377.378906 89.816406 345.800781 C 87.625 338.785156 85.144531 329.90625 85.371094 322.519531 C 85.707031 311.335938 91.871094 309.238281 99.480469 309.238281 C 101.929688 309.238281 104.53125 309.453125 107.136719 309.652344 C 107.449219 309.675781 107.777344 309.730469 108.089844 309.753906 C 113.5 338.085938 123.976562 369.699219 145.875 388.984375 C 154.507812 396.585938 165.386719 400.210938 175.972656 400.210938 C 190.171875 400.210938 203.878906 393.699219 211.019531 381.53125 C 221.863281 384.234375 233.078125 385.617188 244.492188 385.617188 C 248.34375 385.617188 252.226562 385.460938 256.121094 385.144531 C 261.65625 384.695312 260.085938 376.421875 254.785156 376.421875 C 254.652344 376.421875 254.507812 376.433594 254.359375 376.445312 C 250.9375 376.726562 247.535156 376.859375 244.144531 376.859375 C 234.054688 376.859375 224.140625 375.648438 214.542969 373.324219 C 215.585938 369.742188 216.171875 365.835938 216.160156 361.59375 C 216.09375 341.613281 198.050781 327.3125 182.851562 317.386719 C 164.871094 305.644531 144.5625 297.742188 123.445312 293.960938 C 121.335938 272.015625 122.289062 249.597656 123.582031 227.671875 C 124.3125 215.3125 125.3125 202.953125 126.9375 190.683594 C 127.613281 185.589844 128.160156 180.257812 129.644531 175.316406 C 131.351562 169.660156 133.964844 167.46875 136.761719 167.46875 C 141.578125 167.46875 146.929688 173.949219 149.175781 180.425781 C 155.082031 197.519531 154.148438 217.648438 154.597656 235.496094 C 154.933594 248.789062 155.070312 262.089844 154.957031 275.382812 C 154.902344 281.375 159.785156 284.585938 164.433594 284.585938 C 168.585938 284.585938 172.558594 282.027344 172.671875 276.605469 C 173.378906 243.667969 173.34375 210.21875 177.171875 177.472656 C 177.847656 171.714844 178.003906 164.699219 181.507812 159.871094 C 183.71875 156.828125 185.660156 155.617188 187.34375 155.617188 L 187.355469 155.605469 M 187.554688 136.410156 C 181.484375 136.410156 175.398438 139.371094 170.28125 144.941406 C 165.835938 149.789062 162.9375 156.054688 161.019531 163.011719 C 157.292969 157.121094 152.207031 152.40625 145.046875 149.878906 C 141.542969 148.644531 138.378906 148.082031 135.515625 148.082031 C 111.054688 148.082031 108.875 189.507812 107.226562 207.90625 C 104.769531 235.441406 103.195312 263.820312 105.441406 291.558594 C 103.421875 291.410156 101.390625 291.332031 99.355469 291.332031 C 87.15625 291.332031 75.277344 294.421875 70.171875 306.699219 C 62.941406 324.042969 70.699219 347.5625 77.679688 363.816406 C 98.707031 412.761719 156.125 453.765625 210.175781 453.765625 C 236.050781 453.765625 261.140625 444.371094 281.109375 421.953125 C 307.671875 392.128906 315.683594 350.707031 318.066406 312.023438 C 320.546875 271.746094 319.390625 229.433594 310.34375 189.964844 C 307.210938 176.261719 302.742188 153.707031 285.105469 153.707031 C 284.445312 153.707031 283.761719 153.742188 283.050781 153.808594 C 273.230469 154.730469 266.675781 161.050781 262.410156 169.042969 C 259.972656 160.128906 256.359375 152 250.722656 145.984375 C 246.523438 141.503906 241.371094 139.339844 236.195312 139.339844 C 230.945312 139.339844 225.65625 141.574219 221.324219 145.894531 C 216.945312 150.261719 214.058594 155.660156 212.039062 161.441406 C 210.410156 155.132812 207.839844 149.140625 203.472656 144.246094 C 198.714844 138.921875 193.136719 136.410156 187.546875 136.410156 L 187.554688 136.410156 " clip-rule="nonzero"/></clipPath></defs><g clip-path="url(#8aeba51681)"><g clip-path="url(#ef79d5c7e9)"><path fill="#00627d" d="M 62.941406 133.164062 L 320.554688 133.164062 L 320.554688 489.828125 L 62.941406 489.828125 Z M 62.941406 133.164062 " fill-opacity="1" fill-rule="nonzero"/></g></g><g fill="#000000" fill-opacity="1"><g transform="translate(383.217045, 333.222765)"><g><path d="M 11.117188 0 L 19.691406 0 L 19.691406 -40.179688 C 19.691406 -60.347656 32.714844 -71.941406 51.773438 -71.941406 C 69.71875 -71.941406 78.929688 -62.890625 78.929688 -47.007812 L 78.929688 0 L 87.503906 0 L 87.503906 -48.597656 C 87.503906 -68.289062 75.277344 -79.722656 54.3125 -79.722656 C 35.574219 -79.722656 23.820312 -70.988281 19.535156 -56.695312 L 19.375 -56.695312 L 19.691406 -78.453125 L 11.117188 -78.453125 Z M 11.117188 0 "/></g></g></g><g fill="#000000" fill-opacity="1"><g transform="translate(480.867601, 333.222765)"><g><path d="M 81.3125 -43.039062 C 81.3125 -66.699219 68.128906 -79.722656 46.53125 -79.722656 C 23.34375 -79.722656 8.574219 -64 8.574219 -38.589844 C 8.574219 -13.976562 23.503906 1.269531 46.851562 1.269531 C 66.699219 1.269531 80.519531 -9.210938 81.3125 -26.046875 L 73.210938 -26.046875 C 72.101562 -13.816406 61.621094 -6.195312 46.851562 -6.195312 C 28.902344 -6.195312 17.308594 -18.261719 17.152344 -38.273438 L 81.3125 -38.273438 Z M 73.210938 -44.785156 L 17.46875 -44.785156 C 19.535156 -62.414062 30.492188 -72.257812 46.851562 -72.257812 C 63.046875 -72.257812 73.210938 -62.890625 73.210938 -45.578125 Z M 73.210938 -44.785156 "/></g></g></g><g fill="#000000" fill-opacity="1"><g transform="translate(570.73786, 333.222765)"><g><path d="M 4.605469 0 L 15.40625 0 L 42.402344 -34.460938 L 70.035156 0 L 81.152344 0 L 48.914062 -40.019531 L 79.722656 -78.453125 L 69.242188 -78.453125 L 43.355469 -45.421875 L 17.152344 -78.453125 L 5.875 -78.453125 L 36.6875 -40.179688 Z M 4.605469 0 "/></g></g></g><g fill="#000000" fill-opacity="1"><g transform="translate(656.479798, 333.222765)"><g><path d="M 41.132812 0.476562 C 46.691406 0.476562 51.613281 -0.636719 53.835938 -1.429688 L 53.835938 -8.894531 C 51.929688 -8.257812 46.851562 -7.148438 41.769531 -7.148438 C 29.222656 -7.148438 24.457031 -14.929688 24.457031 -28.109375 L 24.457031 -70.832031 L 54.3125 -70.832031 L 54.3125 -78.453125 L 24.457031 -78.453125 L 24.457031 -96.238281 L 16.992188 -96.238281 L 16.675781 -83.375 C 16.515625 -79.566406 15.5625 -78.453125 13.339844 -78.453125 L 2.222656 -78.453125 L 2.222656 -70.832031 L 15.882812 -70.832031 L 15.882812 -27.632812 C 15.882812 -10.640625 23.503906 0.476562 41.132812 0.476562 Z M 41.132812 0.476562 "/></g></g></g><g fill="#000000" fill-opacity="1"><g transform="translate(717.610639, 333.222765)"><g/></g></g><g fill="#000000" fill-opacity="1"><g transform="translate(754.765485, 333.222765)"><g><path d="M 28.425781 0 L 38.589844 0 L 61.777344 -67.335938 L 62.253906 -67.335938 L 84.964844 0 L 95.605469 0 L 119.269531 -78.453125 L 110.851562 -78.453125 L 90.363281 -9.210938 L 90.046875 -9.210938 L 66.699219 -78.453125 L 58.285156 -78.453125 L 34.304688 -9.210938 L 33.984375 -9.210938 L 13.976562 -78.453125 L 4.605469 -78.453125 Z M 28.425781 0 "/></g></g></g><g fill="#000000" fill-opacity="1"><g transform="translate(878.614955, 333.222765)"><g><path d="M 37.796875 1.269531 C 57.011719 1.269531 68.925781 -7.148438 72.101562 -20.328125 L 72.257812 -20.328125 C 72.257812 -12.863281 71.941406 -4.445312 71.941406 0 L 80.519531 0 L 80.519531 -49.074219 C 80.519531 -68.605469 67.019531 -79.722656 44.945312 -79.722656 C 24.296875 -79.722656 11.117188 -70.511719 11.117188 -55.109375 C 11.117188 -53.519531 11.277344 -51.296875 11.433594 -50.34375 L 19.375 -50.34375 C 19.214844 -51.457031 19.214844 -52.882812 19.214844 -53.996094 C 19.214844 -65.75 28.902344 -72.257812 44.785156 -72.257812 C 61.9375 -72.257812 71.941406 -64.476562 71.941406 -49.707031 L 71.941406 -42.402344 L 37.003906 -42.402344 C 16.359375 -42.402344 8.734375 -33.191406 8.734375 -22.074219 C 8.734375 -7.621094 20.488281 1.269531 37.796875 1.269531 Z M 39.386719 -6.195312 C 25.886719 -6.195312 16.835938 -12.230469 16.835938 -22.074219 C 16.835938 -30.492188 22.390625 -35.890625 37.796875 -35.890625 L 71.941406 -35.890625 L 71.941406 -34.78125 C 71.941406 -16.992188 59.078125 -6.195312 39.386719 -6.195312 Z M 39.386719 -6.195312 "/></g></g></g><g fill="#000000" fill-opacity="1"><g transform="translate(969.279137, 333.222765)"><g><path d="M 12.070312 0 L 20.644531 0 L 20.644531 -110.058594 L 12.070312 -110.058594 Z M 12.070312 0 "/></g></g></g><g fill="#000000" fill-opacity="1"><g transform="translate(1001.988113, 333.222765)"><g><path d="M 12.070312 0 L 20.644531 0 L 20.644531 -110.058594 L 12.070312 -110.058594 Z M 12.070312 0 "/></g></g></g><g fill="#000000" fill-opacity="1"><g transform="translate(1034.69709, 333.222765)"><g><path d="M 81.3125 -43.039062 C 81.3125 -66.699219 68.128906 -79.722656 46.53125 -79.722656 C 23.34375 -79.722656 8.574219 -64 8.574219 -38.589844 C 8.574219 -13.976562 23.503906 1.269531 46.851562 1.269531 C 66.699219 1.269531 80.519531 -9.210938 81.3125 -26.046875 L 73.210938 -26.046875 C 72.101562 -13.816406 61.621094 -6.195312 46.851562 -6.195312 C 28.902344 -6.195312 17.308594 -18.261719 17.152344 -38.273438 L 81.3125 -38.273438 Z M 73.210938 -44.785156 L 17.46875 -44.785156 C 19.535156 -62.414062 30.492188 -72.257812 46.851562 -72.257812 C 63.046875 -72.257812 73.210938 -62.890625 73.210938 -45.578125 Z M 73.210938 -44.785156 "/></g></g></g><g fill="#000000" fill-opacity="1"><g transform="translate(1124.567314, 333.222765)"><g><path d="M 41.132812 0.476562 C 46.691406 0.476562 51.613281 -0.636719 53.835938 -1.429688 L 53.835938 -8.894531 C 51.929688 -8.257812 46.851562 -7.148438 41.769531 -7.148438 C 29.222656 -7.148438 24.457031 -14.929688 24.457031 -28.109375 L 24.457031 -70.832031 L 54.3125 -70.832031 L 54.3125 -78.453125 L 24.457031 -78.453125 L 24.457031 -96.238281 L 16.992188 -96.238281 L 16.675781 -83.375 C 16.515625 -79.566406 15.5625 -78.453125 13.339844 -78.453125 L 2.222656 -78.453125 L 2.222656 -70.832031 L 15.882812 -70.832031 L 15.882812 -27.632812 C 15.882812 -10.640625 23.503906 0.476562 41.132812 0.476562 Z M 41.132812 0.476562 "/></g></g></g></svg>