<svg xmlns="http://www.w3.org/2000/svg" xmlns:xlink="http://www.w3.org/1999/xlink" width="3779" zoomAndPan="magnify" viewBox="0 0 2835 4535.249943" height="6047" preserveAspectRatio="xMidYMid meet" version="1.0"><defs><clipPath id="380dc07c3f"><path d="M 747 1320 L 2227.871094 1320 L 2227.871094 3030 L 747 3030 Z M 747 1320 " clip-rule="nonzero"/></clipPath><clipPath id="beb934fe91"><path d="M 606.640625 1917 L 1402 1917 L 1402 2435 L 606.640625 2435 Z M 606.640625 1917 " clip-rule="nonzero"/></clipPath></defs><g clip-path="url(#380dc07c3f)"><path fill="#fab429" d="M 1525.328125 2758.808594 C 1730.664062 2445.265625 1936.003906 2131.722656 2141.339844 1818.179688 C 2191.390625 1741.757812 2231.582031 1673.527344 2227.746094 1579.460938 C 2225.820312 1532.257812 2229.792969 1485.183594 2218.914062 1438.613281 C 2189.289062 1311.824219 2059.675781 1306.414062 1955.203125 1335.136719 C 1918.617188 1345.191406 1881.359375 1352.351562 1846.957031 1370.078125 C 1812.242188 1387.960938 1781.9375 1416.171875 1755.132812 1444.1875 C 1692.925781 1509.203125 1632.53125 1576.019531 1570.878906 1641.566406 C 1445.203125 1775.171875 1318.605469 1907.90625 1192.625 2041.226562 C 1127.820312 2109.808594 1063.179688 2178.542969 998.910156 2247.625 C 967.382812 2281.511719 940.859375 2305.683594 901.554688 2330.140625 C 864.09375 2353.453125 820.878906 2374.476562 788.722656 2405.089844 C 719.378906 2471.117188 744.535156 2560.761719 811.847656 2615.539062 C 848.257812 2645.171875 885.21875 2674.144531 921.976562 2703.339844 C 1023.046875 2783.609375 1124.328125 2863.617188 1225.257812 2944.058594 C 1282.625 2989.78125 1350.566406 3059.222656 1429.441406 3016.03125 C 1475.152344 2991 1487.253906 2941.914062 1497.761719 2895.121094 C 1509.308594 2843.710938 1520.855469 2792.300781 1532.398438 2740.890625 L 1511.648438 2776.496094 L 1512.710938 2775.136719 C 1539.503906 2740.824219 1546.175781 2694.488281 1512.710938 2661.023438 C 1484.8125 2633.128906 1425.566406 2626.484375 1398.597656 2661.023438 C 1371.429688 2695.820312 1367.222656 2740.558594 1357.734375 2782.816406 C 1353.113281 2803.382812 1348.496094 2823.945312 1343.878906 2844.507812 C 1341.570312 2854.789062 1339.335938 2865.089844 1336.953125 2875.355469 C 1329.617188 2906.9375 1330.449219 2877.03125 1356.121094 2871.117188 L 1399.023438 2871.117188 C 1377.625 2868.195312 1346.617188 2835.707031 1323.285156 2817.132812 C 1287.03125 2788.277344 1250.730469 2759.476562 1214.425781 2730.679688 C 1137.429688 2669.609375 1060.371094 2608.625 983.496094 2547.40625 C 974.859375 2540.527344 911.96875 2480.347656 903.726562 2482.742188 C 899.484375 2483.976562 902.464844 2523.496094 899.289062 2522.15625 C 899.195312 2522.117188 914.109375 2512.378906 916.121094 2511.113281 C 931.675781 2501.316406 947.335938 2491.6875 962.941406 2481.976562 C 997.015625 2460.773438 1036.042969 2441.652344 1064.878906 2413.636719 C 1173.445312 2308.160156 1272.828125 2191.046875 1376.984375 2081.113281 C 1483.316406 1968.886719 1589.882812 1856.878906 1695.761719 1744.222656 C 1747.824219 1688.824219 1799.644531 1633.203125 1851.339844 1577.460938 C 1869.984375 1557.359375 1888.664062 1534.953125 1911.289062 1519.257812 C 1933.992188 1503.511719 1959.773438 1501.945312 1985.925781 1494.242188 C 2006.914062 1488.0625 2033.742188 1481.164062 2047.089844 1480.140625 C 2051.074219 1479.835938 2075.753906 1478.816406 2065.921875 1479.152344 C 2053.453125 1479.582031 2068.695312 1479.199219 2067.757812 1479.699219 C 2074.871094 1481.972656 2075.203125 1481.804688 2068.75 1479.199219 C 2063.429688 1476.675781 2062.648438 1476.402344 2066.40625 1478.375 C 2067.601562 1479.492188 2056.085938 1467.496094 2067.15625 1479.652344 C 2059.425781 1471.164062 2060.742188 1472.617188 2059.539062 1468.242188 C 2061.273438 1474.554688 2062.90625 1480.835938 2064.464844 1487.203125 C 2065.507812 1491.46875 2065.710938 1502.199219 2064.132812 1483.992188 C 2064.511719 1488.339844 2065.035156 1492.707031 2065.175781 1497.070312 C 2066.414062 1535.152344 2073.296875 1581 2067.316406 1618.140625 C 2062.660156 1647.046875 2043.167969 1673.371094 2027.710938 1697.398438 C 2006.292969 1730.6875 1984.359375 1763.652344 1962.671875 1796.769531 C 1770.441406 2090.296875 1578.210938 2383.828125 1385.980469 2677.355469 C 1328.914062 2764.492188 1468.589844 2845.441406 1525.328125 2758.808594 Z M 1525.328125 2758.808594 " fill-opacity="1" fill-rule="nonzero"/></g><g clip-path="url(#beb934fe91)"><path fill="#fab429" d="M 1320.519531 1917.605469 C 1185.5625 1922.140625 1050.601562 1926.671875 915.640625 1931.203125 C 850.667969 1933.386719 782.933594 1934.855469 727.476562 1973.449219 C 678.375 2007.621094 645.921875 2057.214844 617.109375 2108.617188 C 601.324219 2136.777344 601.753906 2184.394531 629.726562 2206.402344 C 716.757812 2274.875 803.792969 2343.347656 890.828125 2411.820312 C 925.042969 2438.742188 971.554688 2445.207031 1004.941406 2411.820312 C 1032.925781 2383.835938 1039.378906 2324.804688 1004.941406 2297.707031 C 917.90625 2229.234375 830.871094 2160.761719 743.839844 2092.289062 L 756.457031 2190.070312 C 774.699219 2157.527344 795.449219 2115.863281 824.894531 2102.722656 C 864.296875 2085.140625 922.261719 2092.363281 966.25 2090.886719 C 1084.339844 2086.917969 1202.429688 2082.953125 1320.519531 2078.988281 C 1364.089844 2077.523438 1401.210938 2042.949219 1401.210938 1998.296875 C 1401.210938 1955.710938 1364.277344 1916.136719 1320.519531 1917.605469 Z M 1320.519531 1917.605469 " fill-opacity="1" fill-rule="nonzero"/></g><path fill="#fab429" d="M 1645.320312 2329.40625 L 1717.027344 2663.609375 C 1722.78125 2690.429688 1728.558594 2717.242188 1734.289062 2744.066406 C 1739.015625 2766.183594 1747.046875 2792.082031 1742.4375 2815.109375 C 1735.953125 2847.507812 1698.054688 2878.917969 1673.207031 2902.347656 L 1787.320312 2902.347656 C 1699.785156 2834.515625 1612.25 2766.6875 1524.714844 2698.855469 C 1490.304688 2672.1875 1444.144531 2665.308594 1410.601562 2698.855469 C 1382.796875 2726.660156 1375.957031 2786.121094 1410.601562 2812.96875 C 1498.136719 2880.800781 1585.671875 2948.632812 1673.207031 3016.460938 C 1708.492188 3043.804688 1752.289062 3049.492188 1787.320312 3016.460938 C 1831.867188 2974.457031 1875.28125 2928.042969 1894.25 2868.378906 C 1915.128906 2802.695312 1897.230469 2735.300781 1883.265625 2670.21875 C 1855.824219 2542.3125 1828.378906 2414.410156 1800.9375 2286.503906 C 1791.789062 2243.878906 1741.960938 2219.074219 1701.675781 2230.148438 C 1657.59375 2242.261719 1636.148438 2286.65625 1645.320312 2329.40625 Z M 1645.320312 2329.40625 " fill-opacity="1" fill-rule="nonzero"/><path fill="#fab429" d="M 1048.765625 2689.335938 C 949.242188 2703.292969 851.566406 2731.191406 792.34375 2819.035156 C 763.980469 2861.105469 759.597656 2911.472656 752.761719 2960.195312 C 745.683594 3010.648438 738.605469 3061.097656 731.527344 3111.550781 C 727.378906 3141.117188 729.933594 3167.710938 752.28125 3190.058594 C 772.324219 3210.101562 803.324219 3218.941406 830.789062 3210.808594 C 837.355469 3208.863281 843.921875 3207.136719 850.648438 3205.816406 C 871.785156 3201.671875 838.53125 3205.738281 855.375 3205.117188 C 867.261719 3204.679688 879.09375 3203.820312 891.007812 3203.765625 C 916.769531 3203.648438 942.5625 3204.957031 968.304688 3203.382812 C 1032.136719 3199.480469 1096.445312 3179.910156 1139.75 3130.027344 C 1181.882812 3081.492188 1202.957031 3022.730469 1207.566406 2959.070312 C 1212.226562 2894.742188 1195.289062 2829.742188 1178.738281 2768.128906 C 1167.789062 2727.371094 1120.769531 2698.410156 1079.480469 2711.769531 C 1037.660156 2725.304688 1011.386719 2767.347656 1023.121094 2811.03125 C 1030 2836.632812 1036.863281 2862.269531 1041.914062 2888.308594 C 1043.226562 2895.078125 1044.285156 2901.882812 1045.453125 2908.679688 C 1047.136719 2918.464844 1044.785156 2895.261719 1045.5 2911.089844 C 1046.125 2924.851562 1047.195312 2938.394531 1046.578125 2952.195312 C 1046.328125 2957.773438 1044.992188 2964.242188 1045.164062 2969.824219 L 1046.492188 2959.117188 C 1045.886719 2962.699219 1045.191406 2966.261719 1044.40625 2969.808594 C 1042.226562 2979.644531 1038.921875 2988.929688 1035.878906 2998.503906 C 1032.929688 3007.796875 1043.753906 2983.839844 1036.496094 2996.628906 C 1033.835938 3001.308594 1031.535156 3006.164062 1028.710938 3010.757812 C 1027.328125 3013.046875 1025.871094 3015.289062 1024.34375 3017.484375 C 1020.917969 3022.40625 1022.484375 3020.53125 1029.046875 3011.847656 C 1025.304688 3014.796875 1021.824219 3020.234375 1018.402344 3023.644531 L 1014.578125 3027.300781 C 1008.027344 3032.925781 1009.371094 3032.074219 1018.613281 3024.746094 C 1018.664062 3026.421875 1008.652344 3031.257812 1007.398438 3031.980469 C 1004.957031 3033.433594 1002.457031 3034.777344 999.894531 3036.019531 C 1009.53125 3032.269531 1011.542969 3031.453125 1005.933594 3033.5625 C 1001.390625 3034.980469 996.945312 3036.691406 992.34375 3037.949219 C 990.28125 3038.515625 977.699219 3043.1875 975.597656 3041.652344 C 986.621094 3040.363281 989.019531 3040.066406 982.785156 3040.765625 C 979.902344 3041.101562 977.015625 3041.382812 974.121094 3041.597656 C 962.382812 3042.535156 950.59375 3042.757812 938.824219 3042.777344 C 888.152344 3042.863281 837.140625 3040.605469 787.882812 3055.191406 L 887.144531 3154.453125 C 893.398438 3109.867188 899.652344 3065.28125 905.910156 3020.695312 C 909.015625 2998.570312 911.945312 2976.414062 915.253906 2954.316406 C 916.757812 2944.273438 918.398438 2934.226562 920.90625 2924.378906 C 921.507812 2922.019531 926.007812 2903.570312 922.921875 2915.410156 C 920.316406 2925.394531 924.75 2911.953125 926.015625 2909.695312 C 927.785156 2906.542969 929.796875 2903.5625 931.691406 2900.488281 C 940.5625 2886.078125 923.703125 2908.207031 930.6875 2901.851562 C 934.546875 2898.34375 946.796875 2889.425781 948.246094 2884.746094 C 939.753906 2891.058594 937.925781 2892.460938 942.761719 2888.957031 C 944.234375 2887.863281 945.738281 2886.8125 947.273438 2885.804688 C 951.074219 2883.226562 954.953125 2880.765625 958.921875 2878.457031 C 962.097656 2876.613281 965.320312 2874.84375 968.585938 2873.160156 C 969.34375 2872.769531 985.480469 2865.265625 974.378906 2870.101562 C 963.015625 2875.046875 980.199219 2868.128906 982.558594 2867.320312 C 987.714844 2865.558594 992.925781 2863.96875 998.164062 2862.476562 C 1007.617188 2859.785156 1017.175781 2857.507812 1026.792969 2855.5 C 1048.246094 2851.019531 1069.972656 2847.996094 1091.664062 2844.953125 C 1110.207031 2842.351562 1130.921875 2823.195312 1139.886719 2807.871094 C 1150.007812 2790.574219 1154.296875 2765.085938 1148.023438 2745.695312 C 1141.703125 2726.171875 1129.605469 2707.332031 1110.941406 2697.472656 C 1090.402344 2686.621094 1071.535156 2686.144531 1048.761719 2689.335938 Z M 1048.765625 2689.335938 " fill-opacity="1" fill-rule="nonzero"/><path fill="#fab429" d="M 1855.597656 1748.980469 L 1855.601562 1748.984375 C 1864.863281 1754.878906 1874.863281 1758.070312 1885.601562 1758.558594 C 1896.328125 1760.960938 1907.050781 1760.480469 1917.777344 1757.117188 C 1928.277344 1754.621094 1937.425781 1749.808594 1945.21875 1742.675781 C 1954.003906 1736.984375 1960.929688 1729.4375 1966 1720.035156 L 1974.132812 1700.761719 C 1977.976562 1686.460938 1977.976562 1672.160156 1974.132812 1657.859375 L 1966 1638.582031 C 1958.828125 1626.457031 1949.175781 1616.808594 1937.050781 1609.636719 L 1937.050781 1609.632812 C 1927.789062 1603.738281 1917.785156 1600.546875 1907.046875 1600.058594 C 1896.324219 1597.65625 1885.597656 1598.136719 1874.871094 1601.5 C 1864.371094 1603.996094 1855.226562 1608.808594 1847.433594 1615.941406 C 1838.648438 1621.632812 1831.71875 1629.179688 1826.648438 1638.582031 L 1818.515625 1657.855469 C 1814.671875 1672.15625 1814.671875 1686.457031 1818.515625 1700.757812 L 1826.648438 1720.035156 C 1833.824219 1732.160156 1843.472656 1741.808594 1855.597656 1748.980469 Z M 1855.597656 1748.980469 " fill-opacity="1" fill-rule="nonzero"/></svg>