<svg xmlns="http://www.w3.org/2000/svg" xmlns:xlink="http://www.w3.org/1999/xlink" width="1700" zoomAndPan="magnify" viewBox="0 0 1275.75 623.24998" height="831" preserveAspectRatio="xMidYMid meet" version="1.0"><defs><g/></defs><path fill="#212121" d="M 535.488281 320.121094 L 535.488281 318.773438 L 494.105469 318.773438 C 475.433594 318.773438 468.699219 325.320312 468.699219 335.523438 C 468.699219 347.460938 479.667969 354.777344 496.03125 354.777344 C 519.898438 354.777344 535.488281 341.683594 535.488281 320.121094 M 458.882812 335.523438 C 458.882812 322.050781 468.121094 310.878906 493.144531 310.878906 L 535.488281 310.878906 L 535.488281 302.027344 C 535.488281 284.121094 523.363281 274.6875 502.574219 274.6875 C 483.328125 274.6875 471.585938 282.582031 471.585938 296.828125 C 471.585938 298.175781 471.585938 299.910156 471.777344 301.253906 L 462.15625 301.253906 C 461.960938 300.101562 461.769531 297.40625 461.769531 295.480469 C 461.769531 276.804688 477.746094 265.640625 502.765625 265.640625 C 529.519531 265.640625 545.882812 279.117188 545.882812 302.796875 L 545.882812 362.285156 L 535.488281 362.285156 C 535.488281 356.894531 535.871094 346.691406 535.871094 337.640625 L 535.679688 337.640625 C 531.828125 353.621094 517.394531 363.824219 494.105469 363.824219 C 473.125 363.824219 458.882812 353.042969 458.882812 335.523438 " fill-opacity="1" fill-rule="nonzero"/><path fill="#212121" d="M 653.085938 315.886719 L 653.085938 311.265625 C 653.085938 287.78125 638.265625 275.074219 615.746094 275.074219 C 593.609375 275.074219 578.980469 291.246094 578.980469 313.578125 C 578.980469 338.410156 593.417969 354.390625 615.359375 354.390625 C 639.226562 354.390625 653.085938 336.679688 653.085938 315.886719 M 568.589844 313.578125 C 568.589844 285.46875 586.683594 265.640625 614.976562 265.640625 C 635.378906 265.640625 648.660156 273.726562 652.894531 288.355469 L 653.085938 288.355469 L 653.085938 228.871094 L 663.480469 228.871094 L 663.480469 362.285156 L 653.085938 362.285156 C 653.472656 353.042969 653.664062 343.800781 653.855469 334.558594 L 653.472656 334.558594 C 649.816406 351.503906 635.761719 363.824219 614.011719 363.824219 C 586.488281 363.824219 568.589844 344.378906 568.589844 313.578125 " fill-opacity="1" fill-rule="nonzero"/><path fill="#212121" d="M 691.570312 267.179688 L 701.964844 267.179688 L 701.578125 292.976562 L 701.773438 292.976562 C 705.8125 275.652344 718.902344 265.640625 735.839844 265.640625 C 754.320312 265.640625 766.253906 275.265625 768.5625 291.4375 L 768.753906 291.4375 C 772.21875 275.457031 785.695312 265.640625 803.015625 265.640625 C 824.1875 265.640625 836.507812 279.117188 836.507812 302.601562 L 836.507812 362.285156 L 826.113281 362.285156 L 826.113281 304.527344 C 826.113281 285.660156 817.066406 275.074219 800.515625 275.074219 C 782.035156 275.074219 769.140625 288.550781 769.140625 312.421875 L 769.140625 362.285156 L 758.746094 362.285156 L 758.746094 303.375 C 758.746094 285.46875 749.699219 275.074219 733.148438 275.074219 C 714.863281 275.074219 701.964844 288.933594 701.964844 313.191406 L 701.964844 362.285156 L 691.570312 362.285156 Z M 691.570312 267.179688 " fill-opacity="1" fill-rule="nonzero"/><path fill="#212121" d="M 863.445312 267.179688 L 873.835938 267.179688 L 873.835938 362.285156 L 863.445312 362.285156 Z M 862.863281 236.375 L 874.222656 236.375 L 874.222656 254.28125 L 862.863281 254.28125 Z M 862.863281 236.375 " fill-opacity="1" fill-rule="nonzero"/><path fill="#212121" d="M 901.933594 267.179688 L 912.328125 267.179688 L 911.941406 293.554688 L 912.136719 293.554688 C 917.332031 276.230469 931.574219 265.640625 954.289062 265.640625 C 979.695312 265.640625 994.515625 279.5 994.515625 303.375 L 994.515625 362.285156 L 984.121094 362.285156 L 984.121094 305.296875 C 984.121094 286.046875 972.960938 275.074219 951.210938 275.074219 C 928.113281 275.074219 912.328125 289.128906 912.328125 313.578125 L 912.328125 362.285156 L 901.933594 362.285156 Z M 901.933594 267.179688 " fill-opacity="1" fill-rule="nonzero"/><path fill="#212121" d="M 1021.453125 228.871094 L 1031.847656 228.871094 L 1031.847656 362.285156 L 1021.453125 362.285156 Z M 1021.453125 228.871094 " fill-opacity="1" fill-rule="nonzero"/><path fill="#212121" d="M 1061.871094 399.824219 L 1061.871094 390.96875 C 1064.179688 391.738281 1068.414062 392.894531 1072.648438 392.894531 C 1084.199219 392.894531 1088.820312 386.347656 1098.828125 362.285156 L 1095.363281 362.285156 L 1052.054688 267.179688 L 1064.371094 267.179688 L 1102.484375 352.078125 L 1102.867188 352.078125 L 1136.550781 267.179688 L 1147.332031 267.179688 L 1108.835938 363.632812 C 1097.289062 393.085938 1090.550781 402.136719 1073.804688 402.136719 C 1069.183594 402.136719 1064.371094 400.980469 1061.871094 399.824219 " fill-opacity="1" fill-rule="nonzero"/><path fill="#212121" d="M 221.363281 396.429688 C 206.714844 390.53125 192.886719 382.355469 180.292969 371.996094 C 174.976562 367.628906 169.015625 376.488281 174.285156 380.820312 C 187.230469 391.464844 201.382812 399.832031 216.351562 405.917969 C 204.601562 420.363281 182.308594 414.988281 170.292969 402.75 C 151.820312 383.941406 142.269531 356.308594 136.636719 330.136719 C 152.398438 333.652344 167.707031 339.375 181.742188 347.246094 C 198.652344 356.734375 227.992188 374.164062 221.363281 396.429688 M 340.613281 369.261719 C 333.90625 406.152344 317.777344 446.257812 283.816406 465.886719 C 247.960938 486.613281 202.050781 478.695312 167.410156 459.277344 C 133.066406 440.023438 104.015625 407.949219 92.179688 369.992188 C 89.550781 361.550781 86.570312 350.882812 86.84375 342 C 87.382812 324.234375 100.136719 325.546875 113.007812 326.542969 C 113.390625 326.574219 113.773438 326.632812 114.152344 326.660156 C 120.660156 360.726562 133.242188 398.738281 159.570312 421.925781 C 183.863281 443.320312 222.882812 438.503906 237.878906 412.957031 C 255.304688 417.3125 273.539062 418.796875 292.089844 417.300781 C 298.910156 416.746094 296.753906 406.289062 289.96875 406.835938 C 273.597656 408.15625 257.523438 406.816406 242.105469 403.082031 C 243.355469 398.769531 244.058594 394.078125 244.042969 388.972656 C 243.96875 364.949219 222.28125 347.761719 204.007812 335.828125 C 182.386719 321.707031 157.980469 312.214844 132.597656 307.660156 C 130.054688 281.277344 131.203125 254.320312 132.765625 227.96875 C 133.644531 213.113281 134.84375 198.25 136.804688 183.496094 C 137.617188 177.371094 138.269531 170.964844 140.058594 165.027344 C 145.636719 146.535156 159.28125 158.832031 163.539062 171.164062 C 170.640625 191.722656 169.519531 215.917969 170.058594 237.378906 C 170.460938 253.355469 170.625 269.347656 170.488281 285.328125 C 170.371094 298.976562 191.480469 300.609375 191.777344 286.804688 C 192.632812 247.207031 192.589844 206.988281 197.1875 167.617188 C 197.996094 160.6875 198.195312 152.261719 202.398438 146.453125 C 212.285156 132.800781 217.792969 149.855469 219.589844 158.492188 C 222.191406 171 222.214844 184.328125 222.785156 197.042969 C 224.027344 224.691406 224.238281 252.398438 225.984375 280.023438 C 225.996094 280.222656 226.003906 280.421875 226.019531 280.621094 C 226.078125 281.574219 226.109375 282.527344 226.171875 283.480469 C 226.984375 295.375 247.507812 294.117188 247.28125 282.097656 C 246.734375 253.480469 249.234375 224.59375 252.265625 196.164062 C 253.546875 184.136719 254.347656 171.386719 257.839844 159.75 C 260.019531 152.488281 263.308594 141.371094 270.988281 146.035156 C 275.464844 148.753906 277.140625 159.875 278.417969 164.757812 C 285.355469 191.339844 287.53125 219.878906 288.742188 248.046875 C 289.296875 260.9375 289.648438 273.753906 290.164062 286.265625 C 290.792969 299.796875 312.019531 301.496094 311.453125 287.738281 C 310.601562 269.484375 310.296875 251.183594 310.480469 232.910156 C 310.617188 219.675781 310.957031 206.394531 312.234375 193.210938 C 313.058594 184.710938 319.5625 148.015625 331.472656 168.957031 C 338.09375 180.597656 339.027344 198.804688 340.964844 211.851562 C 343.816406 231.113281 345.359375 250.566406 345.992188 270.019531 C 347.058594 302.96875 346.53125 336.738281 340.613281 369.261719 M 357.265625 182.644531 C 353.355469 165.550781 347.730469 136.996094 324.472656 139.167969 C 312.671875 140.273438 304.789062 147.875 299.664062 157.484375 C 296.738281 146.765625 292.390625 137 285.613281 129.765625 C 275.4375 118.90625 260.613281 119.347656 250.273438 129.65625 C 245 134.902344 241.546875 141.402344 239.113281 148.351562 C 237.160156 140.761719 234.070312 133.554688 228.808594 127.683594 C 216.871094 114.359375 200.714844 115.65625 188.894531 128.519531 C 183.542969 134.34375 180.074219 141.886719 177.761719 150.242188 C 173.289062 143.15625 167.164062 137.488281 158.558594 134.453125 C 118.332031 120.265625 115.3125 179.507812 113.109375 204.203125 C 110.15625 237.308594 108.261719 271.4375 110.964844 304.785156 C 93.957031 303.578125 75.734375 305.769531 68.558594 322.992188 C 59.875 343.847656 69.199219 372.117188 77.589844 391.65625 C 114.960938 478.65625 247.96875 544.824219 322.121094 461.558594 C 354.050781 425.703125 363.679688 375.894531 366.546875 329.390625 C 369.53125 280.957031 368.132812 230.101562 357.265625 182.644531 " fill-opacity="1" fill-rule="nonzero"/><g fill="#212121" fill-opacity="1"><g transform="translate(455.717749, 447.016942)"><g><path d="M 15.992188 0 L 24.878906 0 L 37.226562 -36.851562 L 37.507812 -36.851562 L 49.476562 0 L 58.644531 0 L 72.394531 -46.203125 L 65.191406 -46.203125 L 54.15625 -7.855469 L 53.96875 -7.855469 L 41.527344 -46.203125 L 34.140625 -46.203125 L 21.230469 -7.855469 L 21.042969 -7.855469 L 10.382812 -46.203125 L 2.246094 -46.203125 Z M 15.992188 0 "/></g></g></g><g fill="#212121" fill-opacity="1"><g transform="translate(552.335294, 447.016942)"><g><path d="M 48.355469 -25.066406 C 48.355469 -38.816406 40.59375 -46.953125 27.40625 -46.953125 C 13.5625 -46.953125 4.675781 -37.507812 4.675781 -22.726562 C 4.675781 -8.417969 13.65625 0.75 27.589844 0.75 C 39.75 0.75 47.886719 -5.613281 48.355469 -15.621094 L 41.433594 -15.621094 C 40.78125 -9.539062 35.449219 -5.613281 27.683594 -5.613281 C 18.613281 -5.613281 12.625 -11.785156 12.160156 -21.605469 L 48.355469 -21.605469 Z M 41.433594 -27.03125 L 12.441406 -27.03125 C 13.84375 -35.824219 19.359375 -40.59375 27.589844 -40.59375 C 36.382812 -40.59375 41.433594 -35.730469 41.433594 -27.589844 Z M 41.433594 -27.03125 "/></g></g></g><g fill="#212121" fill-opacity="1"><g transform="translate(627.347155, 447.016942)"><g><path d="M 7.015625 0 L 14.496094 0 L 14.496094 -64.816406 L 7.015625 -64.816406 Z M 7.015625 0 "/></g></g></g><g fill="#212121" fill-opacity="1"><g transform="translate(670.839062, 447.016942)"><g><path d="M 7.015625 0 L 14.496094 0 L 14.496094 -64.816406 L 7.015625 -64.816406 Z M 7.015625 0 "/></g></g></g><g fill="#212121" fill-opacity="1"><g transform="translate(714.330968, 447.016942)"><g><path d="M 6.546875 0 L 14.03125 0 L 14.03125 -22.726562 C 14.03125 -33.765625 20.855469 -40.21875 31.425781 -40.21875 C 41.339844 -40.21875 45.832031 -35.167969 45.832031 -27.3125 L 45.832031 0 L 53.3125 0 L 53.3125 -28.902344 C 53.3125 -39.9375 46.109375 -46.953125 33.953125 -46.953125 C 22.914062 -46.953125 16.460938 -41.808594 13.9375 -33.765625 L 13.84375 -33.765625 L 14.03125 -46.203125 L 6.546875 -46.203125 Z M 6.546875 0 "/></g></g></g><g fill="#212121" fill-opacity="1"><g transform="translate(795.70295, 447.016942)"><g><path d="M 48.355469 -25.066406 C 48.355469 -38.816406 40.59375 -46.953125 27.40625 -46.953125 C 13.5625 -46.953125 4.675781 -37.507812 4.675781 -22.726562 C 4.675781 -8.417969 13.65625 0.75 27.589844 0.75 C 39.75 0.75 47.886719 -5.613281 48.355469 -15.621094 L 41.433594 -15.621094 C 40.78125 -9.539062 35.449219 -5.613281 27.683594 -5.613281 C 18.613281 -5.613281 12.625 -11.785156 12.160156 -21.605469 L 48.355469 -21.605469 Z M 41.433594 -27.03125 L 12.441406 -27.03125 C 13.84375 -35.824219 19.359375 -40.59375 27.589844 -40.59375 C 36.382812 -40.59375 41.433594 -35.730469 41.433594 -27.589844 Z M 41.433594 -27.03125 "/></g></g></g><g fill="#212121" fill-opacity="1"><g transform="translate(870.71483, 447.016942)"><g><path d="M 25.066406 0.75 C 39.097656 0.75 46.578125 -4.675781 46.578125 -13.75 C 46.578125 -17.210938 45.082031 -20.765625 41.996094 -22.539062 C 38.816406 -24.316406 35.261719 -24.972656 28.058594 -25.722656 C 21.980469 -26.375 17.398438 -26.9375 15.152344 -27.871094 C 12.441406 -28.996094 12.160156 -31.238281 12.160156 -33.109375 C 12.160156 -37.691406 17.304688 -40.59375 25.253906 -40.59375 C 33.484375 -40.59375 37.597656 -37.414062 37.691406 -30.492188 L 44.613281 -30.492188 C 44.613281 -40.871094 38.816406 -46.953125 24.972656 -46.953125 C 12.625 -46.953125 4.675781 -41.339844 4.675781 -32.640625 C 4.675781 -29.273438 5.984375 -25.90625 8.511719 -24.039062 C 11.316406 -21.980469 15.898438 -21.042969 23.476562 -20.390625 C 29.183594 -19.828125 34.046875 -19.265625 36.195312 -18.238281 C 38.535156 -17.117188 39.097656 -15.339844 39.097656 -13.46875 C 39.097656 -8.511719 34.511719 -5.613281 24.972656 -5.613281 C 15.339844 -5.613281 11.597656 -9.257812 11.597656 -15.433594 L 4.675781 -15.433594 C 4.675781 -6.546875 9.539062 0.75 25.066406 0.75 Z M 25.066406 0.75 "/></g></g></g><g fill="#212121" fill-opacity="1"><g transform="translate(943.949647, 447.016942)"><g><path d="M 25.066406 0.75 C 39.097656 0.75 46.578125 -4.675781 46.578125 -13.75 C 46.578125 -17.210938 45.082031 -20.765625 41.996094 -22.539062 C 38.816406 -24.316406 35.261719 -24.972656 28.058594 -25.722656 C 21.980469 -26.375 17.398438 -26.9375 15.152344 -27.871094 C 12.441406 -28.996094 12.160156 -31.238281 12.160156 -33.109375 C 12.160156 -37.691406 17.304688 -40.59375 25.253906 -40.59375 C 33.484375 -40.59375 37.597656 -37.414062 37.691406 -30.492188 L 44.613281 -30.492188 C 44.613281 -40.871094 38.816406 -46.953125 24.972656 -46.953125 C 12.625 -46.953125 4.675781 -41.339844 4.675781 -32.640625 C 4.675781 -29.273438 5.984375 -25.90625 8.511719 -24.039062 C 11.316406 -21.980469 15.898438 -21.042969 23.476562 -20.390625 C 29.183594 -19.828125 34.046875 -19.265625 36.195312 -18.238281 C 38.535156 -17.117188 39.097656 -15.339844 39.097656 -13.46875 C 39.097656 -8.511719 34.511719 -5.613281 24.972656 -5.613281 C 15.339844 -5.613281 11.597656 -9.257812 11.597656 -15.433594 L 4.675781 -15.433594 C 4.675781 -6.546875 9.539062 0.75 25.066406 0.75 Z M 25.066406 0.75 "/></g></g></g></svg>