<svg xmlns="http://www.w3.org/2000/svg" xmlns:xlink="http://www.w3.org/1999/xlink" width="1700" zoomAndPan="magnify" viewBox="0 0 1275.75 623.24998" height="831" preserveAspectRatio="xMidYMid meet" version="1.0"><defs><g/><clipPath id="9aebfa7883"><path d="M 68 82 L 399 82 L 399 497.800781 L 68 497.800781 Z M 68 82 " clip-rule="nonzero"/></clipPath><clipPath id="8958e6e12b"><path d="M 146.46875 312.992188 C 163.617188 316.808594 180.28125 323.046875 195.550781 331.609375 C 213.949219 341.929688 245.882812 360.898438 238.660156 385.109375 C 222.714844 378.695312 207.679688 369.796875 193.964844 358.535156 C 192.867188 357.640625 191.75 357.257812 190.691406 357.257812 C 186.15625 357.257812 182.777344 364.320312 187.417969 368.136719 C 201.511719 379.722656 216.902344 388.824219 233.199219 395.449219 C 227.792969 402.097656 220.335938 404.886719 212.539062 404.886719 C 201.894531 404.886719 190.632812 399.691406 183.085938 392.011719 C 162.988281 371.542969 152.589844 341.488281 146.46875 313.019531 L 146.46875 312.992188 M 225.664062 107.601562 C 231.714844 107.601562 235.296875 119.375 236.738281 126.261719 C 239.570312 139.871094 239.597656 154.378906 240.214844 168.207031 C 241.566406 198.292969 241.785156 228.433594 243.695312 258.476562 C 243.710938 258.695312 243.710938 258.917969 243.726562 259.121094 C 243.785156 260.164062 243.828125 261.191406 243.902344 262.234375 C 244.3125 268.34375 249.523438 271.265625 254.867188 271.265625 C 260.84375 271.265625 266.996094 267.621094 266.863281 260.722656 C 266.277344 229.59375 268.992188 198.160156 272.296875 167.238281 C 273.691406 154.15625 274.558594 140.28125 278.359375 127.625 C 280.34375 121.035156 283.160156 111.503906 288.917969 111.503906 C 290.046875 111.503906 291.296875 111.871094 292.675781 112.710938 C 297.550781 115.660156 299.371094 127.757812 300.75 133.074219 C 308.296875 161.996094 310.660156 193.035156 311.984375 223.679688 C 312.585938 237.699219 312.96875 251.648438 313.523438 265.257812 C 313.890625 273.039062 320.515625 277.226562 326.59375 277.226562 C 332.011719 277.226562 336.972656 273.90625 336.679688 266.859375 C 335.753906 247.007812 335.417969 227.085938 335.621094 207.21875 C 335.769531 192.816406 336.136719 178.367188 337.53125 164.039062 C 338.234375 156.785156 342.726562 130.722656 350.878906 130.722656 C 353.125 130.722656 355.664062 132.722656 358.46875 137.65625 C 365.675781 150.3125 366.691406 170.117188 368.789062 184.328125 C 371.902344 205.28125 373.574219 226.4375 374.265625 247.609375 C 375.425781 283.449219 374.851562 320.199219 368.421875 355.585938 C 361.125 395.710938 343.578125 439.347656 306.609375 460.695312 C 290.503906 470.003906 272.53125 473.996094 254.339844 473.996094 C 228.441406 473.996094 202.085938 465.90625 179.945312 453.5 C 142.578125 432.550781 110.96875 397.664062 98.089844 356.363281 C 95.226562 347.1875 91.984375 335.574219 92.277344 325.910156 C 92.71875 311.289062 100.777344 308.542969 110.730469 308.542969 C 113.933594 308.542969 117.339844 308.820312 120.746094 309.085938 C 121.15625 309.113281 121.582031 309.1875 121.992188 309.21875 C 129.070312 346.277344 142.769531 387.621094 171.414062 412.847656 C 182.707031 422.785156 196.933594 427.527344 210.777344 427.527344 C 229.351562 427.527344 247.277344 419.011719 256.617188 403.097656 C 270.800781 406.636719 285.46875 408.441406 300.398438 408.441406 C 305.433594 408.441406 310.515625 408.234375 315.609375 407.824219 C 322.847656 407.238281 320.792969 396.417969 313.863281 396.417969 C 313.6875 396.417969 313.496094 396.429688 313.304688 396.445312 C 308.828125 396.8125 304.378906 396.988281 299.945312 396.988281 C 286.746094 396.988281 273.78125 395.402344 261.226562 392.363281 C 262.59375 387.679688 263.355469 382.570312 263.339844 377.019531 C 263.253906 350.886719 239.65625 332.179688 219.777344 319.203125 C 196.257812 303.84375 169.695312 293.507812 142.078125 288.558594 C 139.320312 259.855469 140.566406 230.535156 142.253906 201.859375 C 143.210938 185.695312 144.515625 169.53125 146.644531 153.480469 C 147.527344 146.816406 148.246094 139.84375 150.183594 133.382812 C 152.414062 125.980469 155.835938 123.117188 159.492188 123.117188 C 165.792969 123.117188 172.792969 131.589844 175.730469 140.0625 C 183.453125 162.421875 182.234375 188.75 182.824219 212.09375 C 183.261719 229.476562 183.4375 246.875 183.292969 264.261719 C 183.21875 272.101562 189.605469 276.300781 195.683594 276.300781 C 201.117188 276.300781 206.316406 272.953125 206.460938 265.859375 C 207.386719 222.78125 207.34375 179.03125 212.347656 136.199219 C 213.230469 128.667969 213.433594 119.492188 218.015625 113.179688 C 220.910156 109.199219 223.449219 107.613281 225.652344 107.613281 L 225.664062 107.601562 M 225.929688 82.492188 C 217.988281 82.492188 210.027344 86.367188 203.335938 93.652344 C 197.519531 99.996094 193.730469 108.1875 191.222656 117.289062 C 186.347656 109.582031 179.695312 103.414062 170.328125 100.113281 C 165.746094 98.496094 161.605469 97.761719 157.863281 97.761719 C 125.871094 97.761719 123.023438 151.941406 120.863281 176.003906 C 117.648438 212.019531 115.59375 249.136719 118.527344 285.417969 C 115.886719 285.226562 113.226562 285.125 110.570312 285.125 C 94.609375 285.125 79.078125 289.160156 72.398438 305.222656 C 62.941406 327.910156 73.085938 358.667969 82.21875 379.929688 C 109.71875 443.941406 184.820312 497.578125 255.515625 497.578125 C 289.359375 497.578125 322.171875 485.289062 348.292969 455.96875 C 383.03125 416.957031 393.515625 362.777344 396.628906 312.183594 C 399.871094 259.503906 398.359375 204.164062 386.527344 152.542969 C 382.429688 134.613281 376.585938 105.117188 353.519531 105.117188 C 352.652344 105.117188 351.757812 105.164062 350.832031 105.25 C 337.984375 106.453125 329.410156 114.71875 323.832031 125.175781 C 320.644531 113.515625 315.917969 102.886719 308.546875 95.015625 C 303.054688 89.160156 296.316406 86.324219 289.550781 86.324219 C 282.675781 86.324219 275.761719 89.246094 270.09375 94.898438 C 264.367188 100.609375 260.59375 107.671875 257.953125 115.234375 C 255.824219 106.984375 252.460938 99.144531 246.75 92.742188 C 240.523438 85.78125 233.226562 82.492188 225.914062 82.492188 L 225.929688 82.492188 " clip-rule="nonzero"/></clipPath></defs><g clip-path="url(#9aebfa7883)"><g clip-path="url(#8958e6e12b)"><path fill="#ffffff" d="M 62.941406 78.25 L 399.882812 78.25 L 399.882812 544.746094 L 62.941406 544.746094 Z M 62.941406 78.25 " fill-opacity="1" fill-rule="nonzero"/></g></g><g fill="#ffffff" fill-opacity="1"><g transform="translate(482.444271, 346.64735)"><g><path d="M 15.164062 -116.527344 L 27.417969 -116.527344 L 27.417969 -135.84375 L 15.164062 -135.84375 Z M 15.785156 0 L 27.003906 0 L 27.003906 -102.609375 L 15.785156 -102.609375 Z M 15.785156 0 "/></g></g></g><g fill="#ffffff" fill-opacity="1"><g transform="translate(525.230675, 346.64735)"><g><path d="M 14.539062 0 L 25.757812 0 L 25.757812 -52.550781 C 25.757812 -78.929688 42.789062 -94.09375 67.714844 -94.09375 C 91.1875 -94.09375 103.234375 -82.253906 103.234375 -61.484375 L 103.234375 0 L 114.449219 0 L 114.449219 -63.5625 C 114.449219 -89.316406 98.457031 -104.273438 71.039062 -104.273438 C 46.527344 -104.273438 31.15625 -92.847656 25.550781 -74.152344 L 25.339844 -74.152344 L 25.757812 -102.609375 L 14.539062 -102.609375 Z M 14.539062 0 "/></g></g></g><g fill="#ffffff" fill-opacity="1"><g transform="translate(652.966801, 346.64735)"><g><path d="M 54.628906 1.660156 C 84.125 1.660156 100.535156 -9.96875 100.535156 -29.496094 C 100.535156 -37.597656 97.210938 -44.867188 90.769531 -48.605469 C 84.332031 -52.136719 76.855469 -53.589844 59.199219 -55.460938 C 44.242188 -57.121094 34.273438 -58.574219 29.078125 -61.277344 C 23.886719 -63.769531 22.433594 -68.960938 22.433594 -73.945312 C 22.433594 -86.203125 35.3125 -94.511719 54.835938 -94.511719 C 75.816406 -94.511719 85.785156 -85.785156 85.785156 -67.714844 L 96.378906 -67.714844 C 96.378906 -91.1875 83.5 -104.273438 54.421875 -104.273438 C 28.25 -104.273438 11.214844 -91.808594 11.214844 -73.324219 C 11.214844 -65.84375 13.917969 -58.992188 19.523438 -55.042969 C 25.550781 -50.890625 35.726562 -48.605469 52.96875 -46.945312 C 68.753906 -45.488281 77.894531 -44.035156 82.460938 -41.75 C 87.449219 -39.050781 89.316406 -34.480469 89.316406 -29.078125 C 89.316406 -15.992188 77.269531 -8.101562 54.628906 -8.101562 C 31.15625 -8.101562 21.601562 -17.863281 21.601562 -34.273438 L 11.214844 -34.273438 C 11.214844 -13.292969 22.640625 1.660156 54.628906 1.660156 Z M 54.628906 1.660156 "/></g></g></g><g fill="#ffffff" fill-opacity="1"><g transform="translate(764.709959, 346.64735)"><g><path d="M 15.164062 -116.527344 L 27.417969 -116.527344 L 27.417969 -135.84375 L 15.164062 -135.84375 Z M 15.785156 0 L 27.003906 0 L 27.003906 -102.609375 L 15.785156 -102.609375 Z M 15.785156 0 "/></g></g></g><g fill="#ffffff" fill-opacity="1"><g transform="translate(807.496362, 346.64735)"><g><path d="M 60.238281 1.660156 C 83.707031 1.660156 98.871094 -11.632812 102.820312 -29.910156 L 103.234375 -29.910156 C 103.027344 -19.941406 102.820312 -9.96875 102.402344 0 L 113.621094 0 L 113.621094 -143.945312 L 102.402344 -143.945312 L 102.402344 -79.761719 L 102.195312 -79.761719 C 97.625 -95.546875 83.292969 -104.273438 61.277344 -104.273438 C 30.742188 -104.273438 11.214844 -82.878906 11.214844 -52.550781 C 11.214844 -19.316406 30.535156 1.660156 60.238281 1.660156 Z M 61.691406 -8.515625 C 38.011719 -8.515625 22.433594 -25.757812 22.433594 -52.550781 C 22.433594 -76.648438 38.21875 -94.09375 62.105469 -94.09375 C 86.410156 -94.09375 102.402344 -80.386719 102.402344 -55.042969 L 102.402344 -50.058594 C 102.402344 -27.625 87.449219 -8.515625 61.691406 -8.515625 Z M 61.691406 -8.515625 "/></g></g></g><g fill="#ffffff" fill-opacity="1"><g transform="translate(936.894082, 346.64735)"><g><path d="M 106.351562 -56.289062 C 106.351562 -87.238281 89.109375 -104.273438 60.859375 -104.273438 C 30.535156 -104.273438 11.214844 -83.707031 11.214844 -50.472656 C 11.214844 -18.277344 30.742188 1.660156 61.277344 1.660156 C 87.238281 1.660156 105.3125 -12.046875 106.351562 -34.066406 L 95.757812 -34.066406 C 94.300781 -18.070312 80.59375 -8.101562 61.277344 -8.101562 C 37.804688 -8.101562 22.640625 -23.886719 22.433594 -50.058594 L 106.351562 -50.058594 Z M 95.757812 -58.574219 L 22.847656 -58.574219 C 25.550781 -81.632812 39.882812 -94.511719 61.277344 -94.511719 C 82.460938 -94.511719 95.757812 -82.253906 95.757812 -59.613281 Z M 95.757812 -58.574219 "/></g></g></g><g fill="#ffffff" fill-opacity="1"><g transform="translate(1054.452828, 346.64735)"><g><path d="M 15.785156 0 L 27.003906 0 L 27.003906 -143.945312 L 15.785156 -143.945312 Z M 15.785156 0 "/></g></g></g><g fill="#ffffff" fill-opacity="1"><g transform="translate(1097.239231, 346.64735)"><g><path d="M 29.496094 42.996094 C 47.566406 42.996094 54.835938 33.234375 67.300781 1.453125 L 108.84375 -102.609375 L 97.210938 -102.609375 L 60.859375 -11.007812 L 60.445312 -11.007812 L 19.316406 -102.609375 L 6.023438 -102.609375 L 52.757812 0 L 56.5 0 C 45.695312 25.964844 40.710938 33.027344 28.25 33.027344 C 23.679688 33.027344 19.109375 31.78125 16.617188 30.949219 L 16.617188 40.503906 C 19.316406 41.75 24.511719 42.996094 29.496094 42.996094 Z M 29.496094 42.996094 "/></g></g></g></svg>