<svg xmlns="http://www.w3.org/2000/svg" xmlns:xlink="http://www.w3.org/1999/xlink" width="1700" zoomAndPan="magnify" viewBox="0 0 1275.75 623.24998" height="831" preserveAspectRatio="xMidYMid meet" version="1.0"><defs><g/><clipPath id="b78378d2c3"><path d="M 67 133 L 324 133 L 324 456.367188 L 67 456.367188 Z M 67 133 " clip-rule="nonzero"/></clipPath><clipPath id="4048fce1ff"><path d="M 127.894531 312.660156 C 141.226562 315.628906 154.1875 320.480469 166.058594 327.136719 C 180.367188 335.160156 205.199219 349.914062 199.582031 368.738281 C 187.183594 363.75 175.492188 356.832031 164.828125 348.074219 C 163.972656 347.378906 163.101562 347.082031 162.28125 347.082031 C 158.753906 347.082031 156.128906 352.574219 159.734375 355.542969 C 170.695312 364.550781 182.660156 371.628906 195.332031 376.777344 C 191.132812 381.949219 185.332031 384.117188 179.269531 384.117188 C 170.992188 384.117188 162.234375 380.078125 156.367188 374.105469 C 140.738281 358.191406 132.652344 334.820312 127.894531 312.683594 L 127.894531 312.660156 M 189.476562 152.945312 C 194.179688 152.945312 196.964844 162.101562 198.085938 167.457031 C 200.289062 178.039062 200.3125 189.320312 200.792969 200.074219 C 201.839844 223.46875 202.011719 246.90625 203.496094 270.265625 C 203.507812 270.4375 203.507812 270.609375 203.519531 270.769531 C 203.566406 271.582031 203.601562 272.378906 203.65625 273.191406 C 203.976562 277.941406 208.03125 280.210938 212.183594 280.210938 C 216.832031 280.210938 221.617188 277.378906 221.511719 272.015625 C 221.054688 247.808594 223.167969 223.367188 225.738281 199.320312 C 226.820312 189.148438 227.496094 178.359375 230.453125 168.519531 C 231.996094 163.390625 234.1875 155.980469 238.660156 155.980469 C 239.539062 155.980469 240.511719 156.269531 241.585938 156.917969 C 245.375 159.214844 246.789062 168.621094 247.863281 172.753906 C 253.730469 195.246094 255.570312 219.382812 256.597656 243.207031 C 257.066406 254.113281 257.363281 264.957031 257.796875 275.542969 C 258.082031 281.59375 263.230469 284.847656 267.957031 284.847656 C 272.171875 284.847656 276.03125 282.265625 275.800781 276.785156 C 275.082031 261.351562 274.820312 245.859375 274.980469 230.410156 C 275.09375 219.210938 275.378906 207.976562 276.464844 196.832031 C 277.011719 191.191406 280.503906 170.925781 286.84375 170.925781 C 288.589844 170.925781 290.5625 172.480469 292.746094 176.316406 C 298.351562 186.15625 299.136719 201.558594 300.769531 212.609375 C 303.191406 228.902344 304.492188 245.355469 305.027344 261.820312 C 305.929688 289.6875 305.484375 318.265625 300.484375 345.78125 C 294.8125 376.984375 281.167969 410.914062 252.417969 427.515625 C 239.894531 434.753906 225.921875 437.859375 211.773438 437.859375 C 191.632812 437.859375 171.140625 431.566406 153.925781 421.921875 C 124.867188 405.628906 100.285156 378.5 90.273438 346.386719 C 88.046875 339.25 85.523438 330.21875 85.753906 322.707031 C 86.09375 311.335938 92.363281 309.199219 100.105469 309.199219 C 102.59375 309.199219 105.242188 309.417969 107.890625 309.621094 C 108.210938 309.644531 108.542969 309.703125 108.859375 309.726562 C 114.363281 338.542969 125.015625 370.691406 147.289062 390.304688 C 156.070312 398.035156 167.132812 401.722656 177.898438 401.722656 C 192.34375 401.722656 206.28125 395.101562 213.542969 382.726562 C 224.574219 385.476562 235.980469 386.882812 247.589844 386.882812 C 251.507812 386.882812 255.457031 386.722656 259.417969 386.402344 C 265.046875 385.945312 263.449219 377.53125 258.058594 377.53125 C 257.921875 377.53125 257.773438 377.542969 257.625 377.554688 C 254.144531 377.839844 250.683594 377.976562 247.234375 377.976562 C 236.972656 377.976562 226.890625 376.742188 217.128906 374.378906 C 218.191406 370.738281 218.785156 366.765625 218.773438 362.449219 C 218.703125 342.125 200.355469 327.582031 184.898438 317.488281 C 166.609375 305.546875 145.953125 297.507812 124.480469 293.660156 C 122.332031 271.339844 123.304688 248.539062 124.617188 226.242188 C 125.359375 213.671875 126.375 201.101562 128.03125 188.625 C 128.714844 183.441406 129.273438 178.015625 130.78125 172.992188 C 132.515625 167.238281 135.175781 165.011719 138.019531 165.011719 C 142.917969 165.011719 148.363281 171.601562 150.648438 178.1875 C 156.652344 195.578125 155.707031 216.046875 156.160156 234.199219 C 156.503906 247.71875 156.640625 261.246094 156.527344 274.765625 C 156.46875 280.863281 161.4375 284.128906 166.164062 284.128906 C 170.386719 284.128906 174.429688 281.523438 174.542969 276.011719 C 175.261719 242.511719 175.226562 208.488281 179.121094 175.1875 C 179.804688 169.328125 179.964844 162.191406 183.527344 157.285156 C 185.777344 154.191406 187.753906 152.957031 189.464844 152.957031 L 189.476562 152.945312 M 189.683594 133.421875 C 183.503906 133.421875 177.316406 136.4375 172.113281 142.097656 C 167.589844 147.03125 164.644531 153.402344 162.691406 160.480469 C 158.902344 154.488281 153.730469 149.691406 146.445312 147.121094 C 142.882812 145.867188 139.664062 145.296875 136.753906 145.296875 C 111.875 145.296875 109.660156 187.425781 107.980469 206.136719 C 105.480469 234.144531 103.882812 263.007812 106.167969 291.21875 C 104.109375 291.070312 102.042969 290.988281 99.976562 290.988281 C 87.566406 290.988281 75.488281 294.128906 70.292969 306.621094 C 62.941406 324.257812 70.832031 348.175781 77.933594 364.710938 C 99.316406 414.488281 157.714844 456.195312 212.6875 456.195312 C 239.003906 456.195312 264.519531 446.636719 284.832031 423.839844 C 311.84375 393.503906 319.996094 351.375 322.417969 312.03125 C 324.941406 271.066406 323.765625 228.035156 314.5625 187.894531 C 311.378906 173.953125 306.832031 151.015625 288.898438 151.015625 C 288.222656 151.015625 287.527344 151.050781 286.808594 151.117188 C 276.816406 152.054688 270.148438 158.484375 265.8125 166.613281 C 263.335938 157.546875 259.65625 149.28125 253.925781 143.160156 C 249.65625 138.605469 244.414062 136.402344 239.152344 136.402344 C 233.808594 136.402344 228.433594 138.675781 224.023438 143.070312 C 219.574219 147.511719 216.636719 153.003906 214.582031 158.882812 C 212.925781 152.464844 210.3125 146.367188 205.871094 141.390625 C 201.03125 135.980469 195.355469 133.421875 189.671875 133.421875 L 189.683594 133.421875 " clip-rule="nonzero"/></clipPath></defs><g clip-path="url(#b78378d2c3)"><g clip-path="url(#4048fce1ff)"><path fill="#ffffff" d="M 62.941406 130.121094 L 324.949219 130.121094 L 324.949219 492.871094 L 62.941406 492.871094 Z M 62.941406 130.121094 " fill-opacity="1" fill-rule="nonzero"/></g></g><g fill="#ffffff" fill-opacity="1"><g transform="translate(391.515204, 335.293763)"><g><path d="M 12.277344 31.980469 L 20.996094 31.980469 L 20.996094 -1.613281 C 20.996094 -5.492188 20.675781 -13.890625 20.511719 -19.058594 L 20.675781 -19.058594 C 24.550781 -7.589844 36.019531 1.292969 54.753906 1.292969 C 77.046875 1.292969 92.066406 -15.019531 92.066406 -41.347656 C 92.066406 -65.738281 77.53125 -81.082031 54.433594 -81.082031 C 36.179688 -81.082031 23.90625 -71.230469 20.835938 -57.179688 L 20.675781 -57.179688 L 20.996094 -79.789062 L 12.277344 -79.789062 Z M 53.625 -6.621094 C 32.628906 -6.621094 20.996094 -19.058594 20.996094 -34.886719 L 20.996094 -40.058594 C 21.320312 -59.925781 33.273438 -73.167969 52.980469 -73.167969 C 71.554688 -73.167969 83.34375 -60.894531 83.34375 -41.1875 C 83.34375 -19.707031 71.070312 -6.621094 53.625 -6.621094 Z M 53.625 -6.621094 "/></g></g></g><g fill="#ffffff" fill-opacity="1"><g transform="translate(492.135672, 335.293763)"><g><path d="M 12.277344 0 L 20.996094 0 L 20.996094 -111.933594 L 12.277344 -111.933594 Z M 12.277344 0 "/></g></g></g><g fill="#ffffff" fill-opacity="1"><g transform="translate(525.406637, 335.293763)"><g><path d="M 38.441406 1.292969 C 57.984375 1.292969 70.101562 -7.269531 73.328125 -20.675781 L 73.492188 -20.675781 C 73.492188 -13.082031 73.167969 -4.523438 73.167969 0 L 81.890625 0 L 81.890625 -49.910156 C 81.890625 -69.777344 68.160156 -81.082031 45.710938 -81.082031 C 24.710938 -81.082031 11.304688 -71.714844 11.304688 -56.046875 C 11.304688 -54.433594 11.46875 -52.171875 11.628906 -51.203125 L 19.707031 -51.203125 C 19.542969 -52.332031 19.542969 -53.785156 19.542969 -54.917969 C 19.542969 -66.871094 29.398438 -73.492188 45.546875 -73.492188 C 62.992188 -73.492188 73.167969 -65.578125 73.167969 -50.554688 L 73.167969 -43.125 L 37.632812 -43.125 C 16.636719 -43.125 8.882812 -33.757812 8.882812 -22.453125 C 8.882812 -7.753906 20.835938 1.292969 38.441406 1.292969 Z M 40.058594 -6.300781 C 26.328125 -6.300781 17.121094 -12.4375 17.121094 -22.453125 C 17.121094 -31.011719 22.773438 -36.503906 38.441406 -36.503906 L 73.167969 -36.503906 L 73.167969 -35.371094 C 73.167969 -17.28125 60.085938 -6.300781 40.058594 -6.300781 Z M 40.058594 -6.300781 "/></g></g></g><g fill="#ffffff" fill-opacity="1"><g transform="translate(617.628598, 335.293763)"><g><path d="M 41.832031 0.484375 C 47.488281 0.484375 52.492188 -0.644531 54.753906 -1.453125 L 54.753906 -9.046875 C 52.816406 -8.398438 47.648438 -7.269531 42.480469 -7.269531 C 29.71875 -7.269531 24.875 -15.183594 24.875 -28.589844 L 24.875 -72.039062 L 55.238281 -72.039062 L 55.238281 -79.789062 L 24.875 -79.789062 L 24.875 -97.882812 L 17.28125 -97.882812 L 16.960938 -84.796875 C 16.796875 -80.921875 15.828125 -79.789062 13.566406 -79.789062 L 2.261719 -79.789062 L 2.261719 -72.039062 L 16.152344 -72.039062 L 16.152344 -28.105469 C 16.152344 -10.820312 23.90625 0.484375 41.832031 0.484375 Z M 41.832031 0.484375 "/></g></g></g><g fill="#ffffff" fill-opacity="1"><g transform="translate(679.809784, 335.293763)"><g><path d="M 16.3125 0 L 25.035156 0 L 25.035156 -72.039062 L 56.53125 -72.039062 L 56.53125 -79.789062 L 25.035156 -79.789062 L 25.035156 -88.191406 C 25.035156 -100.789062 31.335938 -107.085938 42.804688 -107.085938 C 48.132812 -107.085938 52.492188 -105.957031 55.238281 -104.988281 L 55.238281 -112.902344 C 52.492188 -113.871094 47.648438 -115.003906 41.996094 -115.003906 C 26.003906 -115.003906 16.3125 -105.796875 16.3125 -88.191406 L 16.3125 -79.789062 L 2.261719 -79.789062 L 2.261719 -72.039062 L 16.3125 -72.039062 Z M 16.3125 0 "/></g></g></g><g fill="#ffffff" fill-opacity="1"><g transform="translate(742.152481, 335.293763)"><g><path d="M 48.292969 1.292969 C 71.875 1.292969 87.867188 -14.375 87.867188 -39.734375 C 87.867188 -65.253906 71.875 -81.082031 48.292969 -81.082031 C 24.550781 -81.082031 8.722656 -65.253906 8.722656 -39.734375 C 8.722656 -14.375 24.550781 1.292969 48.292969 1.292969 Z M 48.292969 -6.621094 C 30.042969 -6.621094 17.445312 -19.222656 17.445312 -39.734375 C 17.445312 -60.410156 30.042969 -73.167969 48.292969 -73.167969 C 66.546875 -73.167969 79.144531 -60.410156 79.144531 -39.734375 C 79.144531 -19.222656 66.546875 -6.621094 48.292969 -6.621094 Z M 48.292969 -6.621094 "/></g></g></g><g fill="#ffffff" fill-opacity="1"><g transform="translate(838.573694, 335.293763)"><g><path d="M 11.304688 0 L 20.027344 0 L 20.027344 -37.148438 C 20.027344 -58.953125 31.171875 -73.167969 48.132812 -73.167969 C 62.347656 -73.167969 69.128906 -64.769531 69.128906 -47.972656 C 69.128906 -43.773438 68.808594 -39.574219 68.484375 -37.148438 L 76.558594 -37.148438 C 76.882812 -39.894531 77.207031 -44.902344 77.207031 -49.585938 C 77.207031 -69.777344 67.675781 -81.082031 49.910156 -81.082031 C 33.273438 -81.082031 23.421875 -70.585938 19.867188 -56.046875 L 19.707031 -56.046875 L 20.027344 -79.789062 L 11.304688 -79.789062 Z M 11.304688 0 "/></g></g></g><g fill="#ffffff" fill-opacity="1"><g transform="translate(924.335294, 335.293763)"><g><path d="M 11.304688 0 L 20.027344 0 L 20.027344 -41.1875 C 20.027344 -61.539062 30.851562 -73.167969 46.195312 -73.167969 C 60.085938 -73.167969 67.675781 -64.445312 67.675781 -49.425781 L 67.675781 0 L 76.398438 0 L 76.398438 -41.832031 C 76.398438 -61.863281 87.222656 -73.167969 102.726562 -73.167969 C 116.617188 -73.167969 124.207031 -64.285156 124.207031 -48.457031 L 124.207031 0 L 132.929688 0 L 132.929688 -50.070312 C 132.929688 -69.777344 122.59375 -81.082031 104.828125 -81.082031 C 90.289062 -81.082031 78.984375 -72.84375 76.074219 -59.4375 L 75.914062 -59.4375 C 73.976562 -73.007812 63.960938 -81.082031 48.457031 -81.082031 C 34.242188 -81.082031 23.257812 -72.683594 19.867188 -58.148438 L 19.707031 -58.148438 L 20.027344 -79.789062 L 11.304688 -79.789062 Z M 11.304688 0 "/></g></g></g><g fill="#ffffff" fill-opacity="1"><g transform="translate(1067.594276, 335.293763)"><g><path d="M 12.277344 0 L 20.996094 0 L 20.996094 -111.933594 L 12.277344 -111.933594 Z M 12.277344 0 "/></g></g></g><g fill="#ffffff" fill-opacity="1"><g transform="translate(1100.865202, 335.293763)"><g><path d="M 22.9375 33.433594 C 36.988281 33.433594 42.640625 25.84375 52.332031 1.128906 L 84.636719 -79.789062 L 75.589844 -79.789062 L 47.324219 -8.5625 L 47.003906 -8.5625 L 15.019531 -79.789062 L 4.683594 -79.789062 L 41.027344 0 L 43.933594 0 C 35.535156 20.191406 31.65625 25.683594 21.964844 25.683594 C 18.414062 25.683594 14.859375 24.710938 12.921875 24.066406 L 12.921875 31.496094 C 15.019531 32.464844 19.058594 33.433594 22.9375 33.433594 Z M 22.9375 33.433594 "/></g></g></g></svg>