<svg xmlns="http://www.w3.org/2000/svg" xmlns:xlink="http://www.w3.org/1999/xlink" width="3779" zoomAndPan="magnify" viewBox="0 0 2835 4535.249943" height="6047" preserveAspectRatio="xMidYMid meet" version="1.0"><defs><clipPath id="a223740137"><path d="M 590.835938 2258 L 1140 2258 L 1140 3149 L 590.835938 3149 Z M 590.835938 2258 " clip-rule="nonzero"/></clipPath><clipPath id="a680368795"><path d="M 1696 1385 L 2243.5625 1385 L 2243.5625 3148 L 1696 3148 Z M 1696 1385 " clip-rule="nonzero"/></clipPath></defs><g clip-path="url(#a223740137)"><path fill="#fab429" d="M 598.753906 2383.308594 C 612.75 2611.003906 626.742188 2838.699219 640.738281 3066.394531 C 643.449219 3110.484375 674.199219 3140.917969 718.308594 3143.960938 C 832.738281 3151.863281 947.199219 3149.960938 1061.304688 3138.253906 C 1099.753906 3134.3125 1143.339844 3105.789062 1138.875 3060.6875 C 1114.992188 2819.503906 1095.53125 2577.914062 1080.503906 2336.015625 C 1078.054688 2296.570312 1046.886719 2255.183594 1002.9375 2258.449219 C 891.425781 2266.738281 779.914062 2275.023438 668.40625 2283.3125 C 626.625 2286.417969 590.835938 2316.738281 590.835938 2360.878906 C 590.835938 2400.453125 626.398438 2441.570312 668.40625 2438.449219 C 779.914062 2430.160156 891.425781 2421.875 1002.9375 2413.585938 L 925.367188 2336.015625 C 940.394531 2577.914062 959.851562 2819.503906 983.738281 3060.6875 L 1061.304688 2983.117188 C 947.199219 2994.820312 832.738281 2996.726562 718.308594 2988.824219 L 795.875 3066.394531 C 781.882812 2838.699219 767.886719 2611.003906 753.890625 2383.308594 C 751.320312 2341.488281 720.082031 2305.742188 676.324219 2305.742188 C 636.320312 2305.742188 596.171875 2341.28125 598.753906 2383.308594 Z M 598.753906 2383.308594 " fill-opacity="1" fill-rule="nonzero"/></g><path fill="#fab429" d="M 1124.597656 2007.597656 C 1138.59375 2359.609375 1152.589844 2711.617188 1166.582031 3063.625 C 1168.382812 3108.90625 1200.910156 3136.589844 1244.152344 3141.195312 C 1366.046875 3154.175781 1486.824219 3148.75 1607.773438 3129.597656 C 1639.210938 3124.621094 1666.707031 3085.8125 1664.71875 3054.800781 C 1640.785156 2681.609375 1621.335938 2308.144531 1606.347656 1934.484375 C 1604.816406 1896.238281 1571.875 1851.964844 1528.78125 1856.917969 C 1417.269531 1869.730469 1305.761719 1882.542969 1194.25 1895.355469 C 1152.636719 1900.136719 1116.683594 1927.582031 1116.683594 1972.921875 C 1116.683594 2011.140625 1152.359375 2055.304688 1194.25 2050.492188 C 1305.761719 2037.679688 1417.269531 2024.867188 1528.78125 2012.054688 L 1451.210938 1934.484375 C 1466.199219 2308.144531 1485.648438 2681.609375 1509.582031 3054.800781 L 1566.53125 2980.003906 C 1459.917969 2996.882812 1351.355469 2997.472656 1244.152344 2986.054688 L 1321.722656 3063.625 C 1307.726562 2711.617188 1293.730469 2359.605469 1279.738281 2007.597656 C 1275.78125 1908.101562 1120.625 1907.59375 1124.597656 2007.597656 Z M 1124.597656 2007.597656 " fill-opacity="1" fill-rule="nonzero"/><g clip-path="url(#a680368795)"><path fill="#fab429" d="M 1703.613281 1565.621094 C 1717.609375 2063.867188 1731.601562 2562.117188 1745.597656 3060.367188 C 1746.460938 3091.09375 1768.839844 3130.085938 1802.546875 3135.167969 C 1931.886719 3154.664062 2058.941406 3151.328125 2186.785156 3122.675781 C 2218.570312 3115.554688 2245.210938 3080.496094 2243.734375 3047.878906 C 2219.773438 2519.472656 2200.328125 1990.871094 2185.363281 1462.132812 C 2183.820312 1407.621094 2137.277344 1379.183594 2087.171875 1387.335938 C 1975.664062 1405.46875 1864.152344 1423.605469 1752.644531 1441.738281 C 1711.261719 1448.46875 1688.222656 1499.882812 1698.464844 1537.160156 C 1710.554688 1581.144531 1752.382812 1598.085938 1793.886719 1591.335938 C 1905.394531 1573.199219 2016.90625 1555.066406 2128.414062 1536.929688 L 2030.226562 1462.132812 C 2045.1875 1990.871094 2064.636719 2519.472656 2088.59375 3047.878906 L 2145.542969 2973.082031 C 2046.746094 2995.222656 1944.144531 3000.699219 1843.785156 2985.570312 L 1900.734375 3060.367188 C 1886.738281 2562.117188 1872.746094 2063.867188 1858.75 1565.621094 C 1855.953125 1465.996094 1700.804688 1465.589844 1703.613281 1565.621094 Z M 1703.613281 1565.621094 " fill-opacity="1" fill-rule="nonzero"/></g></svg>