<svg xmlns="http://www.w3.org/2000/svg" xmlns:xlink="http://www.w3.org/1999/xlink" width="3779" zoomAndPan="magnify" viewBox="0 0 2835 4535.249943" height="6047" preserveAspectRatio="xMidYMid meet" version="1.0"><defs><clipPath id="82281b8c79"><path d="M 1050 498 L 1809 498 L 1809 1166 L 1050 1166 Z M 1050 498 " clip-rule="nonzero"/></clipPath><clipPath id="099c9103f8"><path d="M 1077.695312 891.039062 C 1041.257812 860.078125 1041.257812 803.832031 1077.695312 772.871094 L 1379.367188 516.515625 C 1408.316406 491.917969 1450.824219 491.917969 1479.773438 516.515625 L 1509.953125 542.164062 C 1526.265625 556.023438 1528.253906 580.492188 1514.390625 596.804688 C 1500.527344 613.125 1476.066406 615.109375 1459.75 601.246094 L 1429.570312 575.601562 L 1127.898438 831.957031 L 1215.320312 906.242188 C 1231.636719 920.109375 1233.621094 944.570312 1219.761719 960.890625 C 1205.898438 977.203125 1181.433594 979.191406 1165.117188 965.328125 Z M 1326.15625 1051.304688 C 1340.023438 1034.988281 1364.484375 1033 1380.800781 1046.863281 L 1429.570312 1088.308594 L 1731.242188 831.957031 L 1667.707031 777.960938 C 1651.390625 764.101562 1649.402344 739.632812 1663.265625 723.320312 C 1677.128906 707.003906 1701.59375 705.015625 1717.910156 718.878906 L 1781.445312 772.871094 C 1817.878906 803.832031 1817.878906 860.078125 1781.445312 891.039062 L 1479.773438 1147.390625 C 1450.824219 1171.992188 1408.316406 1171.992188 1379.367188 1147.390625 L 1330.597656 1105.949219 C 1314.28125 1092.085938 1312.296875 1067.621094 1326.15625 1051.304688 Z M 1326.15625 1051.304688 " clip-rule="evenodd"/></clipPath><linearGradient x1="21.521" gradientTransform="matrix(0, 25.412188, -25.410572, 0, 1976.421563, 285.064755)" y1="36.802096" x2="21.521" gradientUnits="userSpaceOnUse" y2="6.239197" id="e0e53c73ad"><stop stop-opacity="1" stop-color="rgb(28.999329%, 99.598694%, 74.899292%)" offset="0"/><stop stop-opacity="1" stop-color="rgb(29.026794%, 99.536133%, 75.004578%)" offset="0.03125"/><stop stop-opacity="1" stop-color="rgb(29.100037%, 99.372864%, 75.280762%)" offset="0.0625"/><stop stop-opacity="1" stop-color="rgb(29.188538%, 99.171448%, 75.619507%)" offset="0.09375"/><stop stop-opacity="1" stop-color="rgb(29.278564%, 98.968506%, 75.959778%)" offset="0.125"/><stop stop-opacity="1" stop-color="rgb(29.368591%, 98.76709%, 76.298523%)" offset="0.15625"/><stop stop-opacity="1" stop-color="rgb(29.458618%, 98.565674%, 76.637268%)" offset="0.1875"/><stop stop-opacity="1" stop-color="rgb(29.547119%, 98.364258%, 76.976013%)" offset="0.21875"/><stop stop-opacity="1" stop-color="rgb(29.637146%, 98.162842%, 77.316284%)" offset="0.25"/><stop stop-opacity="1" stop-color="rgb(29.727173%, 97.961426%, 77.655029%)" offset="0.28125"/><stop stop-opacity="1" stop-color="rgb(29.815674%, 97.76001%, 77.993774%)" offset="0.3125"/><stop stop-opacity="1" stop-color="rgb(29.905701%, 97.558594%, 78.334045%)" offset="0.34375"/><stop stop-opacity="1" stop-color="rgb(29.995728%, 97.355652%, 78.672791%)" offset="0.375"/><stop stop-opacity="1" stop-color="rgb(30.085754%, 97.154236%, 79.011536%)" offset="0.40625"/><stop stop-opacity="1" stop-color="rgb(30.174255%, 96.95282%, 79.351807%)" offset="0.4375"/><stop stop-opacity="1" stop-color="rgb(30.264282%, 96.751404%, 79.690552%)" offset="0.46875"/><stop stop-opacity="1" stop-color="rgb(30.354309%, 96.549988%, 80.029297%)" offset="0.5"/><stop stop-opacity="1" stop-color="rgb(30.44281%, 96.348572%, 80.368042%)" offset="0.53125"/><stop stop-opacity="1" stop-color="rgb(30.532837%, 96.147156%, 80.708313%)" offset="0.5625"/><stop stop-opacity="1" stop-color="rgb(30.622864%, 95.94574%, 81.047058%)" offset="0.59375"/><stop stop-opacity="1" stop-color="rgb(30.712891%, 95.742798%, 81.385803%)" offset="0.625"/><stop stop-opacity="1" stop-color="rgb(30.801392%, 95.541382%, 81.726074%)" offset="0.65625"/><stop stop-opacity="1" stop-color="rgb(30.891418%, 95.339966%, 82.064819%)" offset="0.6875"/><stop stop-opacity="1" stop-color="rgb(30.981445%, 95.13855%, 82.403564%)" offset="0.71875"/><stop stop-opacity="1" stop-color="rgb(31.071472%, 94.937134%, 82.743835%)" offset="0.75"/><stop stop-opacity="1" stop-color="rgb(31.159973%, 94.735718%, 83.082581%)" offset="0.78125"/><stop stop-opacity="1" stop-color="rgb(31.25%, 94.534302%, 83.421326%)" offset="0.8125"/><stop stop-opacity="1" stop-color="rgb(31.340027%, 94.332886%, 83.760071%)" offset="0.84375"/><stop stop-opacity="1" stop-color="rgb(31.428528%, 94.129944%, 84.100342%)" offset="0.875"/><stop stop-opacity="1" stop-color="rgb(31.518555%, 93.928528%, 84.439087%)" offset="0.90625"/><stop stop-opacity="1" stop-color="rgb(31.608582%, 93.727112%, 84.777832%)" offset="0.9375"/><stop stop-opacity="1" stop-color="rgb(31.698608%, 93.525696%, 85.118103%)" offset="0.96875"/><stop stop-opacity="1" stop-color="rgb(31.770325%, 93.362427%, 85.392761%)" offset="1"/></linearGradient><clipPath id="2d1dac3a8d"><path d="M 882 285 L 1976.421875 285 L 1976.421875 871 L 882 871 Z M 882 285 " clip-rule="nonzero"/></clipPath><clipPath id="35c6869e94"><path d="M 1898.890625 831.953125 C 1898.890625 572.734375 1688.769531 362.597656 1429.570312 362.597656 C 1170.371094 362.597656 960.246094 572.734375 960.246094 831.953125 C 960.246094 853.363281 942.890625 870.71875 921.480469 870.71875 C 900.074219 870.71875 882.71875 853.363281 882.71875 831.953125 C 882.71875 529.914062 1127.550781 285.066406 1429.570312 285.066406 C 1731.585938 285.066406 1976.421875 529.914062 1976.421875 831.953125 C 1976.421875 853.363281 1959.066406 870.71875 1937.65625 870.71875 C 1916.246094 870.71875 1898.890625 853.363281 1898.890625 831.953125 Z M 1898.890625 831.953125 " clip-rule="evenodd"/></clipPath><linearGradient x1="11.523" gradientTransform="matrix(0, 25.412188, -25.410572, 0, 1976.421563, 285.064755)" y1="-0.00000242557" x2="11.523" gradientUnits="userSpaceOnUse" y2="43.041297" id="2ac638111e"><stop stop-opacity="1" stop-color="rgb(28.999329%, 99.598694%, 74.899292%)" offset="0"/><stop stop-opacity="1" stop-color="rgb(29.042053%, 99.499512%, 75.064087%)" offset="0.03125"/><stop stop-opacity="1" stop-color="rgb(29.130554%, 99.302673%, 75.395203%)" offset="0.0625"/><stop stop-opacity="1" stop-color="rgb(29.217529%, 99.105835%, 75.726318%)" offset="0.09375"/><stop stop-opacity="1" stop-color="rgb(29.304504%, 98.908997%, 76.057434%)" offset="0.125"/><stop stop-opacity="1" stop-color="rgb(29.393005%, 98.712158%, 76.38855%)" offset="0.15625"/><stop stop-opacity="1" stop-color="rgb(29.47998%, 98.51532%, 76.721191%)" offset="0.1875"/><stop stop-opacity="1" stop-color="rgb(29.566956%, 98.318481%, 77.052307%)" offset="0.21875"/><stop stop-opacity="1" stop-color="rgb(29.655457%, 98.121643%, 77.383423%)" offset="0.25"/><stop stop-opacity="1" stop-color="rgb(29.742432%, 97.924805%, 77.714539%)" offset="0.28125"/><stop stop-opacity="1" stop-color="rgb(29.829407%, 97.727966%, 78.045654%)" offset="0.3125"/><stop stop-opacity="1" stop-color="rgb(29.917908%, 97.531128%, 78.37677%)" offset="0.34375"/><stop stop-opacity="1" stop-color="rgb(30.004883%, 97.33429%, 78.707886%)" offset="0.375"/><stop stop-opacity="1" stop-color="rgb(30.091858%, 97.137451%, 79.039001%)" offset="0.40625"/><stop stop-opacity="1" stop-color="rgb(30.180359%, 96.940613%, 79.370117%)" offset="0.4375"/><stop stop-opacity="1" stop-color="rgb(30.267334%, 96.743774%, 79.701233%)" offset="0.46875"/><stop stop-opacity="1" stop-color="rgb(30.354309%, 96.546936%, 80.032349%)" offset="0.5"/><stop stop-opacity="1" stop-color="rgb(30.44281%, 96.350098%, 80.363464%)" offset="0.53125"/><stop stop-opacity="1" stop-color="rgb(30.529785%, 96.153259%, 80.696106%)" offset="0.5625"/><stop stop-opacity="1" stop-color="rgb(30.61676%, 95.956421%, 81.027222%)" offset="0.59375"/><stop stop-opacity="1" stop-color="rgb(30.705261%, 95.759583%, 81.358337%)" offset="0.625"/><stop stop-opacity="1" stop-color="rgb(30.792236%, 95.562744%, 81.689453%)" offset="0.65625"/><stop stop-opacity="1" stop-color="rgb(30.880737%, 95.365906%, 82.020569%)" offset="0.6875"/><stop stop-opacity="1" stop-color="rgb(30.967712%, 95.169067%, 82.351685%)" offset="0.71875"/><stop stop-opacity="1" stop-color="rgb(31.054688%, 94.972229%, 82.6828%)" offset="0.75"/><stop stop-opacity="1" stop-color="rgb(31.143188%, 94.775391%, 83.013916%)" offset="0.78125"/><stop stop-opacity="1" stop-color="rgb(31.230164%, 94.578552%, 83.345032%)" offset="0.8125"/><stop stop-opacity="1" stop-color="rgb(31.317139%, 94.381714%, 83.676147%)" offset="0.84375"/><stop stop-opacity="1" stop-color="rgb(31.40564%, 94.184875%, 84.007263%)" offset="0.875"/><stop stop-opacity="1" stop-color="rgb(31.492615%, 93.988037%, 84.339905%)" offset="0.90625"/><stop stop-opacity="1" stop-color="rgb(31.57959%, 93.791199%, 84.671021%)" offset="0.9375"/><stop stop-opacity="1" stop-color="rgb(31.668091%, 93.59436%, 85.002136%)" offset="0.96875"/><stop stop-opacity="1" stop-color="rgb(31.755066%, 93.397522%, 85.333252%)" offset="1"/></linearGradient><clipPath id="7508c60cfd"><path d="M 1029 1150 L 1830 1150 L 1830 1379 L 1029 1379 Z M 1029 1150 " clip-rule="nonzero"/></clipPath><clipPath id="ad21c803b7"><path d="M 1041.359375 1162.054688 C 1056.570312 1146.984375 1081.113281 1147.097656 1096.183594 1162.304688 C 1181.273438 1248.1875 1299.183594 1301.308594 1429.570312 1301.308594 C 1559.957031 1301.308594 1677.863281 1248.1875 1762.957031 1162.304688 C 1778.023438 1147.097656 1802.570312 1146.984375 1817.777344 1162.054688 C 1832.984375 1177.125 1833.097656 1201.667969 1818.027344 1216.878906 C 1718.972656 1316.851562 1581.476562 1378.84375 1429.570312 1378.84375 C 1277.664062 1378.84375 1140.164062 1316.851562 1041.109375 1216.878906 C 1026.039062 1201.667969 1026.152344 1177.125 1041.359375 1162.054688 Z M 1041.359375 1162.054688 " clip-rule="evenodd"/></clipPath><linearGradient x1="38.555" gradientTransform="matrix(0, 25.412188, -25.410572, 0, 1976.421563, 285.064755)" y1="37.400996" x2="38.555" gradientUnits="userSpaceOnUse" y2="5.640347" id="135aec02c1"><stop stop-opacity="1" stop-color="rgb(28.999329%, 99.598694%, 74.899292%)" offset="0"/><stop stop-opacity="1" stop-color="rgb(29.03595%, 99.514771%, 75.041199%)" offset="0.03125"/><stop stop-opacity="1" stop-color="rgb(29.118347%, 99.331665%, 75.349426%)" offset="0.0625"/><stop stop-opacity="1" stop-color="rgb(29.206848%, 99.131775%, 75.683594%)" offset="0.09375"/><stop stop-opacity="1" stop-color="rgb(29.295349%, 98.933411%, 76.017761%)" offset="0.125"/><stop stop-opacity="1" stop-color="rgb(29.38385%, 98.735046%, 76.351929%)" offset="0.15625"/><stop stop-opacity="1" stop-color="rgb(29.470825%, 98.536682%, 76.687622%)" offset="0.1875"/><stop stop-opacity="1" stop-color="rgb(29.559326%, 98.336792%, 77.02179%)" offset="0.21875"/><stop stop-opacity="1" stop-color="rgb(29.647827%, 98.138428%, 77.355957%)" offset="0.25"/><stop stop-opacity="1" stop-color="rgb(29.736328%, 97.940063%, 77.690125%)" offset="0.28125"/><stop stop-opacity="1" stop-color="rgb(29.824829%, 97.741699%, 78.024292%)" offset="0.3125"/><stop stop-opacity="1" stop-color="rgb(29.91333%, 97.541809%, 78.358459%)" offset="0.34375"/><stop stop-opacity="1" stop-color="rgb(30.001831%, 97.343445%, 78.694153%)" offset="0.375"/><stop stop-opacity="1" stop-color="rgb(30.090332%, 97.145081%, 79.02832%)" offset="0.40625"/><stop stop-opacity="1" stop-color="rgb(30.178833%, 96.946716%, 79.362488%)" offset="0.4375"/><stop stop-opacity="1" stop-color="rgb(30.267334%, 96.746826%, 79.696655%)" offset="0.46875"/><stop stop-opacity="1" stop-color="rgb(30.354309%, 96.548462%, 80.030823%)" offset="0.5"/><stop stop-opacity="1" stop-color="rgb(30.44281%, 96.350098%, 80.366516%)" offset="0.53125"/><stop stop-opacity="1" stop-color="rgb(30.531311%, 96.150208%, 80.700684%)" offset="0.5625"/><stop stop-opacity="1" stop-color="rgb(30.619812%, 95.951843%, 81.034851%)" offset="0.59375"/><stop stop-opacity="1" stop-color="rgb(30.708313%, 95.753479%, 81.369019%)" offset="0.625"/><stop stop-opacity="1" stop-color="rgb(30.796814%, 95.555115%, 81.703186%)" offset="0.65625"/><stop stop-opacity="1" stop-color="rgb(30.885315%, 95.355225%, 82.037354%)" offset="0.6875"/><stop stop-opacity="1" stop-color="rgb(30.973816%, 95.15686%, 82.373047%)" offset="0.71875"/><stop stop-opacity="1" stop-color="rgb(31.062317%, 94.958496%, 82.707214%)" offset="0.75"/><stop stop-opacity="1" stop-color="rgb(31.149292%, 94.760132%, 83.041382%)" offset="0.78125"/><stop stop-opacity="1" stop-color="rgb(31.237793%, 94.560242%, 83.375549%)" offset="0.8125"/><stop stop-opacity="1" stop-color="rgb(31.326294%, 94.361877%, 83.709717%)" offset="0.84375"/><stop stop-opacity="1" stop-color="rgb(31.414795%, 94.163513%, 84.043884%)" offset="0.875"/><stop stop-opacity="1" stop-color="rgb(31.503296%, 93.965149%, 84.379578%)" offset="0.90625"/><stop stop-opacity="1" stop-color="rgb(31.591797%, 93.765259%, 84.713745%)" offset="0.9375"/><stop stop-opacity="1" stop-color="rgb(31.680298%, 93.566895%, 85.047913%)" offset="0.96875"/><stop stop-opacity="1" stop-color="rgb(31.761169%, 93.383789%, 85.357666%)" offset="1"/></linearGradient></defs><path fill="#4afebf" d="M 1543.539062 613.125 C 1552.808594 601.394531 1569.828125 599.398438 1581.554688 608.667969 L 1639.632812 654.554688 C 1651.359375 663.820312 1653.355469 680.84375 1644.089844 692.570312 C 1634.820312 704.300781 1617.800781 706.296875 1606.074219 697.03125 L 1548 651.144531 C 1536.269531 641.875 1534.273438 624.855469 1543.539062 613.125 Z M 1543.539062 613.125 " fill-opacity="1" fill-rule="nonzero"/><path fill="#51eeda" d="M 1442.21875 921.074219 C 1392.996094 921.074219 1353.09375 881.171875 1353.09375 831.949219 C 1353.09375 782.722656 1392.996094 742.820312 1442.21875 742.820312 C 1491.4375 742.820312 1531.339844 782.722656 1531.339844 831.949219 C 1531.339844 881.171875 1491.4375 921.074219 1442.21875 921.074219 Z M 1442.21875 921.074219 " fill-opacity="1" fill-rule="nonzero"/><g clip-path="url(#82281b8c79)"><g clip-path="url(#099c9103f8)"><path fill="url(#e0e53c73ad)" d="M 1817.878906 491.917969 L 1041.257812 491.917969 L 1041.257812 1171.992188 L 1817.878906 1171.992188 Z M 1817.878906 491.917969 " fill-rule="nonzero"/></g></g><g clip-path="url(#2d1dac3a8d)"><g clip-path="url(#35c6869e94)"><path fill="url(#2ac638111e)" d="M 1976.421875 285.066406 L 882.71875 285.066406 L 882.71875 870.71875 L 1976.421875 870.71875 Z M 1976.421875 285.066406 " fill-rule="nonzero"/></g></g><g clip-path="url(#7508c60cfd)"><g clip-path="url(#ad21c803b7)"><path fill="url(#135aec02c1)" d="M 1833.097656 1146.984375 L 1026.039062 1146.984375 L 1026.039062 1378.84375 L 1833.097656 1378.84375 Z M 1833.097656 1146.984375 " fill-rule="nonzero"/></g></g><path fill="#4afebf" d="M 960.082031 1062.621094 C 937.066406 1062.621094 918.410156 1043.960938 918.410156 1020.945312 C 918.410156 997.929688 937.066406 979.273438 960.082031 979.273438 C 983.097656 979.273438 1001.753906 997.929688 1001.753906 1020.945312 C 1001.753906 1043.960938 983.097656 1062.621094 960.082031 1062.621094 Z M 960.082031 1062.621094 " fill-opacity="1" fill-rule="nonzero"/><path fill="#000000" d="M 1216.027344 2032.652344 L 1277.195312 2032.652344 L 1277.195312 1834.777344 L 1372.933594 1834.777344 L 1372.933594 2020.417969 L 1434.097656 2020.417969 L 1434.097656 1834.777344 L 1527.179688 1834.777344 L 1527.179688 2029.992188 L 1588.347656 2029.992188 L 1588.347656 1766.691406 L 1216.027344 1766.691406 Z M 1216.027344 2032.652344 " fill-opacity="1" fill-rule="nonzero"/><path fill="#000000" d="M 1216.027344 2176.578125 L 1472.929688 2176.578125 L 1472.929688 2177.113281 L 1216.027344 2365.945312 L 1216.027344 2431.902344 L 1588.347656 2431.902344 L 1588.347656 2363.816406 L 1331.976562 2363.816406 L 1331.976562 2363.285156 L 1588.347656 2173.917969 L 1588.347656 2108.492188 L 1216.027344 2108.492188 Z M 1216.027344 2176.578125 " fill-opacity="1" fill-rule="nonzero"/><path fill="#000000" d="M 1216.027344 2701.25 L 1588.347656 2854.972656 L 1588.347656 2783.167969 L 1305.914062 2667.738281 L 1305.914062 2666.675781 L 1588.347656 2551.246094 L 1588.347656 2479.4375 L 1216.027344 2633.164062 Z M 1216.027344 2701.25 " fill-opacity="1" fill-rule="nonzero"/><path fill="#000000" d="M 1216.027344 3168.179688 L 1277.195312 3168.179688 L 1277.195312 2970.320312 L 1372.933594 2970.320312 L 1372.933594 3155.957031 L 1434.097656 3155.957031 L 1434.097656 2970.320312 L 1527.179688 2970.320312 L 1527.179688 3165.535156 L 1588.347656 3165.535156 L 1588.347656 2902.214844 L 1216.027344 2902.214844 Z M 1216.027344 3168.179688 " fill-opacity="1" fill-rule="nonzero"/><path fill="#000000" d="M 1216.027344 3486.058594 L 1276.128906 3486.058594 L 1276.128906 3312.113281 L 1588.347656 3312.113281 L 1588.347656 3244.035156 L 1216.027344 3244.035156 Z M 1216.027344 3486.058594 " fill-opacity="1" fill-rule="nonzero"/><path fill="#000000" d="M 1209.109375 3717.566406 C 1209.109375 3825.007812 1293.679688 3908.539062 1402.1875 3908.539062 C 1510.691406 3908.539062 1595.261719 3825.007812 1595.261719 3717.566406 C 1595.261719 3610.121094 1510.691406 3526.617188 1402.1875 3526.617188 C 1293.679688 3526.617188 1209.109375 3610.121094 1209.109375 3717.566406 Z M 1271.34375 3717.566406 C 1271.34375 3643.109375 1332.511719 3595.765625 1402.1875 3595.765625 C 1471.863281 3595.765625 1533.03125 3643.109375 1533.03125 3717.566406 C 1533.03125 3792.558594 1471.863281 3839.898438 1402.1875 3839.898438 C 1332.511719 3839.898438 1271.34375 3792.558594 1271.34375 3717.566406 Z M 1271.34375 3717.566406 " fill-opacity="1" fill-rule="nonzero"/><path fill="#000000" d="M 1216.027344 4043.503906 L 1345.808594 4043.503906 L 1345.808594 4117.453125 C 1345.808594 4179.6875 1381.441406 4249.367188 1467.609375 4249.367188 C 1553.773438 4249.367188 1588.347656 4179.6875 1588.347656 4117.453125 L 1588.347656 3975.421875 L 1216.027344 3975.421875 Z M 1527.179688 4043.503906 L 1527.179688 4111.074219 C 1527.179688 4163.195312 1500.054688 4180.753906 1467.609375 4180.753906 C 1434.632812 4180.753906 1406.972656 4163.195312 1406.972656 4111.074219 L 1406.972656 4043.503906 Z M 1527.179688 4043.503906 " fill-opacity="1" fill-rule="nonzero"/></svg>