<svg xmlns="http://www.w3.org/2000/svg" xmlns:xlink="http://www.w3.org/1999/xlink" width="1700" zoomAndPan="magnify" viewBox="0 0 1275.75 623.24998" height="831" preserveAspectRatio="xMidYMid meet" version="1.0"><defs><g/><clipPath id="690458e9bb"><path d="M 59 112.320312 L 378 112.320312 L 378 513.726562 L 59 513.726562 Z M 59 112.320312 " clip-rule="nonzero"/></clipPath><clipPath id="41eedf9ffc"><path d="M 134.941406 335.152344 C 151.480469 338.835938 167.550781 344.851562 182.277344 353.105469 C 200.015625 363.058594 230.8125 381.355469 223.847656 404.703125 C 208.46875 398.515625 193.972656 389.933594 180.746094 379.074219 C 179.683594 378.210938 178.609375 377.84375 177.589844 377.84375 C 173.214844 377.84375 169.957031 384.652344 174.433594 388.335938 C 188.023438 399.503906 202.863281 408.285156 218.578125 414.667969 C 213.367188 421.082031 206.175781 423.773438 198.65625 423.773438 C 188.390625 423.773438 177.53125 418.761719 170.253906 411.355469 C 150.871094 391.617188 140.847656 362.636719 134.941406 335.179688 L 134.941406 335.152344 M 211.316406 137.082031 C 217.148438 137.082031 220.605469 148.4375 221.992188 155.078125 C 224.722656 168.203125 224.753906 182.195312 225.347656 195.53125 C 226.648438 224.542969 226.863281 253.613281 228.703125 282.582031 C 228.71875 282.792969 228.71875 283.003906 228.730469 283.203125 C 228.789062 284.210938 228.832031 285.199219 228.902344 286.207031 C 229.296875 292.09375 234.324219 294.914062 239.476562 294.914062 C 245.242188 294.914062 251.171875 291.402344 251.046875 284.746094 C 250.480469 254.730469 253.097656 224.414062 256.285156 194.597656 C 257.628906 181.980469 258.464844 168.601562 262.132812 156.394531 C 264.042969 150.039062 266.761719 140.851562 272.3125 140.851562 C 273.402344 140.851562 274.605469 141.203125 275.9375 142.011719 C 280.636719 144.855469 282.394531 156.523438 283.726562 161.648438 C 291.003906 189.542969 293.28125 219.472656 294.554688 249.023438 C 295.136719 262.546875 295.503906 275.996094 296.042969 289.121094 C 296.398438 296.625 302.78125 300.660156 308.644531 300.660156 C 313.867188 300.660156 318.65625 297.460938 318.371094 290.664062 C 317.480469 271.523438 317.152344 252.308594 317.351562 233.152344 C 317.492188 219.261719 317.847656 205.328125 319.191406 191.511719 C 319.871094 184.515625 324.207031 159.382812 332.0625 159.382812 C 334.230469 159.382812 336.679688 161.308594 339.382812 166.066406 C 346.335938 178.273438 347.3125 197.371094 349.335938 211.078125 C 352.339844 231.28125 353.953125 251.6875 354.617188 272.101562 C 355.738281 306.664062 355.183594 342.105469 348.984375 376.226562 C 341.945312 414.925781 325.027344 457.003906 289.375 477.59375 C 273.839844 486.570312 256.511719 490.421875 238.96875 490.421875 C 213.992188 490.421875 188.578125 482.617188 167.226562 470.652344 C 131.191406 450.449219 100.707031 416.808594 88.289062 376.980469 C 85.527344 368.128906 82.398438 356.929688 82.683594 347.613281 C 83.105469 333.511719 90.878906 330.863281 100.480469 330.863281 C 103.566406 330.863281 106.851562 331.132812 110.136719 331.386719 C 110.53125 331.414062 110.941406 331.484375 111.339844 331.515625 C 118.164062 367.25 131.375 407.121094 159 431.449219 C 169.886719 441.035156 183.605469 445.605469 196.957031 445.605469 C 214.871094 445.605469 232.15625 437.394531 241.164062 422.046875 C 254.839844 425.457031 268.984375 427.199219 283.386719 427.199219 C 288.242188 427.199219 293.140625 427.003906 298.054688 426.605469 C 305.035156 426.039062 303.050781 415.605469 296.367188 415.605469 C 296.199219 415.605469 296.015625 415.617188 295.832031 415.632812 C 291.511719 415.988281 287.222656 416.15625 282.945312 416.15625 C 270.21875 416.15625 257.714844 414.628906 245.609375 411.695312 C 246.925781 407.179688 247.660156 402.253906 247.648438 396.898438 C 247.5625 371.695312 224.808594 353.660156 205.636719 341.140625 C 182.957031 326.332031 157.34375 316.363281 130.707031 311.59375 C 128.046875 283.910156 129.25 255.636719 130.878906 227.984375 C 131.800781 212.394531 133.058594 196.804688 135.113281 181.332031 C 135.960938 174.902344 136.65625 168.175781 138.523438 161.945312 C 140.675781 154.808594 143.976562 152.050781 147.5 152.050781 C 153.574219 152.050781 160.328125 160.21875 163.160156 168.390625 C 170.609375 189.953125 169.433594 215.339844 170 237.851562 C 170.425781 254.617188 170.59375 271.394531 170.453125 288.160156 C 170.382812 295.71875 176.542969 299.769531 182.402344 299.769531 C 187.640625 299.769531 192.65625 296.542969 192.796875 289.703125 C 193.6875 248.160156 193.644531 205.964844 198.472656 164.664062 C 199.324219 157.402344 199.519531 148.550781 203.9375 142.464844 C 206.726562 138.625 209.179688 137.097656 211.300781 137.097656 L 211.316406 137.082031 M 211.570312 112.871094 C 203.910156 112.871094 196.238281 116.609375 189.78125 123.632812 C 184.171875 129.75 180.519531 137.648438 178.097656 146.429688 C 173.398438 138.996094 166.984375 133.046875 157.949219 129.863281 C 153.53125 128.304688 149.539062 127.597656 145.929688 127.597656 C 115.078125 127.597656 112.332031 179.84375 110.25 203.050781 C 107.148438 237.78125 105.167969 273.574219 107.996094 308.5625 C 105.449219 308.378906 102.886719 308.277344 100.324219 308.277344 C 84.933594 308.277344 69.953125 312.171875 63.511719 327.664062 C 54.390625 349.539062 64.175781 379.203125 72.984375 399.703125 C 99.503906 461.4375 171.925781 513.160156 240.101562 513.160156 C 272.738281 513.160156 304.382812 501.308594 329.570312 473.03125 C 363.070312 435.414062 373.179688 383.164062 376.183594 334.375 C 379.3125 283.570312 377.851562 230.207031 366.441406 180.425781 C 362.492188 163.136719 356.855469 134.691406 334.613281 134.691406 C 333.777344 134.691406 332.914062 134.734375 332.019531 134.816406 C 319.632812 135.980469 311.363281 143.949219 305.984375 154.03125 C 302.910156 142.789062 298.351562 132.539062 291.242188 124.949219 C 285.949219 119.300781 279.449219 116.566406 272.921875 116.566406 C 266.296875 116.566406 259.625 119.382812 254.160156 124.835938 C 248.640625 130.34375 245 137.152344 242.453125 144.445312 C 240.398438 136.488281 237.15625 128.929688 231.648438 122.753906 C 225.644531 116.042969 218.609375 112.871094 211.554688 112.871094 L 211.570312 112.871094 " clip-rule="nonzero"/></clipPath></defs><g clip-path="url(#690458e9bb)"><g clip-path="url(#41eedf9ffc)"><path fill="#ff6b10" d="M 54.390625 108.78125 L 379.339844 108.78125 L 379.339844 558.328125 L 54.390625 558.328125 Z M 54.390625 108.78125 " fill-opacity="1" fill-rule="nonzero"/></g></g><g fill="#000000" fill-opacity="1"><g transform="translate(454.085275, 350.083373)"><g><path d="M 11.199219 29.566406 L 23.144531 29.566406 L 23.144531 -0.148438 C 23.144531 -3.582031 22.847656 -11.347656 22.699219 -16.277344 L 22.847656 -16.277344 C 25.984375 -6.273438 36.433594 1.195312 52.113281 1.195312 C 73.765625 1.195312 87.054688 -14.1875 87.054688 -38.078125 C 87.054688 -60.625 73.914062 -74.960938 52.414062 -74.960938 C 36.433594 -74.960938 25.984375 -67.046875 22.996094 -54.800781 L 22.847656 -54.800781 L 23.144531 -73.765625 L 11.199219 -73.765625 Z M 50.472656 -9.558594 C 33.746094 -9.558594 23.144531 -18.515625 23.144531 -32.554688 L 23.144531 -37.03125 C 23.445312 -53.609375 34.046875 -64.210938 50.171875 -64.210938 C 65.703125 -64.210938 75.109375 -53.90625 75.109375 -37.929688 C 75.109375 -20.605469 65.554688 -9.558594 50.472656 -9.558594 Z M 50.472656 -9.558594 "/></g></g></g><g fill="#000000" fill-opacity="1"><g transform="translate(548.606289, 350.083373)"><g><path d="M 11.199219 0 L 23.144531 0 L 23.144531 -103.480469 L 11.199219 -103.480469 Z M 11.199219 0 "/></g></g></g><g fill="#000000" fill-opacity="1"><g transform="translate(582.950421, 350.083373)"><g><path d="M 34.792969 1.195312 C 53.160156 1.195312 62.417969 -6.121094 64.957031 -17.472656 L 65.105469 -17.472656 C 64.957031 -10.304688 64.65625 -3.433594 64.507812 0 L 76.453125 0 L 76.453125 -44.945312 C 76.453125 -64.210938 63.910156 -74.960938 42.257812 -74.960938 C 22.25 -74.960938 9.707031 -66.152344 9.707031 -51.515625 C 9.707031 -50.171875 9.855469 -48.082031 10.003906 -47.039062 L 21.054688 -47.039062 C 20.90625 -48.230469 20.90625 -49.277344 20.90625 -49.726562 C 20.90625 -59.730469 28.371094 -64.808594 41.960938 -64.808594 C 57.042969 -64.808594 64.507812 -58.683594 64.507812 -45.992188 L 64.507812 -40.617188 L 34.492188 -40.617188 C 14.78125 -40.617188 7.464844 -31.65625 7.464844 -21.203125 C 7.464844 -7.316406 18.066406 1.195312 34.792969 1.195312 Z M 37.183594 -8.960938 C 25.535156 -8.960938 18.664062 -13.738281 18.664062 -21.203125 C 18.664062 -28.371094 23.445312 -31.957031 35.539062 -31.957031 L 64.507812 -31.957031 L 64.507812 -30.910156 C 64.507812 -17.472656 53.90625 -8.960938 37.183594 -8.960938 Z M 37.183594 -8.960938 "/></g></g></g><g fill="#000000" fill-opacity="1"><g transform="translate(669.109387, 350.083373)"><g><path d="M 39.71875 0.597656 C 45.691406 0.597656 50.023438 -0.296875 52.261719 -1.195312 L 52.261719 -11.347656 C 50.621094 -10.75 45.84375 -9.855469 40.765625 -9.855469 C 29.714844 -9.855469 26.132812 -16.574219 26.132812 -27.773438 L 26.132812 -63.3125 L 52.859375 -63.3125 L 52.859375 -73.765625 L 26.132812 -73.765625 L 26.132812 -90.492188 L 15.976562 -90.492188 L 15.378906 -78.84375 C 15.082031 -74.960938 14.1875 -73.765625 11.796875 -73.765625 L 1.941406 -73.765625 L 1.941406 -63.3125 L 14.1875 -63.3125 L 14.1875 -27.027344 C 14.1875 -10.75 21.800781 0.597656 39.71875 0.597656 Z M 39.71875 0.597656 "/></g></g></g><g fill="#000000" fill-opacity="1"><g transform="translate(727.793049, 350.083373)"><g><path d="M 14.335938 0 L 26.28125 0 L 26.28125 -63.3125 L 53.757812 -63.3125 L 53.757812 -73.765625 L 26.28125 -73.765625 L 26.28125 -81.082031 C 26.28125 -90.492188 31.65625 -95.71875 41.0625 -95.71875 C 46.140625 -95.71875 49.875 -94.820312 52.5625 -93.925781 L 52.5625 -104.527344 C 49.875 -105.421875 45.246094 -106.46875 39.570312 -106.46875 C 24.191406 -106.46875 14.335938 -97.210938 14.335938 -81.082031 L 14.335938 -73.765625 L 1.941406 -73.765625 L 1.941406 -63.3125 L 14.335938 -63.3125 Z M 14.335938 0 "/></g></g></g><g fill="#000000" fill-opacity="1"><g transform="translate(786.327402, 350.083373)"><g><path d="M 44.796875 1.195312 C 67.644531 1.195312 82.128906 -13.589844 82.128906 -36.734375 C 82.128906 -60.027344 67.644531 -74.960938 44.796875 -74.960938 C 21.949219 -74.960938 7.464844 -60.027344 7.464844 -36.734375 C 7.464844 -13.589844 21.949219 1.195312 44.796875 1.195312 Z M 44.796875 -9.558594 C 29.269531 -9.558594 19.414062 -20.160156 19.414062 -36.734375 C 19.414062 -53.457031 29.269531 -64.210938 44.796875 -64.210938 C 60.328125 -64.210938 70.183594 -53.457031 70.183594 -36.734375 C 70.183594 -20.160156 60.328125 -9.558594 44.796875 -9.558594 Z M 44.796875 -9.558594 "/></g></g></g><g fill="#000000" fill-opacity="1"><g transform="translate(875.920793, 350.083373)"><g><path d="M 10.453125 0 L 22.398438 0 L 22.398438 -32.703125 C 22.398438 -51.070312 31.207031 -64.210938 46.289062 -64.210938 C 58.386719 -64.210938 63.464844 -57.191406 63.464844 -43.601562 C 63.464844 -38.972656 63.164062 -35.242188 62.867188 -33 L 73.765625 -33 C 74.066406 -35.6875 74.511719 -41.0625 74.511719 -46.140625 C 74.511719 -63.910156 65.703125 -74.960938 49.128906 -74.960938 C 33.300781 -74.960938 25.683594 -65.253906 22.25 -52.414062 L 22.101562 -52.414062 L 22.398438 -73.765625 L 10.453125 -73.765625 Z M 10.453125 0 "/></g></g></g><g fill="#000000" fill-opacity="1"><g transform="translate(957.898763, 350.083373)"><g><path d="M 10.453125 0 L 22.398438 0 L 22.398438 -36.585938 C 22.398438 -54.054688 31.058594 -64.210938 44.648438 -64.210938 C 56.445312 -64.210938 62.566406 -56.59375 62.566406 -44.648438 L 62.566406 0 L 74.511719 0 L 74.511719 -37.183594 C 74.511719 -54.203125 83.171875 -64.210938 96.761719 -64.210938 C 108.558594 -64.210938 114.53125 -56.445312 114.53125 -44.199219 L 114.53125 0 L 126.476562 0 L 126.476562 -46.738281 C 126.476562 -63.910156 116.773438 -74.960938 100.046875 -74.960938 C 86.160156 -74.960938 76.601562 -67.34375 74.066406 -55.546875 L 73.914062 -55.546875 C 72.125 -67.34375 62.566406 -74.960938 48.082031 -74.960938 C 34.792969 -74.960938 25.386719 -66.898438 22.25 -54.203125 L 22.101562 -54.203125 L 22.398438 -73.765625 L 10.453125 -73.765625 Z M 10.453125 0 "/></g></g></g><g fill="#000000" fill-opacity="1"><g transform="translate(1094.080678, 350.083373)"><g><path d="M 11.199219 0 L 23.144531 0 L 23.144531 -103.480469 L 11.199219 -103.480469 Z M 11.199219 0 "/></g></g></g><g fill="#000000" fill-opacity="1"><g transform="translate(1128.424822, 350.083373)"><g><path d="M 22.847656 31.058594 C 36.882812 31.058594 42.558594 24.191406 51.367188 1.34375 L 80.636719 -73.765625 L 68.539062 -73.765625 L 44.796875 -12.09375 L 44.5 -12.09375 L 17.621094 -73.765625 L 3.582031 -73.765625 L 36.734375 0 L 39.871094 0 C 33 16.722656 29.417969 20.605469 21.351562 20.605469 C 17.621094 20.605469 14.035156 19.710938 12.246094 19.113281 L 12.246094 29.117188 C 14.335938 30.015625 18.664062 31.058594 22.847656 31.058594 Z M 22.847656 31.058594 "/></g></g></g><g fill="#000000" fill-opacity="1"><g transform="translate(975.189985, 427.207676)"><g><path d="M 11.023438 0.246094 C 15.296875 0.246094 18.054688 -2.941406 18.054688 -7.925781 C 18.054688 -12.574219 15.359375 -15.546875 10.960938 -15.546875 C 7.679688 -15.546875 5.449219 -13.964844 4.769531 -11.519531 L 4.738281 -11.519531 C 4.769531 -12.261719 4.800781 -13.5 4.800781 -14.121094 L 4.800781 -21.460938 L 2.324219 -21.460938 L 2.324219 0 L 4.800781 0 C 4.738281 -0.804688 4.675781 -2.324219 4.675781 -3.53125 L 4.707031 -3.53125 C 5.355469 -1.238281 7.554688 0.246094 11.023438 0.246094 Z M 10.40625 -1.980469 C 7 -1.980469 4.800781 -3.871094 4.800781 -6.8125 L 4.800781 -7.617188 C 4.800781 -11.085938 7.03125 -13.316406 10.496094 -13.316406 C 13.65625 -13.316406 15.574219 -11.179688 15.574219 -7.867188 C 15.574219 -4.273438 13.5625 -1.980469 10.40625 -1.980469 Z M 10.40625 -1.980469 "/></g></g></g><g fill="#000000" fill-opacity="1"><g transform="translate(994.790804, 427.207676)"><g><path d="M 4.738281 6.441406 C 7.648438 6.441406 8.824219 5.015625 10.652344 0.277344 L 16.722656 -15.296875 L 14.214844 -15.296875 L 9.289062 -2.507812 L 9.226562 -2.507812 L 3.652344 -15.296875 L 0.742188 -15.296875 L 7.617188 0 L 8.269531 0 C 6.84375 3.46875 6.101562 4.273438 4.429688 4.273438 C 3.652344 4.273438 2.910156 4.085938 2.539062 3.964844 L 2.539062 6.039062 C 2.972656 6.222656 3.871094 6.441406 4.738281 6.441406 Z M 4.738281 6.441406 "/></g></g></g><g fill="#000000" fill-opacity="1"><g transform="translate(1012.255035, 427.207676)"><g/></g></g><g fill="#000000" fill-opacity="1"><g transform="translate(1019.37697, 427.207676)"><g><path d="M 2.476562 0 L 4.953125 0 L 4.894531 -18.609375 L 4.953125 -18.609375 L 12.015625 0 L 14.121094 0 L 21.179688 -18.609375 L 21.242188 -18.609375 L 21.179688 0 L 23.8125 0 L 23.8125 -20.375 L 19.570312 -20.375 L 13.160156 -3.5 L 13.128906 -3.5 L 6.8125 -20.375 L 2.476562 -20.375 Z M 2.476562 0 "/></g></g></g><g fill="#000000" fill-opacity="1"><g transform="translate(1045.666212, 427.207676)"><g><path d="M 16.007812 -8.300781 C 16.007812 -12.851562 13.4375 -15.546875 9.074219 -15.546875 C 4.488281 -15.546875 1.546875 -12.417969 1.546875 -7.523438 C 1.546875 -2.785156 4.519531 0.246094 9.136719 0.246094 C 13.160156 0.246094 15.855469 -1.859375 16.007812 -5.171875 L 13.71875 -5.171875 C 13.5 -3.160156 11.734375 -1.859375 9.167969 -1.859375 C 6.164062 -1.859375 4.179688 -3.902344 4.027344 -7.152344 L 16.007812 -7.152344 Z M 13.71875 -8.949219 L 4.117188 -8.949219 C 4.582031 -11.859375 6.410156 -13.4375 9.136719 -13.4375 C 12.046875 -13.4375 13.71875 -11.828125 13.71875 -9.136719 Z M 13.71875 -8.949219 "/></g></g></g><g fill="#000000" fill-opacity="1"><g transform="translate(1063.223344, 427.207676)"><g><path d="M 8.238281 0.125 C 9.476562 0.125 10.375 -0.0625 10.839844 -0.246094 L 10.839844 -2.351562 C 10.496094 -2.230469 9.507812 -2.042969 8.453125 -2.042969 C 6.164062 -2.042969 5.417969 -3.4375 5.417969 -5.757812 L 5.417969 -13.128906 L 10.960938 -13.128906 L 10.960938 -15.296875 L 5.417969 -15.296875 L 5.417969 -18.765625 L 3.3125 -18.765625 L 3.191406 -16.351562 C 3.128906 -15.546875 2.941406 -15.296875 2.445312 -15.296875 L 0.402344 -15.296875 L 0.402344 -13.128906 L 2.941406 -13.128906 L 2.941406 -5.605469 C 2.941406 -2.230469 4.519531 0.125 8.238281 0.125 Z M 8.238281 0.125 "/></g></g></g><g fill="#000000" fill-opacity="1"><g transform="translate(1075.392566, 427.207676)"><g><path d="M 7.214844 0.246094 C 11.023438 0.246094 12.945312 -1.269531 13.46875 -3.625 L 13.5 -3.625 C 13.46875 -2.136719 13.410156 -0.710938 13.378906 0 L 15.855469 0 L 15.855469 -9.320312 C 15.855469 -13.316406 13.253906 -15.546875 8.761719 -15.546875 C 4.613281 -15.546875 2.011719 -13.71875 2.011719 -10.683594 C 2.011719 -10.40625 2.042969 -9.972656 2.074219 -9.753906 L 4.367188 -9.753906 C 4.335938 -10.003906 4.335938 -10.21875 4.335938 -10.3125 C 4.335938 -12.386719 5.882812 -13.4375 8.703125 -13.4375 C 11.828125 -13.4375 13.378906 -12.167969 13.378906 -9.539062 L 13.378906 -8.421875 L 7.152344 -8.421875 C 3.066406 -8.421875 1.546875 -6.566406 1.546875 -4.398438 C 1.546875 -1.515625 3.746094 0.246094 7.214844 0.246094 Z M 7.710938 -1.859375 C 5.296875 -1.859375 3.871094 -2.847656 3.871094 -4.398438 C 3.871094 -5.882812 4.863281 -6.625 7.371094 -6.625 L 13.378906 -6.625 L 13.378906 -6.410156 C 13.378906 -3.625 11.179688 -1.859375 7.710938 -1.859375 Z M 7.710938 -1.859375 "/></g></g></g><g fill="#000000" fill-opacity="1"><g transform="translate(1093.259338, 427.207676)"><g><path d="M 2.476562 0 L 5.078125 0 L 5.078125 -6.71875 L 11.085938 -6.71875 C 15.636719 -6.71875 18.394531 -9.167969 18.394531 -13.5 C 18.394531 -17.742188 15.515625 -20.375 10.589844 -20.375 L 2.476562 -20.375 Z M 5.078125 -8.703125 L 5.078125 -18.023438 L 10.496094 -18.023438 C 13.933594 -18.023438 15.855469 -16.382812 15.855469 -13.347656 C 15.855469 -10.25 13.996094 -8.703125 10.871094 -8.703125 Z M 5.078125 -8.703125 "/></g></g></g><g fill="#000000" fill-opacity="1"><g transform="translate(1113.169797, 427.207676)"><g><path d="M 2.167969 0 L 4.644531 0 L 4.644531 -6.78125 C 4.644531 -10.589844 6.472656 -13.316406 9.597656 -13.316406 C 12.109375 -13.316406 13.160156 -11.859375 13.160156 -9.042969 C 13.160156 -8.082031 13.097656 -7.308594 13.035156 -6.84375 L 15.296875 -6.84375 C 15.359375 -7.402344 15.453125 -8.515625 15.453125 -9.570312 C 15.453125 -13.253906 13.625 -15.546875 10.1875 -15.546875 C 6.90625 -15.546875 5.328125 -13.53125 4.613281 -10.871094 L 4.582031 -10.871094 L 4.644531 -15.296875 L 2.167969 -15.296875 Z M 2.167969 0 "/></g></g></g><g fill="#000000" fill-opacity="1"><g transform="translate(1130.169556, 427.207676)"><g><path d="M 9.289062 0.246094 C 14.027344 0.246094 17.03125 -2.816406 17.03125 -7.617188 C 17.03125 -12.449219 14.027344 -15.546875 9.289062 -15.546875 C 4.550781 -15.546875 1.546875 -12.449219 1.546875 -7.617188 C 1.546875 -2.816406 4.550781 0.246094 9.289062 0.246094 Z M 9.289062 -1.980469 C 6.070312 -1.980469 4.027344 -4.179688 4.027344 -7.617188 C 4.027344 -11.085938 6.070312 -13.316406 9.289062 -13.316406 C 12.511719 -13.316406 14.554688 -11.085938 14.554688 -7.617188 C 14.554688 -4.179688 12.511719 -1.980469 9.289062 -1.980469 Z M 9.289062 -1.980469 "/></g></g></g><g fill="#000000" fill-opacity="1"><g transform="translate(1148.748532, 427.207676)"><g><path d="M 7.585938 0 L 10.558594 0 L 17.402344 -15.296875 L 14.738281 -15.296875 L 9.226562 -2.382812 L 9.136719 -2.382812 L 3.652344 -15.296875 L 0.742188 -15.296875 Z M 7.585938 0 "/></g></g></g><g fill="#000000" fill-opacity="1"><g transform="translate(1166.893996, 427.207676)"><g><path d="M 2.230469 -17.25 L 4.894531 -17.25 L 4.894531 -20.375 L 2.230469 -20.375 Z M 2.324219 0 L 4.800781 0 L 4.800781 -15.296875 L 2.324219 -15.296875 Z M 2.324219 0 "/></g></g></g><g fill="#000000" fill-opacity="1"><g transform="translate(1174.015919, 427.207676)"><g><path d="M 8.824219 0.246094 C 12.230469 0.246094 14.277344 -1.457031 14.863281 -4.085938 L 14.925781 -4.085938 C 14.894531 -2.726562 14.863281 -1.363281 14.769531 0 L 17.25 0 L 17.25 -21.460938 L 14.769531 -21.460938 L 14.769531 -12.230469 L 14.738281 -12.230469 C 14.183594 -14.246094 12.230469 -15.546875 9.042969 -15.546875 C 4.398438 -15.546875 1.546875 -12.292969 1.546875 -7.742188 C 1.546875 -2.972656 4.398438 0.246094 8.824219 0.246094 Z M 9.226562 -1.980469 C 6.070312 -1.980469 4.027344 -4.335938 4.027344 -7.742188 C 4.027344 -10.929688 6.070312 -13.316406 9.257812 -13.316406 C 12.632812 -13.316406 14.769531 -11.332031 14.769531 -8.238281 L 14.769531 -7.460938 C 14.769531 -4.117188 12.601562 -1.980469 9.226562 -1.980469 Z M 9.226562 -1.980469 "/></g></g></g><g fill="#000000" fill-opacity="1"><g transform="translate(1193.585768, 427.207676)"><g><path d="M 16.007812 -8.300781 C 16.007812 -12.851562 13.4375 -15.546875 9.074219 -15.546875 C 4.488281 -15.546875 1.546875 -12.417969 1.546875 -7.523438 C 1.546875 -2.785156 4.519531 0.246094 9.136719 0.246094 C 13.160156 0.246094 15.855469 -1.859375 16.007812 -5.171875 L 13.71875 -5.171875 C 13.5 -3.160156 11.734375 -1.859375 9.167969 -1.859375 C 6.164062 -1.859375 4.179688 -3.902344 4.027344 -7.152344 L 16.007812 -7.152344 Z M 13.71875 -8.949219 L 4.117188 -8.949219 C 4.582031 -11.859375 6.410156 -13.4375 9.136719 -13.4375 C 12.046875 -13.4375 13.71875 -11.828125 13.71875 -9.136719 Z M 13.71875 -8.949219 "/></g></g></g></svg>