<svg xmlns="http://www.w3.org/2000/svg" xmlns:xlink="http://www.w3.org/1999/xlink" width="3779" zoomAndPan="magnify" viewBox="0 0 2835 4535.249943" height="6047" preserveAspectRatio="xMidYMid meet" version="1.0"><defs><clipPath id="23526c2d1f"><path d="M 893.675781 283.417969 L 1941.253906 283.417969 L 1941.253906 1332 L 893.675781 1332 Z M 893.675781 283.417969 " clip-rule="nonzero"/></clipPath><clipPath id="a806115ac9"><path d="M 1659 929 L 1941.253906 929 L 1941.253906 1174 L 1659 1174 Z M 1659 929 " clip-rule="nonzero"/></clipPath><clipPath id="ab1134f21f"><path d="M 1165 1613 L 1674 1613 L 1674 4251.011719 L 1165 4251.011719 Z M 1165 1613 " clip-rule="nonzero"/></clipPath></defs><g clip-path="url(#23526c2d1f)"><path fill="#fe7900" d="M 1316.460938 283.417969 L 1034.617188 283.417969 L 893.691406 527.742188 L 1034.628906 772.0625 L 1316.507812 772.0625 L 1457.394531 527.742188 Z M 1457.394531 1086.867188 L 1316.46875 842.542969 L 1034.628906 842.542969 L 893.691406 1086.867188 L 1034.628906 1331.191406 L 1316.515625 1331.191406 Z M 1659.132812 1051.457031 L 1729.832031 929.378906 L 1870.738281 929.257812 L 1941.238281 807.304688 L 1800.304688 563.148438 L 1518.460938 563.148438 L 1377.535156 807.304688 L 1518.460938 1051.457031 Z M 1659.132812 1051.457031 " fill-opacity="1" fill-rule="nonzero"/></g><g clip-path="url(#a806115ac9)"><path fill="#fe7900" d="M 1659.132812 1051.457031 L 1729.878906 1173.535156 L 1870.777344 1173.535156 L 1941.238281 1051.644531 L 1870.738281 929.257812 L 1800.433594 1051.644531 Z M 1659.132812 1051.457031 " fill-opacity="1" fill-rule="nonzero"/></g><g clip-path="url(#ab1134f21f)"><path fill="#fe7900" d="M 1658.691406 2553.308594 L 1242.511719 2493.578125 C 1241.824219 2493.484375 1241.835938 2492.488281 1242.519531 2492.40625 L 1658.671875 2439.921875 C 1658.820312 2439.902344 1658.945312 2439.835938 1659.042969 2439.722656 C 1659.144531 2439.609375 1659.191406 2439.480469 1659.191406 2439.328125 L 1659.191406 2290.472656 C 1659.1875 2290.320312 1659.140625 2290.191406 1659.042969 2290.078125 C 1658.945312 2289.96875 1658.820312 2289.898438 1658.671875 2289.878906 L 1242.484375 2237.394531 C 1241.796875 2237.3125 1241.789062 2236.316406 1242.472656 2236.222656 L 1658.683594 2176.492188 C 1658.828125 2176.472656 1658.949219 2176.40625 1659.046875 2176.292969 C 1659.144531 2176.179688 1659.191406 2176.050781 1659.191406 2175.902344 L 1659.191406 2085.15625 C 1659.191406 2084.972656 1659.121094 2084.824219 1658.980469 2084.703125 C 1658.84375 2084.585938 1658.683594 2084.542969 1658.503906 2084.570312 L 1176.925781 2160.320312 C 1176.632812 2160.367188 1176.425781 2160.613281 1176.425781 2160.902344 L 1176.425781 2309.527344 C 1176.425781 2309.828125 1176.652344 2310.082031 1176.945312 2310.121094 L 1592.355469 2364.324219 C 1593.039062 2364.417969 1593.039062 2365.414062 1592.355469 2365.496094 L 1176.945312 2419.691406 C 1176.652344 2419.726562 1176.425781 2419.980469 1176.425781 2420.28125 L 1176.425781 2568.90625 C 1176.425781 2569.195312 1176.644531 2569.449219 1176.925781 2569.488281 L 1658.503906 2645.238281 C 1658.683594 2645.265625 1658.84375 2645.222656 1658.980469 2645.105469 C 1659.121094 2644.988281 1659.191406 2644.835938 1659.191406 2644.65625 L 1659.191406 2553.898438 C 1659.191406 2553.75 1659.140625 2553.621094 1659.046875 2553.507812 C 1658.949219 2553.398438 1658.828125 2553.328125 1658.683594 2553.308594 Z M 1636.125 4220.347656 C 1660.167969 4199.664062 1672.363281 4170.195312 1672.363281 4132.765625 C 1672.363281 4084.898438 1650.855469 4049.074219 1608.417969 4026.214844 L 1608.417969 4025.855469 C 1626.136719 4019.464844 1641 4008.941406 1652.671875 3994.515625 C 1665.730469 3978.335938 1672.351562 3957.773438 1672.351562 3933.398438 C 1672.351562 3910.542969 1666.679688 3890.351562 1655.480469 3873.386719 C 1646.035156 3859.085938 1632.160156 3847.582031 1614.121094 3839.109375 L 1658.589844 3839.109375 C 1658.753906 3839.109375 1658.890625 3839.050781 1659.007812 3838.933594 C 1659.121094 3838.820312 1659.179688 3838.679688 1659.179688 3838.515625 L 1659.179688 3749.921875 C 1659.179688 3749.757812 1659.121094 3749.617188 1659.007812 3749.5 C 1658.890625 3749.386719 1658.753906 3749.328125 1658.589844 3749.328125 L 1177.019531 3749.328125 C 1176.691406 3749.328125 1176.425781 3749.589844 1176.425781 3749.921875 L 1176.425781 3838.515625 C 1176.425781 3838.84375 1176.691406 3839.109375 1177.019531 3839.109375 L 1506.191406 3839.109375 C 1530.570312 3839.109375 1550.425781 3844.726562 1565.203125 3855.804688 C 1579.4375 3866.492188 1586.351562 3881.414062 1586.351562 3901.429688 C 1586.351562 3917.835938 1580.703125 3930.542969 1569.082031 3940.265625 C 1557.011719 3950.371094 1541.96875 3955.285156 1523.113281 3955.285156 L 1177.019531 3955.285156 C 1176.691406 3955.285156 1176.425781 3955.546875 1176.425781 3955.875 L 1176.425781 4044.472656 C 1176.425781 4044.800781 1176.691406 4045.0625 1177.019531 4045.0625 L 1500.554688 4045.0625 C 1530.382812 4045.0625 1552.5 4050.910156 1566.265625 4062.429688 C 1579.785156 4073.742188 1586.359375 4088.140625 1586.359375 4106.4375 C 1586.359375 4125.726562 1580.574219 4139.222656 1568.667969 4147.699219 C 1556.03125 4156.671875 1539.449219 4161.222656 1519.363281 4161.222656 L 1177.039062 4161.222656 C 1176.707031 4161.222656 1176.445312 4161.484375 1176.445312 4161.8125 L 1176.445312 4251.007812 L 1543.800781 4251.007812 C 1581.363281 4251.007812 1612.421875 4240.691406 1636.125 4220.335938 Z M 1228.945312 3181.933594 L 1166.28125 3125.804688 C 1166.15625 3125.695312 1166.089844 3125.558594 1166.078125 3125.394531 C 1166.066406 3125.230469 1166.117188 3125.082031 1166.222656 3124.960938 L 1251.886719 3026.09375 C 1252.078125 3025.871094 1252.097656 3025.636719 1251.953125 3025.386719 L 1182.910156 2907.144531 C 1171.523438 2887.214844 1165.828125 2866.332031 1165.828125 2843.5625 C 1165.828125 2810.34375 1178.15625 2779.984375 1201.878906 2753.410156 C 1226.550781 2727.78125 1256.914062 2714.496094 1293.910156 2714.496094 C 1338.5 2714.496094 1382.148438 2738.222656 1404.921875 2779.023438 L 1542.316406 3017.859375 C 1542.417969 3018.046875 1542.625 3018.160156 1542.84375 3018.160156 L 1573.207031 3018.160156 C 1573.371094 3018.160156 1573.515625 3018.101562 1573.632812 3017.984375 C 1573.75 3017.867188 1573.808594 3017.726562 1573.808594 3017.558594 L 1573.808594 2738.824219 C 1573.808594 2738.65625 1573.867188 2738.515625 1573.984375 2738.398438 C 1574.101562 2738.28125 1574.242188 2738.222656 1574.410156 2738.222656 L 1658.578125 2738.222656 C 1658.917969 2738.222656 1659.179688 2738.496094 1659.179688 2738.824219 L 1659.179688 3102.96875 C 1659.179688 3103.308594 1658.910156 3103.570312 1658.578125 3103.570312 L 1297.980469 3103.570312 C 1297.800781 3103.570312 1297.640625 3103.648438 1297.519531 3103.777344 L 1229.789062 3181.867188 C 1229.566406 3182.121094 1229.179688 3182.148438 1228.925781 3181.925781 Z M 1256.921875 2864.433594 L 1345.933594 3017.859375 C 1346.042969 3018.046875 1346.242188 3018.160156 1346.457031 3018.160156 L 1442.792969 3018.160156 C 1443.265625 3018.160156 1443.546875 3017.652344 1443.320312 3017.257812 L 1330.9375 2821.726562 C 1322.398438 2807.488281 1310.0625 2799.894531 1293.929688 2799.894531 C 1270.21875 2799.894531 1251.230469 2820.777344 1251.230469 2842.605469 C 1251.230469 2851.148438 1253.128906 2857.78125 1256.933594 2864.433594 Z M 1625.453125 3608.644531 C 1656.410156 3577.671875 1672.363281 3540.140625 1672.363281 3496.03125 C 1672.363281 3443.699219 1651.890625 3401.609375 1610.945312 3369.753906 C 1610.808594 3369.648438 1610.730469 3369.511719 1610.714844 3369.34375 C 1610.703125 3369.171875 1610.753906 3369.023438 1610.871094 3368.898438 L 1662.582031 3312.570312 C 1662.695312 3312.449219 1662.75 3312.308594 1662.742188 3312.140625 C 1662.734375 3311.976562 1662.667969 3311.835938 1662.542969 3311.726562 L 1600.574219 3256.21875 C 1600.449219 3256.109375 1600.308594 3256.058594 1600.140625 3256.066406 C 1599.976562 3256.074219 1599.839844 3256.140625 1599.730469 3256.265625 L 1527.125 3336.328125 C 1527.011719 3336.449219 1526.851562 3336.523438 1526.683594 3336.523438 L 1261.695312 3336.523438 C 1261.367188 3336.523438 1261.09375 3336.253906 1261.09375 3335.921875 L 1261.09375 3256.367188 C 1261.09375 3256.203125 1261.035156 3256.058594 1260.917969 3255.941406 C 1260.800781 3255.824219 1260.660156 3255.765625 1260.492188 3255.765625 L 1177.261719 3255.765625 C 1176.933594 3255.765625 1176.660156 3256.039062 1176.660156 3256.367188 L 1176.660156 3543.074219 C 1176.660156 3543.402344 1176.933594 3543.675781 1177.261719 3543.675781 L 1260.492188 3543.675781 C 1260.660156 3543.675781 1260.800781 3543.613281 1260.917969 3543.496094 C 1261.035156 3543.378906 1261.09375 3543.238281 1261.09375 3543.074219 L 1261.09375 3421.578125 C 1261.09375 3421.410156 1261.152344 3421.269531 1261.269531 3421.152344 C 1261.386719 3421.035156 1261.53125 3420.976562 1261.695312 3420.976562 L 1508.832031 3420.976562 C 1548.261719 3420.976562 1583.890625 3449.589844 1587.589844 3488.851562 C 1591.789062 3533.335938 1556.53125 3571.113281 1512.882812 3571.113281 L 1485.335938 3571.113281 C 1485.007812 3571.113281 1484.734375 3571.386719 1484.734375 3571.714844 L 1484.734375 3654.972656 C 1484.734375 3655.300781 1485.007812 3655.574219 1485.335938 3655.574219 L 1512.882812 3655.574219 C 1556.972656 3655.574219 1594.503906 3639.617188 1625.460938 3608.65625 Z M 1377.066406 1997.421875 C 1390.699219 1991.578125 1402.628906 1982.707031 1411.3125 1972.0625 C 1421.242188 1962.117188 1429.019531 1949.402344 1435.652344 1932.292969 C 1443.875 1914.8125 1448.667969 1898.585938 1451.917969 1886.398438 C 1456.136719 1870.5625 1460.570312 1853.496094 1464.214844 1834.347656 C 1471.695312 1796.917969 1481.011719 1769.179688 1491.902344 1751.925781 C 1502.546875 1735.074219 1516.574219 1726.535156 1533.625 1726.535156 C 1553.410156 1726.535156 1567.257812 1733.714844 1577.339844 1749.273438 C 1591.519531 1771.160156 1595.351562 1798.167969 1590.136719 1823.519531 C 1585.089844 1848.046875 1570.820312 1870.160156 1554.511719 1888.746094 C 1551.195312 1892.523438 1515.699219 1931.15625 1514.890625 1930.441406 L 1577.792969 1985.96875 C 1577.792969 1985.96875 1604.847656 1959.242188 1615.878906 1946.574219 C 1642.167969 1916.375 1664.367188 1880.457031 1670.746094 1840.003906 C 1677.085938 1799.8125 1671.019531 1754.085938 1652.285156 1717.859375 C 1647.09375 1707.828125 1640.917969 1698.441406 1633.765625 1689.699219 C 1607.386719 1657.445312 1572.746094 1641.105469 1530.789062 1641.105469 C 1488.832031 1641.105469 1455.742188 1654.910156 1435.230469 1683.242188 C 1415.296875 1709.824219 1399.839844 1748.0625 1389.300781 1796.917969 C 1380.121094 1840.089844 1370.726562 1871.445312 1361.300781 1890.324219 C 1353.609375 1908.292969 1341.289062 1917.023438 1323.65625 1917.023438 C 1300.929688 1917.023438 1283.726562 1907.859375 1272.492188 1889.703125 C 1247.179688 1848.816406 1248.308594 1792.011719 1272.039062 1750.675781 C 1282.28125 1732.847656 1297.132812 1718.085938 1310.316406 1702.46875 C 1320.535156 1690.488281 1331.511719 1679.152344 1342.230469 1667.613281 C 1342.351562 1667.484375 1342.472656 1667.351562 1342.71875 1667.164062 L 1277.628906 1613.113281 C 1277.433594 1612.953125 1253.023438 1639.535156 1250.910156 1641.855469 C 1217.613281 1678.394531 1190.050781 1717.777344 1179.867188 1766.949219 C 1176.273438 1784.578125 1174.503906 1802.382812 1174.558594 1820.375 C 1174.558594 1873.269531 1188.472656 1917.847656 1215.886719 1952.824219 C 1243.875 1989.511719 1282.675781 2008.117188 1331.191406 2008.117188 C 1347.226562 2008.117188 1363.164062 2004.386719 1377.058594 1997.433594 Z M 1377.066406 1997.421875 " fill-opacity="1" fill-rule="nonzero"/></g></svg>