<svg xmlns="http://www.w3.org/2000/svg" xmlns:xlink="http://www.w3.org/1999/xlink" width="3500" zoomAndPan="magnify" viewBox="0 0 2835 4535.249943" height="4000" preserveAspectRatio="xMidYMid meet" version="1.0"><defs><clipPath id="56a1ef0990"><path d="M 552.082031 1762 L 1103 1762 L 1103 2541 L 552.082031 2541 Z M 552.082031 1762 " clip-rule="nonzero"/></clipPath><clipPath id="85a3233b69"><path d="M 1732 1762 L 2282.796875 1762 L 2282.796875 2541 L 1732 2541 Z M 1732 1762 " clip-rule="nonzero"/></clipPath></defs><g clip-path="url(#56a1ef0990)"><path fill="#fab429" d="M 910.324219 1786.054688 C 798.0625 1906.921875 685.800781 2027.792969 573.539062 2148.660156 C 532.4375 2192.914062 554.183594 2253.261719 606.589844 2273.839844 C 745.007812 2328.191406 870.15625 2413 974.730469 2518.3125 C 1042.75 2586.808594 1148.679688 2480.902344 1080.648438 2412.394531 C 956.972656 2287.847656 809.503906 2193.441406 646.410156 2129.398438 L 679.457031 2254.578125 C 791.71875 2133.707031 903.980469 2012.839844 1016.242188 1891.972656 C 1081.78125 1821.410156 976.097656 1715.238281 910.324219 1786.054688 Z M 910.324219 1786.054688 " fill-opacity="1" fill-rule="nonzero"/></g><g clip-path="url(#85a3233b69)"><path fill="#fab429" d="M 1818.378906 1891.972656 C 1930.640625 2012.839844 2042.902344 2133.707031 2155.164062 2254.578125 C 2166.179688 2212.851562 2177.195312 2171.125 2188.210938 2129.398438 C 2025.121094 2193.441406 1877.648438 2287.847656 1753.972656 2412.394531 C 1685.972656 2480.871094 1791.839844 2586.839844 1859.890625 2518.3125 C 1964.464844 2412.996094 2089.613281 2328.191406 2228.03125 2273.839844 C 2280.4375 2253.261719 2302.183594 2192.914062 2261.082031 2148.660156 C 2148.820312 2027.792969 2036.558594 1906.921875 1924.296875 1786.054688 C 1858.554688 1715.269531 1752.8125 1821.378906 1818.378906 1891.972656 Z M 1818.378906 1891.972656 " fill-opacity="1" fill-rule="nonzero"/></g><path fill="#fab429" d="M 1291.761719 2737.824219 C 1439.023438 2360.671875 1586.28125 1983.515625 1733.539062 1606.359375 C 1748.257812 1568.667969 1717.359375 1524.15625 1681.230469 1514.230469 C 1638.8125 1502.574219 1603.871094 1528.710938 1589.101562 1566.539062 C 1441.84375 1943.695312 1294.582031 2320.851562 1147.324219 2698.003906 C 1132.609375 2735.695312 1163.503906 2780.207031 1199.632812 2790.136719 C 1242.050781 2801.789062 1276.992188 2775.652344 1291.761719 2737.824219 Z M 1291.761719 2737.824219 " fill-opacity="1" fill-rule="nonzero"/></svg>