<svg xmlns="http://www.w3.org/2000/svg" xmlns:xlink="http://www.w3.org/1999/xlink" width="1700" zoomAndPan="magnify" viewBox="0 0 1275.75 623.24998" height="831" preserveAspectRatio="xMidYMid meet" version="1.0"><defs><g/></defs><path fill="#1d1d1b" d="M 535.144531 320.1875 L 535.144531 318.839844 L 493.789062 318.839844 C 475.128906 318.839844 468.398438 325.386719 468.398438 335.59375 C 468.398438 347.53125 479.363281 354.851562 495.710938 354.851562 C 519.566406 354.851562 535.144531 341.757812 535.144531 320.1875 M 458.589844 335.59375 C 458.589844 322.113281 467.820312 310.945312 492.828125 310.945312 L 535.144531 310.945312 L 535.144531 302.085938 C 535.144531 284.175781 523.027344 274.742188 502.253906 274.742188 C 483.015625 274.742188 471.285156 282.636719 471.285156 296.886719 C 471.285156 298.234375 471.285156 299.96875 471.476562 301.316406 L 461.859375 301.316406 C 461.664062 300.160156 461.472656 297.464844 461.472656 295.539062 C 461.472656 276.859375 477.4375 265.691406 502.445312 265.691406 C 529.183594 265.691406 545.535156 279.171875 545.535156 302.855469 L 545.535156 362.359375 L 535.144531 362.359375 C 535.144531 356.96875 535.53125 346.761719 535.53125 337.710938 L 535.339844 337.710938 C 531.492188 353.695312 517.066406 363.902344 493.789062 363.902344 C 472.820312 363.902344 458.589844 353.117188 458.589844 335.59375 " fill-opacity="1" fill-rule="nonzero"/><path fill="#1d1d1b" d="M 652.671875 315.953125 L 652.671875 311.328125 C 652.671875 287.835938 637.863281 275.125 615.355469 275.125 C 593.234375 275.125 578.613281 291.300781 578.613281 313.640625 C 578.613281 338.480469 593.042969 354.464844 614.96875 354.464844 C 638.824219 354.464844 652.671875 336.75 652.671875 315.953125 M 568.226562 313.640625 C 568.226562 285.523438 586.308594 265.691406 614.585938 265.691406 C 634.976562 265.691406 648.25 273.777344 652.480469 288.414062 L 652.671875 288.414062 L 652.671875 228.910156 L 663.058594 228.910156 L 663.058594 362.359375 L 652.671875 362.359375 C 653.058594 353.117188 653.25 343.875 653.441406 334.628906 L 653.058594 334.628906 C 649.402344 351.578125 635.359375 363.902344 613.621094 363.902344 C 586.117188 363.902344 568.226562 344.453125 568.226562 313.640625 " fill-opacity="1" fill-rule="nonzero"/><path fill="#1d1d1b" d="M 691.132812 267.230469 L 701.519531 267.230469 L 701.136719 293.035156 L 701.328125 293.035156 C 705.367188 275.703125 718.449219 265.691406 735.375 265.691406 C 753.84375 265.691406 765.769531 275.320312 768.078125 291.496094 L 768.269531 291.496094 C 771.730469 275.511719 785.195312 265.691406 802.507812 265.691406 C 823.667969 265.691406 835.980469 279.171875 835.980469 302.664062 L 835.980469 362.359375 L 825.589844 362.359375 L 825.589844 304.589844 C 825.589844 285.71875 816.550781 275.125 800.007812 275.125 C 781.542969 275.125 768.652344 288.605469 768.652344 312.484375 L 768.652344 362.359375 L 758.265625 362.359375 L 758.265625 303.433594 C 758.265625 285.523438 749.226562 275.125 732.683594 275.125 C 714.410156 275.125 701.519531 288.992188 701.519531 313.257812 L 701.519531 362.359375 L 691.132812 362.359375 Z M 691.132812 267.230469 " fill-opacity="1" fill-rule="nonzero"/><path fill="#1d1d1b" d="M 862.898438 267.230469 L 873.285156 267.230469 L 873.285156 362.359375 L 862.898438 362.359375 Z M 862.320312 236.417969 L 873.671875 236.417969 L 873.671875 254.328125 L 862.320312 254.328125 Z M 862.320312 236.417969 " fill-opacity="1" fill-rule="nonzero"/><path fill="#1d1d1b" d="M 901.367188 267.230469 L 911.753906 267.230469 L 911.367188 293.613281 L 911.5625 293.613281 C 916.753906 276.28125 930.988281 265.691406 953.6875 265.691406 C 979.082031 265.691406 993.890625 279.554688 993.890625 303.433594 L 993.890625 362.359375 L 983.503906 362.359375 L 983.503906 305.359375 C 983.503906 286.101562 972.347656 275.125 950.609375 275.125 C 927.527344 275.125 911.753906 289.183594 911.753906 313.640625 L 911.753906 362.359375 L 901.367188 362.359375 Z M 901.367188 267.230469 " fill-opacity="1" fill-rule="nonzero"/><path fill="#1d1d1b" d="M 1020.8125 228.910156 L 1031.199219 228.910156 L 1031.199219 362.363281 L 1020.8125 362.363281 Z M 1020.8125 228.910156 " fill-opacity="1" fill-rule="nonzero"/><path fill="#1d1d1b" d="M 1061.203125 399.910156 L 1061.203125 391.054688 C 1063.511719 391.824219 1067.742188 392.980469 1071.976562 392.980469 C 1083.519531 392.980469 1088.136719 386.433594 1098.136719 362.359375 L 1094.675781 362.359375 L 1051.394531 267.230469 L 1063.703125 267.230469 L 1101.792969 352.152344 L 1102.175781 352.152344 L 1135.839844 267.230469 L 1146.609375 267.230469 L 1108.140625 363.707031 C 1096.597656 393.171875 1089.867188 402.222656 1073.128906 402.222656 C 1068.511719 402.222656 1063.703125 401.066406 1061.203125 399.910156 " fill-opacity="1" fill-rule="nonzero"/><path fill="#000a8b" d="M 221.214844 396.515625 C 206.578125 390.617188 192.757812 382.4375 180.171875 372.078125 C 174.859375 367.707031 168.902344 376.570312 174.164062 380.902344 C 187.105469 391.550781 201.246094 399.917969 216.207031 406.007812 C 204.464844 420.457031 182.183594 415.078125 170.175781 402.835938 C 151.71875 384.023438 142.171875 356.386719 136.542969 330.203125 C 152.296875 333.71875 167.59375 339.445312 181.617188 347.320312 C 198.519531 356.808594 227.84375 374.246094 221.214844 396.515625 M 340.394531 369.34375 C 333.6875 406.242188 317.570312 446.355469 283.628906 465.992188 C 247.796875 486.722656 201.914062 478.800781 167.296875 459.378906 C 132.976562 440.121094 103.941406 408.035156 92.113281 370.070312 C 89.484375 361.628906 86.507812 350.957031 86.777344 342.070312 C 87.316406 324.300781 100.066406 325.613281 112.925781 326.609375 C 113.308594 326.640625 113.691406 326.699219 114.074219 326.730469 C 120.574219 360.800781 133.148438 398.824219 159.460938 422.019531 C 183.742188 443.417969 222.734375 438.601562 237.71875 413.046875 C 255.136719 417.402344 273.359375 418.886719 291.898438 417.390625 C 298.714844 416.839844 296.558594 406.375 289.78125 406.925781 C 273.417969 408.246094 257.351562 406.902344 241.945312 403.167969 C 243.195312 398.859375 243.898438 394.164062 243.882812 389.058594 C 243.808594 365.023438 222.132812 347.832031 203.871094 335.898438 C 182.261719 321.773438 157.875 312.277344 132.503906 307.722656 C 129.964844 281.332031 131.113281 254.367188 132.671875 228.007812 C 133.554688 213.152344 134.75 198.285156 136.710938 183.527344 C 137.523438 177.398438 138.171875 170.988281 139.964844 165.050781 C 145.535156 146.554688 159.175781 158.855469 163.429688 171.1875 C 170.527344 191.753906 169.40625 215.957031 169.941406 237.421875 C 170.347656 253.402344 170.507812 269.402344 170.371094 285.386719 C 170.253906 299.035156 191.351562 300.667969 191.648438 286.859375 C 192.503906 247.25 192.460938 207.023438 197.054688 167.640625 C 197.863281 160.710938 198.0625 152.28125 202.261719 146.472656 C 212.144531 132.816406 217.648438 149.875 219.441406 158.511719 C 222.042969 171.023438 222.070312 184.359375 222.640625 197.074219 C 223.878906 224.730469 224.089844 252.445312 225.835938 280.078125 C 225.847656 280.277344 225.855469 280.476562 225.867188 280.675781 C 225.929688 281.628906 225.957031 282.582031 226.023438 283.535156 C 226.832031 295.433594 247.34375 294.171875 247.117188 282.152344 C 246.570312 253.527344 249.070312 224.632812 252.097656 196.195312 C 253.378906 184.164062 254.179688 171.414062 257.671875 159.773438 C 259.847656 152.507812 263.136719 141.390625 270.8125 146.054688 C 275.285156 148.773438 276.960938 159.898438 278.234375 164.78125 C 285.167969 191.371094 287.34375 219.917969 288.554688 248.09375 C 289.105469 260.988281 289.460938 273.804688 289.972656 286.320312 C 290.605469 299.859375 311.816406 301.554688 311.25 287.792969 C 310.398438 269.539062 310.09375 251.230469 310.28125 232.953125 C 310.414062 219.710938 310.753906 206.429688 312.03125 193.242188 C 312.855469 184.738281 319.351562 148.035156 331.257812 168.980469 C 337.875 180.625 338.808594 198.835938 340.742188 211.890625 C 343.59375 231.15625 345.136719 250.613281 345.765625 270.070312 C 346.835938 303.027344 346.304688 336.808594 340.394531 369.34375 M 357.035156 182.675781 C 353.125 165.574219 347.503906 137.011719 324.261719 139.1875 C 312.46875 140.292969 304.589844 147.894531 299.46875 157.507812 C 296.542969 146.785156 292.199219 137.015625 285.425781 129.78125 C 275.253906 118.914062 260.445312 119.359375 250.109375 129.667969 C 244.839844 134.917969 241.386719 141.417969 238.953125 148.371094 C 237.003906 140.777344 233.914062 133.570312 228.660156 127.695312 C 216.726562 114.367188 200.578125 115.664062 188.765625 128.535156 C 183.417969 134.359375 179.949219 141.902344 177.640625 150.261719 C 173.167969 143.175781 167.050781 137.503906 158.449219 134.46875 C 118.246094 120.273438 115.230469 179.535156 113.027344 204.238281 C 110.078125 237.351562 108.1875 271.488281 110.886719 304.847656 C 93.886719 303.640625 75.675781 305.828125 68.507812 323.058594 C 59.828125 343.917969 69.148438 372.195312 77.53125 391.742188 C 114.878906 478.761719 247.804688 544.949219 321.910156 461.660156 C 353.820312 425.796875 363.445312 375.976562 366.308594 329.457031 C 369.292969 281.011719 367.894531 230.144531 357.035156 182.675781 " fill-opacity="1" fill-rule="nonzero"/><g fill="#000000" fill-opacity="1"><g transform="translate(455.717749, 447.016942)"><g><path d="M 15.992188 0 L 24.878906 0 L 37.226562 -36.851562 L 37.507812 -36.851562 L 49.476562 0 L 58.644531 0 L 72.394531 -46.203125 L 65.191406 -46.203125 L 54.15625 -7.855469 L 53.96875 -7.855469 L 41.527344 -46.203125 L 34.140625 -46.203125 L 21.230469 -7.855469 L 21.042969 -7.855469 L 10.382812 -46.203125 L 2.246094 -46.203125 Z M 15.992188 0 "/></g></g></g><g fill="#000000" fill-opacity="1"><g transform="translate(552.335294, 447.016942)"><g><path d="M 48.355469 -25.066406 C 48.355469 -38.816406 40.59375 -46.953125 27.40625 -46.953125 C 13.5625 -46.953125 4.675781 -37.507812 4.675781 -22.726562 C 4.675781 -8.417969 13.65625 0.75 27.589844 0.75 C 39.75 0.75 47.886719 -5.613281 48.355469 -15.621094 L 41.433594 -15.621094 C 40.78125 -9.539062 35.449219 -5.613281 27.683594 -5.613281 C 18.613281 -5.613281 12.625 -11.785156 12.160156 -21.605469 L 48.355469 -21.605469 Z M 41.433594 -27.03125 L 12.441406 -27.03125 C 13.84375 -35.824219 19.359375 -40.59375 27.589844 -40.59375 C 36.382812 -40.59375 41.433594 -35.730469 41.433594 -27.589844 Z M 41.433594 -27.03125 "/></g></g></g><g fill="#000000" fill-opacity="1"><g transform="translate(627.347155, 447.016942)"><g><path d="M 7.015625 0 L 14.496094 0 L 14.496094 -64.816406 L 7.015625 -64.816406 Z M 7.015625 0 "/></g></g></g><g fill="#000000" fill-opacity="1"><g transform="translate(670.839062, 447.016942)"><g><path d="M 7.015625 0 L 14.496094 0 L 14.496094 -64.816406 L 7.015625 -64.816406 Z M 7.015625 0 "/></g></g></g><g fill="#000000" fill-opacity="1"><g transform="translate(714.330968, 447.016942)"><g><path d="M 6.546875 0 L 14.03125 0 L 14.03125 -22.726562 C 14.03125 -33.765625 20.855469 -40.21875 31.425781 -40.21875 C 41.339844 -40.21875 45.832031 -35.167969 45.832031 -27.3125 L 45.832031 0 L 53.3125 0 L 53.3125 -28.902344 C 53.3125 -39.9375 46.109375 -46.953125 33.953125 -46.953125 C 22.914062 -46.953125 16.460938 -41.808594 13.9375 -33.765625 L 13.84375 -33.765625 L 14.03125 -46.203125 L 6.546875 -46.203125 Z M 6.546875 0 "/></g></g></g><g fill="#000000" fill-opacity="1"><g transform="translate(795.70295, 447.016942)"><g><path d="M 48.355469 -25.066406 C 48.355469 -38.816406 40.59375 -46.953125 27.40625 -46.953125 C 13.5625 -46.953125 4.675781 -37.507812 4.675781 -22.726562 C 4.675781 -8.417969 13.65625 0.75 27.589844 0.75 C 39.75 0.75 47.886719 -5.613281 48.355469 -15.621094 L 41.433594 -15.621094 C 40.78125 -9.539062 35.449219 -5.613281 27.683594 -5.613281 C 18.613281 -5.613281 12.625 -11.785156 12.160156 -21.605469 L 48.355469 -21.605469 Z M 41.433594 -27.03125 L 12.441406 -27.03125 C 13.84375 -35.824219 19.359375 -40.59375 27.589844 -40.59375 C 36.382812 -40.59375 41.433594 -35.730469 41.433594 -27.589844 Z M 41.433594 -27.03125 "/></g></g></g><g fill="#000000" fill-opacity="1"><g transform="translate(870.71483, 447.016942)"><g><path d="M 25.066406 0.75 C 39.097656 0.75 46.578125 -4.675781 46.578125 -13.75 C 46.578125 -17.210938 45.082031 -20.765625 41.996094 -22.539062 C 38.816406 -24.316406 35.261719 -24.972656 28.058594 -25.722656 C 21.980469 -26.375 17.398438 -26.9375 15.152344 -27.871094 C 12.441406 -28.996094 12.160156 -31.238281 12.160156 -33.109375 C 12.160156 -37.691406 17.304688 -40.59375 25.253906 -40.59375 C 33.484375 -40.59375 37.597656 -37.414062 37.691406 -30.492188 L 44.613281 -30.492188 C 44.613281 -40.871094 38.816406 -46.953125 24.972656 -46.953125 C 12.625 -46.953125 4.675781 -41.339844 4.675781 -32.640625 C 4.675781 -29.273438 5.984375 -25.90625 8.511719 -24.039062 C 11.316406 -21.980469 15.898438 -21.042969 23.476562 -20.390625 C 29.183594 -19.828125 34.046875 -19.265625 36.195312 -18.238281 C 38.535156 -17.117188 39.097656 -15.339844 39.097656 -13.46875 C 39.097656 -8.511719 34.511719 -5.613281 24.972656 -5.613281 C 15.339844 -5.613281 11.597656 -9.257812 11.597656 -15.433594 L 4.675781 -15.433594 C 4.675781 -6.546875 9.539062 0.75 25.066406 0.75 Z M 25.066406 0.75 "/></g></g></g><g fill="#000000" fill-opacity="1"><g transform="translate(943.949647, 447.016942)"><g><path d="M 25.066406 0.75 C 39.097656 0.75 46.578125 -4.675781 46.578125 -13.75 C 46.578125 -17.210938 45.082031 -20.765625 41.996094 -22.539062 C 38.816406 -24.316406 35.261719 -24.972656 28.058594 -25.722656 C 21.980469 -26.375 17.398438 -26.9375 15.152344 -27.871094 C 12.441406 -28.996094 12.160156 -31.238281 12.160156 -33.109375 C 12.160156 -37.691406 17.304688 -40.59375 25.253906 -40.59375 C 33.484375 -40.59375 37.597656 -37.414062 37.691406 -30.492188 L 44.613281 -30.492188 C 44.613281 -40.871094 38.816406 -46.953125 24.972656 -46.953125 C 12.625 -46.953125 4.675781 -41.339844 4.675781 -32.640625 C 4.675781 -29.273438 5.984375 -25.90625 8.511719 -24.039062 C 11.316406 -21.980469 15.898438 -21.042969 23.476562 -20.390625 C 29.183594 -19.828125 34.046875 -19.265625 36.195312 -18.238281 C 38.535156 -17.117188 39.097656 -15.339844 39.097656 -13.46875 C 39.097656 -8.511719 34.511719 -5.613281 24.972656 -5.613281 C 15.339844 -5.613281 11.597656 -9.257812 11.597656 -15.433594 L 4.675781 -15.433594 C 4.675781 -6.546875 9.539062 0.75 25.066406 0.75 Z M 25.066406 0.75 "/></g></g></g></svg>