<svg xmlns="http://www.w3.org/2000/svg" xmlns:xlink="http://www.w3.org/1999/xlink" width="1700" zoomAndPan="magnify" viewBox="0 0 1275.75 623.24998" height="831" preserveAspectRatio="xMidYMid meet" version="1.0"><defs><g/></defs><path fill="#1d1d1b" d="M 535.144531 318.445312 L 535.144531 317.097656 L 493.789062 317.097656 C 475.128906 317.097656 468.398438 323.648438 468.398438 333.851562 C 468.398438 345.792969 479.363281 353.109375 495.710938 353.109375 C 519.566406 353.109375 535.144531 340.015625 535.144531 318.445312 M 458.589844 333.851562 C 458.589844 320.375 467.820312 309.203125 492.828125 309.203125 L 535.144531 309.203125 L 535.144531 300.34375 C 535.144531 282.4375 523.027344 273 502.253906 273 C 483.015625 273 471.285156 280.894531 471.285156 295.148438 C 471.285156 296.492188 471.285156 298.226562 471.476562 299.574219 L 461.859375 299.574219 C 461.664062 298.417969 461.472656 295.722656 461.472656 293.796875 C 461.472656 275.117188 477.4375 263.949219 502.445312 263.949219 C 529.183594 263.949219 545.535156 277.429688 545.535156 301.117188 L 545.535156 360.621094 L 535.144531 360.621094 C 535.144531 355.226562 535.53125 345.023438 535.53125 335.972656 L 535.339844 335.972656 C 531.492188 351.953125 517.066406 362.160156 493.789062 362.160156 C 472.820312 362.160156 458.589844 351.378906 458.589844 333.851562 " fill-opacity="1" fill-rule="nonzero"/><path fill="#1d1d1b" d="M 652.671875 314.210938 L 652.671875 309.589844 C 652.671875 286.09375 637.863281 273.382812 615.355469 273.382812 C 593.234375 273.382812 578.613281 289.5625 578.613281 311.898438 C 578.613281 336.742188 593.042969 352.722656 614.96875 352.722656 C 638.824219 352.722656 652.671875 335.007812 652.671875 314.210938 M 568.226562 311.898438 C 568.226562 283.78125 586.308594 263.949219 614.585938 263.949219 C 634.976562 263.949219 648.25 272.035156 652.480469 286.671875 L 652.671875 286.671875 L 652.671875 227.167969 L 663.058594 227.167969 L 663.058594 360.621094 L 652.671875 360.621094 C 653.058594 351.375 653.25 342.132812 653.441406 332.886719 L 653.058594 332.886719 C 649.402344 349.835938 635.359375 362.160156 613.621094 362.160156 C 586.117188 362.160156 568.226562 342.710938 568.226562 311.898438 " fill-opacity="1" fill-rule="nonzero"/><path fill="#1d1d1b" d="M 691.132812 265.488281 L 701.519531 265.488281 L 701.136719 291.292969 L 701.328125 291.292969 C 705.367188 273.964844 718.449219 263.949219 735.375 263.949219 C 753.84375 263.949219 765.769531 273.578125 768.078125 289.753906 L 768.269531 289.753906 C 771.730469 273.769531 785.195312 263.949219 802.507812 263.949219 C 823.667969 263.949219 835.980469 277.429688 835.980469 300.921875 L 835.980469 360.621094 L 825.589844 360.621094 L 825.589844 302.847656 C 825.589844 283.976562 816.550781 273.382812 800.007812 273.382812 C 781.542969 273.382812 768.652344 286.867188 768.652344 310.746094 L 768.652344 360.621094 L 758.265625 360.621094 L 758.265625 301.695312 C 758.265625 283.785156 749.226562 273.382812 732.683594 273.382812 C 714.410156 273.382812 701.519531 287.25 701.519531 311.515625 L 701.519531 360.621094 L 691.132812 360.621094 Z M 691.132812 265.488281 " fill-opacity="1" fill-rule="nonzero"/><path fill="#1d1d1b" d="M 862.898438 265.488281 L 873.285156 265.488281 L 873.285156 360.621094 L 862.898438 360.621094 Z M 862.320312 234.679688 L 873.671875 234.679688 L 873.671875 252.589844 L 862.320312 252.589844 Z M 862.320312 234.679688 " fill-opacity="1" fill-rule="nonzero"/><path fill="#1d1d1b" d="M 901.367188 265.488281 L 911.753906 265.488281 L 911.367188 291.871094 L 911.5625 291.871094 C 916.753906 274.539062 930.988281 263.949219 953.6875 263.949219 C 979.082031 263.949219 993.890625 277.8125 993.890625 301.695312 L 993.890625 360.621094 L 983.503906 360.621094 L 983.503906 303.617188 C 983.503906 284.363281 972.347656 273.382812 950.609375 273.382812 C 927.527344 273.382812 911.753906 287.441406 911.753906 311.898438 L 911.753906 360.621094 L 901.367188 360.621094 Z M 901.367188 265.488281 " fill-opacity="1" fill-rule="nonzero"/><path fill="#1d1d1b" d="M 1020.8125 227.167969 L 1031.199219 227.167969 L 1031.199219 360.621094 L 1020.8125 360.621094 Z M 1020.8125 227.167969 " fill-opacity="1" fill-rule="nonzero"/><path fill="#1d1d1b" d="M 1061.203125 398.171875 L 1061.203125 389.3125 C 1063.511719 390.082031 1067.742188 391.238281 1071.976562 391.238281 C 1083.519531 391.238281 1088.136719 384.691406 1098.136719 360.621094 L 1094.675781 360.621094 L 1051.394531 265.488281 L 1063.703125 265.488281 L 1101.792969 350.414062 L 1102.175781 350.414062 L 1135.839844 265.488281 L 1146.609375 265.488281 L 1108.140625 361.96875 C 1096.597656 391.429688 1089.867188 400.480469 1073.128906 400.480469 C 1068.511719 400.480469 1063.703125 399.328125 1061.203125 398.171875 " fill-opacity="1" fill-rule="nonzero"/><path fill="#0075ff" d="M 221.214844 394.773438 C 206.578125 388.875 192.757812 380.695312 180.171875 370.335938 C 174.859375 365.964844 168.902344 374.828125 174.164062 379.160156 C 187.105469 389.808594 201.246094 398.175781 216.207031 404.265625 C 204.464844 418.714844 182.183594 413.339844 170.175781 401.09375 C 151.71875 382.285156 142.171875 354.644531 136.542969 328.464844 C 152.296875 331.980469 167.59375 337.703125 181.617188 345.578125 C 198.519531 355.066406 227.84375 372.503906 221.214844 394.773438 M 340.394531 367.601562 C 333.6875 404.5 317.570312 444.617188 283.628906 464.25 C 247.796875 484.980469 201.914062 477.0625 167.296875 457.636719 C 132.976562 438.378906 103.941406 406.296875 92.113281 368.328125 C 89.484375 359.886719 86.507812 349.214844 86.777344 340.332031 C 87.316406 322.5625 100.066406 323.871094 112.925781 324.867188 C 113.308594 324.898438 113.691406 324.957031 114.074219 324.988281 C 120.574219 359.058594 133.148438 397.082031 159.460938 420.277344 C 183.742188 441.675781 222.734375 436.859375 237.71875 411.308594 C 255.136719 415.664062 273.359375 417.148438 291.898438 415.648438 C 298.714844 415.097656 296.558594 404.636719 289.78125 405.183594 C 273.417969 406.503906 257.351562 405.164062 241.945312 401.425781 C 243.195312 397.117188 243.898438 392.421875 243.882812 387.316406 C 243.808594 363.285156 222.132812 346.09375 203.871094 334.15625 C 182.261719 320.03125 157.875 310.535156 132.503906 305.980469 C 129.964844 279.589844 131.113281 252.625 132.671875 226.265625 C 133.554688 211.410156 134.75 196.542969 136.710938 181.785156 C 137.523438 175.65625 138.171875 169.246094 139.964844 163.308594 C 145.535156 144.8125 159.175781 157.113281 163.429688 169.445312 C 170.527344 190.011719 169.40625 214.214844 169.941406 235.679688 C 170.347656 251.660156 170.507812 267.660156 170.371094 283.644531 C 170.253906 297.296875 191.351562 298.925781 191.648438 285.121094 C 192.503906 245.511719 192.460938 205.28125 197.054688 165.902344 C 197.863281 158.96875 198.0625 150.542969 202.261719 144.730469 C 212.144531 131.074219 217.648438 148.132812 219.441406 156.769531 C 222.042969 169.28125 222.070312 182.617188 222.640625 195.332031 C 223.878906 222.988281 224.089844 250.703125 225.835938 278.335938 C 225.847656 278.535156 225.855469 278.734375 225.867188 278.933594 C 225.929688 279.886719 225.957031 280.839844 226.023438 281.792969 C 226.832031 293.691406 247.34375 292.433594 247.117188 280.410156 C 246.570312 251.785156 249.070312 222.890625 252.097656 194.453125 C 253.378906 182.421875 254.179688 169.671875 257.671875 158.03125 C 259.847656 150.765625 263.136719 139.648438 270.8125 144.3125 C 275.285156 147.03125 276.960938 158.15625 278.234375 163.042969 C 285.167969 189.628906 287.34375 218.175781 288.554688 246.351562 C 289.105469 259.246094 289.460938 272.066406 289.972656 284.578125 C 290.605469 298.117188 311.816406 299.8125 311.25 286.054688 C 310.398438 267.796875 310.09375 249.488281 310.28125 231.210938 C 310.414062 217.972656 310.753906 204.6875 312.03125 191.503906 C 312.855469 182.996094 319.351562 146.292969 331.257812 167.242188 C 337.875 178.882812 338.808594 197.09375 340.742188 210.148438 C 343.59375 229.414062 345.136719 248.871094 345.765625 268.328125 C 346.835938 301.285156 346.304688 335.066406 340.394531 367.601562 M 357.035156 180.933594 C 353.125 163.835938 347.503906 135.269531 324.261719 137.445312 C 312.46875 138.550781 304.589844 146.152344 299.46875 155.765625 C 296.542969 145.042969 292.199219 135.277344 285.425781 128.039062 C 275.253906 117.175781 260.445312 117.617188 250.109375 127.925781 C 244.839844 133.179688 241.386719 139.679688 238.953125 146.628906 C 237.003906 139.035156 233.914062 131.828125 228.660156 125.957031 C 216.726562 112.628906 200.578125 113.925781 188.765625 126.792969 C 183.417969 132.621094 179.949219 140.164062 177.640625 148.519531 C 173.167969 141.433594 167.050781 135.761719 158.449219 132.726562 C 118.246094 118.535156 115.230469 177.792969 113.027344 202.496094 C 110.078125 235.613281 108.1875 269.746094 110.886719 303.105469 C 93.886719 301.898438 75.675781 304.089844 68.507812 321.316406 C 59.828125 342.179688 69.148438 370.457031 77.53125 390 C 114.878906 477.023438 247.804688 543.207031 321.910156 459.917969 C 353.820312 424.054688 363.445312 374.234375 366.308594 327.714844 C 369.292969 279.273438 367.894531 228.402344 357.035156 180.933594 " fill-opacity="1" fill-rule="nonzero"/><g fill="#000000" fill-opacity="1"><g transform="translate(450.838661, 449.800108)"><g><path d="M 33.296875 0.75 C 46.203125 0.75 54.527344 -8.886719 54.527344 -23.945312 C 54.527344 -37.972656 46.390625 -46.953125 33.109375 -46.953125 C 23.195312 -46.953125 16.460938 -42.183594 14.402344 -34.792969 L 14.308594 -34.792969 C 14.402344 -37.039062 14.496094 -40.78125 14.496094 -42.648438 L 14.496094 -64.816406 L 7.015625 -64.816406 L 7.015625 0 L 14.496094 0 C 14.308594 -2.433594 14.125 -7.015625 14.125 -10.664062 L 14.214844 -10.664062 C 16.179688 -3.742188 22.820312 0.75 33.296875 0.75 Z M 31.425781 -5.984375 C 21.136719 -5.984375 14.496094 -11.691406 14.496094 -20.578125 L 14.496094 -23.007812 C 14.496094 -33.484375 21.230469 -40.21875 31.707031 -40.21875 C 41.246094 -40.21875 47.046875 -33.765625 47.046875 -23.757812 C 47.046875 -12.90625 40.964844 -5.984375 31.425781 -5.984375 Z M 31.425781 -5.984375 "/></g></g></g><g fill="#000000" fill-opacity="1"><g transform="translate(532.023586, 449.800108)"><g><path d="M 25.535156 0.75 C 37.039062 0.75 43.585938 -4.863281 45.550781 -13.5625 L 45.644531 -13.5625 C 45.644531 -8.886719 45.457031 -3.085938 45.269531 0 L 52.75 0 L 52.75 -46.203125 L 45.269531 -46.203125 L 45.269531 -25.347656 C 45.269531 -13.1875 38.347656 -5.984375 27.589844 -5.984375 C 18.800781 -5.984375 13.5625 -11.035156 13.5625 -18.988281 L 13.5625 -46.203125 L 6.078125 -46.203125 L 6.078125 -17.675781 C 6.078125 -6.453125 13.46875 0.75 25.535156 0.75 Z M 25.535156 0.75 "/></g></g></g><g fill="#000000" fill-opacity="1"><g transform="translate(613.30203, 449.800108)"><g><path d="M 25.066406 0.75 C 39.097656 0.75 46.578125 -4.675781 46.578125 -13.75 C 46.578125 -17.210938 45.082031 -20.765625 41.996094 -22.539062 C 38.816406 -24.316406 35.261719 -24.972656 28.058594 -25.722656 C 21.980469 -26.375 17.398438 -26.9375 15.152344 -27.871094 C 12.441406 -28.996094 12.160156 -31.238281 12.160156 -33.109375 C 12.160156 -37.691406 17.304688 -40.59375 25.253906 -40.59375 C 33.484375 -40.59375 37.597656 -37.414062 37.691406 -30.492188 L 44.613281 -30.492188 C 44.613281 -40.871094 38.816406 -46.953125 24.972656 -46.953125 C 12.625 -46.953125 4.675781 -41.339844 4.675781 -32.640625 C 4.675781 -29.273438 5.984375 -25.90625 8.511719 -24.039062 C 11.316406 -21.980469 15.898438 -21.042969 23.476562 -20.390625 C 29.183594 -19.828125 34.046875 -19.265625 36.195312 -18.238281 C 38.535156 -17.117188 39.097656 -15.339844 39.097656 -13.46875 C 39.097656 -8.511719 34.511719 -5.613281 24.972656 -5.613281 C 15.339844 -5.613281 11.597656 -9.257812 11.597656 -15.433594 L 4.675781 -15.433594 C 4.675781 -6.546875 9.539062 0.75 25.066406 0.75 Z M 25.066406 0.75 "/></g></g></g><g fill="#000000" fill-opacity="1"><g transform="translate(686.536826, 449.800108)"><g><path d="M 6.734375 -52.097656 L 14.777344 -52.097656 L 14.777344 -61.542969 L 6.734375 -61.542969 Z M 7.015625 0 L 14.496094 0 L 14.496094 -46.203125 L 7.015625 -46.203125 Z M 7.015625 0 "/></g></g></g><g fill="#000000" fill-opacity="1"><g transform="translate(730.028732, 449.800108)"><g><path d="M 6.546875 0 L 14.03125 0 L 14.03125 -22.726562 C 14.03125 -33.765625 20.855469 -40.21875 31.425781 -40.21875 C 41.339844 -40.21875 45.832031 -35.167969 45.832031 -27.3125 L 45.832031 0 L 53.3125 0 L 53.3125 -28.902344 C 53.3125 -39.9375 46.109375 -46.953125 33.953125 -46.953125 C 22.914062 -46.953125 16.460938 -41.808594 13.9375 -33.765625 L 13.84375 -33.765625 L 14.03125 -46.203125 L 6.546875 -46.203125 Z M 6.546875 0 "/></g></g></g><g fill="#000000" fill-opacity="1"><g transform="translate(811.400714, 449.800108)"><g><path d="M 48.355469 -25.066406 C 48.355469 -38.816406 40.59375 -46.953125 27.40625 -46.953125 C 13.5625 -46.953125 4.675781 -37.507812 4.675781 -22.726562 C 4.675781 -8.417969 13.65625 0.75 27.589844 0.75 C 39.75 0.75 47.886719 -5.613281 48.355469 -15.621094 L 41.433594 -15.621094 C 40.78125 -9.539062 35.449219 -5.613281 27.683594 -5.613281 C 18.613281 -5.613281 12.625 -11.785156 12.160156 -21.605469 L 48.355469 -21.605469 Z M 41.433594 -27.03125 L 12.441406 -27.03125 C 13.84375 -35.824219 19.359375 -40.59375 27.589844 -40.59375 C 36.382812 -40.59375 41.433594 -35.730469 41.433594 -27.589844 Z M 41.433594 -27.03125 "/></g></g></g><g fill="#000000" fill-opacity="1"><g transform="translate(886.412594, 449.800108)"><g><path d="M 25.066406 0.75 C 39.097656 0.75 46.578125 -4.675781 46.578125 -13.75 C 46.578125 -17.210938 45.082031 -20.765625 41.996094 -22.539062 C 38.816406 -24.316406 35.261719 -24.972656 28.058594 -25.722656 C 21.980469 -26.375 17.398438 -26.9375 15.152344 -27.871094 C 12.441406 -28.996094 12.160156 -31.238281 12.160156 -33.109375 C 12.160156 -37.691406 17.304688 -40.59375 25.253906 -40.59375 C 33.484375 -40.59375 37.597656 -37.414062 37.691406 -30.492188 L 44.613281 -30.492188 C 44.613281 -40.871094 38.816406 -46.953125 24.972656 -46.953125 C 12.625 -46.953125 4.675781 -41.339844 4.675781 -32.640625 C 4.675781 -29.273438 5.984375 -25.90625 8.511719 -24.039062 C 11.316406 -21.980469 15.898438 -21.042969 23.476562 -20.390625 C 29.183594 -19.828125 34.046875 -19.265625 36.195312 -18.238281 C 38.535156 -17.117188 39.097656 -15.339844 39.097656 -13.46875 C 39.097656 -8.511719 34.511719 -5.613281 24.972656 -5.613281 C 15.339844 -5.613281 11.597656 -9.257812 11.597656 -15.433594 L 4.675781 -15.433594 C 4.675781 -6.546875 9.539062 0.75 25.066406 0.75 Z M 25.066406 0.75 "/></g></g></g><g fill="#000000" fill-opacity="1"><g transform="translate(959.647411, 449.800108)"><g><path d="M 25.066406 0.75 C 39.097656 0.75 46.578125 -4.675781 46.578125 -13.75 C 46.578125 -17.210938 45.082031 -20.765625 41.996094 -22.539062 C 38.816406 -24.316406 35.261719 -24.972656 28.058594 -25.722656 C 21.980469 -26.375 17.398438 -26.9375 15.152344 -27.871094 C 12.441406 -28.996094 12.160156 -31.238281 12.160156 -33.109375 C 12.160156 -37.691406 17.304688 -40.59375 25.253906 -40.59375 C 33.484375 -40.59375 37.597656 -37.414062 37.691406 -30.492188 L 44.613281 -30.492188 C 44.613281 -40.871094 38.816406 -46.953125 24.972656 -46.953125 C 12.625 -46.953125 4.675781 -41.339844 4.675781 -32.640625 C 4.675781 -29.273438 5.984375 -25.90625 8.511719 -24.039062 C 11.316406 -21.980469 15.898438 -21.042969 23.476562 -20.390625 C 29.183594 -19.828125 34.046875 -19.265625 36.195312 -18.238281 C 38.535156 -17.117188 39.097656 -15.339844 39.097656 -13.46875 C 39.097656 -8.511719 34.511719 -5.613281 24.972656 -5.613281 C 15.339844 -5.613281 11.597656 -9.257812 11.597656 -15.433594 L 4.675781 -15.433594 C 4.675781 -6.546875 9.539062 0.75 25.066406 0.75 Z M 25.066406 0.75 "/></g></g></g></svg>