<svg xmlns="http://www.w3.org/2000/svg" xmlns:xlink="http://www.w3.org/1999/xlink" width="1700" zoomAndPan="magnify" viewBox="0 0 1275.75 623.24998" height="831" preserveAspectRatio="xMidYMid meet" version="1.0"><defs><clipPath id="7ae09b24fd"><path d="M 62 109.742188 L 384 109.742188 L 384 513.25 L 62 513.25 Z M 62 109.742188 " clip-rule="nonzero"/></clipPath><clipPath id="ceaf5d9de2"><path d="M 138.632812 333.820312 C 155.304688 337.53125 171.503906 343.597656 186.347656 351.917969 C 204.230469 361.953125 235.277344 380.390625 228.253906 403.929688 C 212.753906 397.691406 198.136719 389.042969 184.804688 378.09375 C 183.734375 377.222656 182.652344 376.851562 181.625 376.851562 C 177.210938 376.851562 173.929688 383.71875 178.441406 387.429688 C 192.140625 398.691406 207.101562 407.539062 222.945312 413.976562 C 217.691406 420.441406 210.441406 423.15625 202.863281 423.15625 C 192.511719 423.15625 181.566406 418.101562 174.230469 410.636719 C 154.691406 390.742188 144.585938 361.523438 138.632812 333.847656 L 138.632812 333.820312 M 215.621094 134.152344 C 221.503906 134.152344 224.984375 145.597656 226.382812 152.292969 C 229.140625 165.523438 229.167969 179.625 229.765625 193.070312 C 231.078125 222.316406 231.292969 251.621094 233.148438 280.820312 L 233.164062 281.25 C 233.234375 282.464844 233.277344 283.476562 233.335938 284.492188 C 233.734375 290.429688 238.800781 293.269531 243.996094 293.269531 C 249.804688 293.269531 255.785156 289.730469 255.660156 283.019531 C 255.085938 252.761719 257.726562 222.203125 260.941406 192.144531 C 262.296875 179.425781 263.136719 165.9375 266.835938 153.632812 C 268.761719 147.226562 271.5 137.960938 277.097656 137.960938 C 278.195312 137.960938 279.410156 138.316406 280.75 139.132812 C 285.488281 142 287.257812 153.761719 288.601562 158.929688 C 295.9375 187.046875 298.234375 217.21875 299.519531 247.007812 L 301.019531 287.429688 C 301.375 294.996094 307.8125 299.0625 313.722656 299.0625 C 318.988281 299.0625 323.8125 295.835938 323.527344 288.988281 C 322.628906 269.6875 322.300781 250.320312 322.5 230.996094 C 322.644531 216.992188 323 202.949219 324.355469 189.015625 C 325.039062 181.964844 329.410156 156.628906 337.328125 156.628906 C 339.515625 156.628906 341.984375 158.570312 344.710938 163.367188 C 351.71875 175.671875 352.703125 194.925781 354.742188 208.742188 C 357.769531 229.109375 359.394531 249.679688 360.066406 270.261719 C 361.195312 305.101562 360.636719 340.828125 354.386719 375.226562 C 347.292969 414.234375 330.234375 456.652344 294.296875 477.40625 C 278.636719 486.457031 261.167969 490.339844 243.484375 490.339844 C 218.304688 490.339844 192.683594 482.472656 171.160156 470.414062 C 134.835938 450.046875 104.105469 416.132812 91.585938 375.980469 C 88.804688 367.0625 85.648438 355.769531 85.933594 346.378906 C 86.363281 332.164062 94.199219 329.492188 103.875 329.492188 C 106.988281 329.492188 110.300781 329.765625 113.609375 330.023438 L 114.425781 330.121094 C 121.71875 366.175781 135.019531 406.382812 162.867188 430.90625 C 173.84375 440.566406 187.675781 445.179688 201.132812 445.179688 C 219.191406 445.179688 236.617188 436.898438 245.695312 421.429688 C 259.484375 424.867188 273.742188 426.625 288.257812 426.625 C 293.152344 426.625 298.09375 426.421875 303.046875 426.023438 C 310.082031 425.453125 308.085938 414.933594 301.347656 414.933594 C 301.175781 414.933594 300.988281 414.949219 300.804688 414.960938 C 296.453125 415.320312 292.125 415.488281 287.816406 415.488281 C 274.984375 415.488281 262.382812 413.949219 250.175781 410.992188 C 251.503906 406.441406 252.246094 401.472656 252.234375 396.078125 C 252.148438 370.671875 229.210938 352.488281 209.882812 339.871094 C 187.019531 324.941406 161.199219 314.890625 134.351562 310.082031 C 131.667969 282.179688 132.878906 253.675781 134.523438 225.800781 C 135.449219 210.085938 136.71875 194.371094 138.789062 178.769531 C 139.644531 172.289062 140.34375 165.507812 142.230469 159.230469 C 144.398438 152.035156 147.722656 149.25 151.277344 149.25 C 157.402344 149.25 164.210938 157.488281 167.066406 165.722656 C 174.570312 187.460938 173.386719 213.054688 173.957031 235.746094 L 174.414062 286.460938 C 174.34375 294.082031 180.550781 298.164062 186.460938 298.164062 C 191.742188 298.164062 196.796875 294.910156 196.9375 288.015625 C 197.835938 246.136719 197.792969 203.605469 202.660156 161.96875 C 203.519531 154.648438 203.71875 145.726562 208.171875 139.589844 C 210.984375 135.71875 213.453125 134.179688 215.59375 134.179688 L 215.621094 134.152344 M 215.878906 109.742188 C 208.15625 109.742188 200.421875 113.511719 193.914062 120.589844 C 188.261719 126.757812 184.578125 134.722656 182.136719 143.570312 C 177.398438 136.078125 170.933594 130.082031 161.828125 126.871094 C 157.371094 125.300781 153.347656 124.585938 149.707031 124.585938 C 118.605469 124.585938 115.835938 177.253906 113.738281 200.648438 C 110.613281 235.648438 108.617188 271.730469 111.46875 307 C 108.902344 306.8125 106.316406 306.714844 103.734375 306.714844 C 88.21875 306.714844 73.117188 310.640625 66.625 326.253906 C 57.433594 348.304688 67.292969 378.207031 76.171875 398.875 C 102.90625 461.105469 175.914062 513.246094 244.640625 513.246094 C 277.539062 513.246094 309.441406 501.300781 334.832031 472.796875 C 368.601562 434.875 378.792969 382.203125 381.820312 333.019531 C 384.972656 281.808594 383.503906 228.011719 372 177.828125 C 368.015625 160.398438 362.335938 131.722656 339.914062 131.722656 C 339.070312 131.722656 338.199219 131.765625 337.300781 131.851562 C 324.8125 133.023438 316.476562 141.058594 311.054688 151.222656 C 307.957031 139.886719 303.359375 129.554688 296.195312 121.902344 C 290.855469 116.210938 284.304688 113.453125 277.726562 113.453125 C 271.046875 113.453125 264.324219 116.292969 258.8125 121.789062 C 253.246094 127.34375 249.578125 134.207031 247.007812 141.558594 C 244.9375 133.535156 241.671875 125.914062 236.117188 119.691406 C 230.066406 112.941406 222.988281 109.742188 215.878906 109.742188 " clip-rule="nonzero"/></clipPath><clipPath id="4253a985d3"><path d="M 486.246094 324.992188 L 587 324.992188 L 587 467.515625 L 486.246094 467.515625 Z M 486.246094 324.992188 " clip-rule="nonzero"/></clipPath><clipPath id="081bcb891e"><path d="M 575.824219 375.277344 C 575.824219 350.441406 560.964844 334.96875 537.542969 334.96875 C 512.707031 334.96875 497.636719 351.667969 497.222656 376.703125 L 497.222656 383.226562 C 497.222656 403.183594 511.878906 418.855469 538.359375 418.855469 C 560.351562 418.855469 575.824219 402.367188 575.824219 375.277344 M 486.246094 326.621094 L 497.238281 326.621094 L 496.835938 355.125 L 497.035156 355.125 C 500.90625 337.410156 516.375 324.992188 539.386719 324.992188 C 568.503906 324.992188 586.828125 344.332031 586.828125 375.078125 C 586.828125 408.261719 567.890625 428.832031 539.800781 428.832031 C 516.175781 428.832031 501.734375 417.625 496.835938 403.183594 L 496.636719 403.183594 C 496.835938 409.703125 497.25 420.28125 497.25 425.164062 L 497.25 467.511719 L 486.246094 467.511719 L 486.246094 326.621094 " clip-rule="nonzero"/></clipPath><clipPath id="268d110eb4"><path d="M 611.855469 324.992188 L 694.925781 324.992188 L 694.925781 427.597656 L 611.855469 427.597656 Z M 611.855469 324.992188 " clip-rule="nonzero"/></clipPath><clipPath id="fc352007ef"><path d="M 611.855469 326.617188 L 622.847656 326.617188 L 622.449219 356.550781 L 622.648438 356.550781 C 627.128906 338.222656 639.546875 324.992188 660.515625 324.992188 C 682.910156 324.992188 694.925781 339.25 694.925781 364.699219 C 694.925781 370.609375 694.511719 376.917969 694.113281 380.371094 L 683.9375 380.371094 C 684.351562 377.316406 684.75 372.019531 684.75 366.726562 C 684.75 345.542969 676.199219 334.96875 658.289062 334.96875 C 636.90625 334.96875 622.847656 352.878906 622.847656 380.371094 L 622.847656 427.203125 L 611.855469 427.203125 L 611.855469 326.617188 " clip-rule="nonzero"/></clipPath><clipPath id="253a3d408c"><path d="M 716 324.777344 L 817 324.777344 L 817 429 L 716 429 Z M 716 324.777344 " clip-rule="nonzero"/></clipPath><clipPath id="6039e04dd3"><path d="M 805.46875 377.117188 C 805.46875 351.054688 789.597656 334.96875 766.589844 334.96875 C 743.582031 334.96875 727.695312 351.054688 727.695312 377.117188 C 727.695312 402.980469 743.582031 418.851562 766.589844 418.851562 C 789.597656 418.851562 805.46875 402.964844 805.46875 377.117188 M 716.703125 377.117188 C 716.703125 344.945312 736.65625 324.992188 766.589844 324.992188 C 796.320312 324.992188 816.472656 344.945312 816.472656 377.117188 C 816.472656 409.089844 796.320312 428.828125 766.589844 428.828125 C 736.65625 428.828125 716.703125 409.074219 716.703125 377.117188 " clip-rule="nonzero"/></clipPath><clipPath id="d5329f7170"><path d="M 827.027344 326.160156 L 934 326.160156 L 934 427.660156 L 827.027344 427.660156 Z M 827.027344 326.160156 " clip-rule="nonzero"/></clipPath><clipPath id="b62154e758"><path d="M 827.664062 326.617188 L 840.496094 326.617188 L 880.804688 416.199219 L 881.417969 416.199219 L 921.925781 326.617188 L 933.726562 326.617188 L 887.3125 427.203125 L 874.082031 427.203125 L 827.664062 326.617188 " clip-rule="nonzero"/></clipPath><clipPath id="4a22b9d3fe"><path d="M 478.503906 178 L 646.882812 178 L 646.882812 281 L 478.503906 281 Z M 478.503906 178 " clip-rule="nonzero"/></clipPath><clipPath id="e86f495a3a"><path d="M 478.507812 179.925781 L 509.453125 179.925781 L 508.4375 205.988281 L 508.636719 205.988281 C 513.320312 188.6875 524.722656 178.296875 543.050781 178.296875 C 562.390625 178.296875 574.808594 188.273438 577.050781 204.5625 L 577.25 204.5625 C 581.316406 188.273438 592.320312 178.296875 611.664062 178.296875 C 633.65625 178.296875 646.074219 192.144531 646.074219 215.765625 L 646.074219 280.496094 L 615.128906 280.496094 L 615.128906 222.886719 C 615.128906 211.082031 609.023438 203.945312 598.429688 203.945312 C 586.214844 203.945312 577.664062 213.308594 577.664062 231.835938 L 577.664062 280.496094 L 546.71875 280.496094 L 546.71875 222.886719 C 546.71875 211.082031 540.609375 203.945312 530.019531 203.945312 C 518 203.945312 509.453125 213.511719 509.453125 232.449219 L 509.453125 280.496094 L 478.507812 280.496094 L 478.507812 179.925781 " clip-rule="nonzero"/></clipPath><clipPath id="b20c948239"><path d="M 658.296875 178 L 762 178 L 762 282.160156 L 658.296875 282.160156 Z M 658.296875 178 " clip-rule="nonzero"/></clipPath><clipPath id="1d1f0d49f9"><path d="M 734.011719 217.992188 C 734.011719 206.585938 726.277344 200.679688 713.445312 200.679688 C 700.414062 200.679688 693.089844 206.375 690.636719 219.621094 L 734 219.621094 L 734.011719 217.992188 M 761.289062 236.117188 L 689.835938 236.117188 C 691.265625 252.605469 699.613281 259.742188 713.460938 259.742188 C 725.476562 259.742188 733.214844 255.460938 734.027344 245.695312 L 761.304688 245.695312 C 760.6875 268.703125 741.550781 282.136719 712.84375 282.136719 C 679.445312 282.136719 658.691406 263.195312 658.691406 231.238281 C 658.691406 198.050781 679.460938 178.296875 713.460938 178.296875 C 741.5625 178.296875 761.304688 194.382812 761.304688 227.371094 L 761.289062 236.117188 " clip-rule="nonzero"/></clipPath><clipPath id="8db28b476e"><path d="M 768.167969 157 L 846.652344 157 L 846.652344 282.160156 L 768.167969 282.160156 Z M 768.167969 157 " clip-rule="nonzero"/></clipPath><clipPath id="5637fb53fa"><path d="M 783.484375 245.882812 L 783.484375 203.945312 L 768.625 203.945312 L 768.625 179.925781 L 780.644531 179.925781 C 785.324219 179.925781 786.953125 177.285156 787.566406 171.175781 L 788.992188 157.128906 L 814.441406 157.128906 L 814.441406 179.925781 L 846.613281 179.925781 L 846.613281 203.945312 L 814.429688 203.945312 L 814.429688 244.253906 C 814.429688 254.644531 819.308594 257.898438 831.527344 257.898438 C 835.796875 257.898438 842.117188 257.285156 845.574219 256.472656 L 845.574219 279.882812 C 842.933594 280.496094 834.382812 282.121094 826.03125 282.121094 C 794.675781 282.121094 783.484375 268.277344 783.484375 245.882812 " clip-rule="nonzero"/></clipPath><clipPath id="52193a3b4a"><path d="M 855.210938 178 L 957.949219 178 L 957.949219 282.160156 L 855.210938 282.160156 Z M 855.210938 178 " clip-rule="nonzero"/></clipPath><clipPath id="123dd99887"><path d="M 926.816406 241.8125 L 926.816406 239.773438 L 896.886719 239.773438 C 888.535156 239.773438 883.453125 243.640625 883.453125 249.351562 C 883.453125 257.085938 890.175781 261.15625 901.367188 261.15625 C 917.453125 261.15625 926.816406 254.03125 926.816406 241.8125 M 855.550781 251.589844 C 855.550781 235.105469 867.367188 223.085938 894.03125 223.085938 L 926.816406 223.085938 L 926.816406 216.363281 C 926.816406 204.148438 919.894531 199.265625 905.632812 199.265625 C 894.03125 199.265625 887.308594 204.160156 887.308594 212.296875 C 887.308594 212.910156 887.308594 214.539062 887.507812 216.578125 L 859.019531 216.578125 C 858.816406 214.953125 858.605469 212.710938 858.605469 210.667969 C 858.605469 190.300781 876.515625 178.296875 907.0625 178.296875 C 939.035156 178.296875 957.761719 192.558594 957.761719 219.433594 L 957.761719 280.496094 L 926.816406 280.496094 C 927.429688 275.398438 928.242188 266.234375 928.242188 260.140625 L 928.042969 260.140625 C 924.988281 274.398438 913.585938 282.136719 895.257812 282.136719 C 871.835938 282.136719 855.550781 271.960938 855.550781 251.589844 " clip-rule="nonzero"/></clipPath><clipPath id="e4cb8238d6"><path d="M 954.492188 294.054688 L 966.507812 294.054688 L 966.507812 312.980469 L 954.492188 312.980469 Z M 955.105469 326.625 L 966.097656 326.625 L 966.097656 427.210938 L 955.105469 427.210938 Z M 955.105469 326.625 " clip-rule="nonzero"/></clipPath><clipPath id="33cfdf2469"><path d="M 992.566406 286.105469 L 1092.945312 286.105469 L 1092.945312 428.828125 L 992.566406 428.828125 Z M 992.566406 286.105469 " clip-rule="nonzero"/></clipPath><clipPath id="1cb2a6f17e"><path d="M 1081.945312 378.136719 L 1081.945312 373.242188 C 1081.945312 348.40625 1066.273438 334.960938 1042.453125 334.960938 C 1019.042969 334.960938 1003.558594 352.0625 1003.558594 375.683594 C 1003.558594 401.945312 1018.832031 418.847656 1042.039062 418.847656 C 1067.289062 418.847656 1081.945312 400.121094 1081.945312 378.125 M 992.566406 375.683594 C 992.566406 345.964844 1011.707031 324.984375 1041.640625 324.984375 C 1063.21875 324.984375 1077.265625 333.535156 1081.746094 349.007812 L 1081.945312 349.007812 L 1081.945312 286.105469 L 1092.9375 286.105469 L 1092.9375 427.195312 L 1081.945312 427.195312 C 1082.347656 417.417969 1082.5625 407.65625 1082.761719 397.878906 L 1082.347656 397.878906 C 1078.492188 415.792969 1063.621094 428.824219 1040.609375 428.824219 C 1011.507812 428.824219 992.566406 408.269531 992.566406 375.683594 " clip-rule="nonzero"/></clipPath><clipPath id="5db967250e"><path d="M 1119.398438 324.992188 L 1213 324.992188 L 1213 428.828125 L 1119.398438 428.828125 Z M 1119.398438 324.992188 " clip-rule="nonzero"/></clipPath><clipPath id="696dc24391"><path d="M 1202.269531 368.769531 C 1202.269531 346.574219 1189.238281 334.570312 1168.472656 334.570312 C 1147.503906 334.570312 1133.457031 347.1875 1130.804688 369.796875 L 1202.269531 369.796875 L 1202.269531 368.769531 M 1212.660156 378.132812 L 1130.390625 378.132812 C 1130.589844 403.78125 1145.460938 419.253906 1168.457031 419.253906 C 1187.398438 419.253906 1200.828125 409.476562 1202.253906 393.804688 L 1212.644531 393.804688 C 1211.632812 415.382812 1193.921875 428.828125 1168.472656 428.828125 C 1138.539062 428.828125 1119.398438 409.289062 1119.398438 377.730469 C 1119.398438 345.144531 1138.339844 324.992188 1168.058594 324.992188 C 1195.746094 324.992188 1212.644531 341.691406 1212.644531 372.023438 L 1212.660156 378.132812 " clip-rule="nonzero"/></clipPath></defs><g clip-path="url(#7ae09b24fd)"><g clip-path="url(#ceaf5d9de2)"><path fill="#212121" d="M 62.941406 109.742188 L 383.273438 109.742188 L 383.273438 513.25 L 62.941406 513.25 Z M 62.941406 109.742188 " fill-opacity="1" fill-rule="nonzero"/></g></g><g clip-path="url(#4253a985d3)"><g clip-path="url(#081bcb891e)"><path fill="#212121" d="M 486.246094 324.992188 L 586.824219 324.992188 L 586.824219 467.515625 L 486.246094 467.515625 Z M 486.246094 324.992188 " fill-opacity="1" fill-rule="nonzero"/></g></g><g clip-path="url(#268d110eb4)"><g clip-path="url(#fc352007ef)"><path fill="#212121" d="M 611.855469 324.992188 L 694.925781 324.992188 L 694.925781 427.199219 L 611.855469 427.199219 Z M 611.855469 324.992188 " fill-opacity="1" fill-rule="nonzero"/></g></g><g clip-path="url(#253a3d408c)"><g clip-path="url(#6039e04dd3)"><path fill="#212121" d="M 709.566406 317.855469 L 940.875 317.855469 L 940.875 435.964844 L 709.566406 435.964844 Z M 709.566406 317.855469 " fill-opacity="1" fill-rule="nonzero"/></g></g><g clip-path="url(#d5329f7170)"><g clip-path="url(#b62154e758)"><path fill="#212121" d="M 709.566406 317.855469 L 940.875 317.855469 L 940.875 435.964844 L 709.566406 435.964844 Z M 709.566406 317.855469 " fill-opacity="1" fill-rule="nonzero"/></g></g><g clip-path="url(#4a22b9d3fe)"><g clip-path="url(#e86f495a3a)"><path fill="#212121" d="M 471.371094 149.980469 L 973.644531 149.980469 L 973.644531 434.335938 L 471.371094 434.335938 Z M 471.371094 149.980469 " fill-opacity="1" fill-rule="nonzero"/></g></g><g clip-path="url(#b20c948239)"><g clip-path="url(#1d1f0d49f9)"><path fill="#212121" d="M 471.371094 149.980469 L 973.644531 149.980469 L 973.644531 434.335938 L 471.371094 434.335938 Z M 471.371094 149.980469 " fill-opacity="1" fill-rule="nonzero"/></g></g><g clip-path="url(#8db28b476e)"><g clip-path="url(#5637fb53fa)"><path fill="#212121" d="M 471.371094 149.980469 L 973.644531 149.980469 L 973.644531 434.335938 L 471.371094 434.335938 Z M 471.371094 149.980469 " fill-opacity="1" fill-rule="nonzero"/></g></g><g clip-path="url(#52193a3b4a)"><g clip-path="url(#123dd99887)"><path fill="#212121" d="M 471.371094 149.980469 L 973.644531 149.980469 L 973.644531 434.335938 L 471.371094 434.335938 Z M 471.371094 149.980469 " fill-opacity="1" fill-rule="nonzero"/></g></g><g clip-path="url(#e4cb8238d6)"><path fill="#212121" d="M 471.371094 149.980469 L 973.644531 149.980469 L 973.644531 434.335938 L 471.371094 434.335938 Z M 471.371094 149.980469 " fill-opacity="1" fill-rule="nonzero"/></g><g clip-path="url(#33cfdf2469)"><g clip-path="url(#1cb2a6f17e)"><path fill="#212121" d="M 992.566406 286.105469 L 1092.945312 286.105469 L 1092.945312 428.828125 L 992.566406 428.828125 Z M 992.566406 286.105469 " fill-opacity="1" fill-rule="nonzero"/></g></g><g clip-path="url(#5db967250e)"><g clip-path="url(#696dc24391)"><path fill="#212121" d="M 1119.398438 324.992188 L 1212.648438 324.992188 L 1212.648438 428.828125 L 1119.398438 428.828125 Z M 1119.398438 324.992188 " fill-opacity="1" fill-rule="nonzero"/></g></g></svg>